%TF.GenerationSoftware,KiCad,Pcbnew,10.0.6*%
%TF.CreationDate,2026-09-29T02:36:27+00:00*%
%TF.ProjectId,AGD6.07.010,41474436-2e30-4372-9e30-31302e6b6963,rev?*%
%TF.SameCoordinates,Original*%
%TF.FileFunction,Soldermask,Bot*%
%TF.FilePolarity,Negative*%
%FSLAX46Y46*%
G04 Gerber Fmt 4.6, Leading zero omitted, Abs format (unit mm)*
G04 Created by KiCad (PCBNEW 10.0.6) date 2026-09-29 02:36:27*
%MOMM*%
%LPD*%
G01*
G04 APERTURE LIST*
G04 Aperture macros list*
%AMRoundRect*
0 Rectangle with rounded corners*
0 $1 Rounding radius*
0 $2 $3 $4 $5 $6 $7 $8 $9 X,Y pos of 4 corners*
0 Add a 4 corners polygon primitive as box body*
4,1,4,$2,$3,$4,$5,$6,$7,$8,$9,$2,$3,0*
0 Add four circle primitives for the rounded corners*
1,1,$1+$1,$2,$3*
1,1,$1+$1,$4,$5*
1,1,$1+$1,$6,$7*
1,1,$1+$1,$8,$9*
0 Add four rect primitives between the rounded corners*
20,1,$1+$1,$2,$3,$4,$5,0*
20,1,$1+$1,$4,$5,$6,$7,0*
20,1,$1+$1,$6,$7,$8,$9,0*
20,1,$1+$1,$8,$9,$2,$3,0*%
G04 Aperture macros list end*
%ADD10RoundRect,0.250000X0.750000X-0.600000X0.750000X0.600000X-0.750000X0.600000X-0.750000X-0.600000X0*%
%ADD11O,2.000000X1.700000*%
%ADD12R,2.400000X2.400000*%
%ADD13C,2.400000*%
%ADD14R,1.700000X1.700000*%
%ADD15C,1.700000*%
%ADD16C,1.400000*%
%ADD17RoundRect,0.770000X-0.980000X-0.980000X0.980000X-0.980000X0.980000X0.980000X-0.980000X0.980000X0*%
%ADD18C,3.500000*%
%ADD19C,0.650000*%
%ADD20O,1.000000X2.100000*%
%ADD21O,1.000000X1.800000*%
%ADD22C,0.800000*%
%ADD23C,6.400000*%
%ADD24R,2.000000X2.000000*%
%ADD25C,2.000000*%
%ADD26RoundRect,0.062500X-0.117500X-0.062500X0.117500X-0.062500X0.117500X0.062500X-0.117500X0.062500X0*%
%ADD27RoundRect,0.140000X0.140000X0.170000X-0.140000X0.170000X-0.140000X-0.170000X0.140000X-0.170000X0*%
%ADD28RoundRect,0.250000X1.450000X-0.312500X1.450000X0.312500X-1.450000X0.312500X-1.450000X-0.312500X0*%
%ADD29RoundRect,0.250000X0.375000X0.625000X-0.375000X0.625000X-0.375000X-0.625000X0.375000X-0.625000X0*%
%ADD30RoundRect,0.140000X0.170000X-0.140000X0.170000X0.140000X-0.170000X0.140000X-0.170000X-0.140000X0*%
%ADD31RoundRect,0.135000X0.135000X0.185000X-0.135000X0.185000X-0.135000X-0.185000X0.135000X-0.185000X0*%
%ADD32RoundRect,0.135000X0.185000X-0.135000X0.185000X0.135000X-0.185000X0.135000X-0.185000X-0.135000X0*%
%ADD33C,1.500000*%
%ADD34RoundRect,0.250000X0.625000X-0.375000X0.625000X0.375000X-0.625000X0.375000X-0.625000X-0.375000X0*%
%ADD35RoundRect,0.250000X0.250000X0.475000X-0.250000X0.475000X-0.250000X-0.475000X0.250000X-0.475000X0*%
%ADD36RoundRect,0.250000X0.325000X1.100000X-0.325000X1.100000X-0.325000X-1.100000X0.325000X-1.100000X0*%
%ADD37RoundRect,0.250000X1.000000X0.650000X-1.000000X0.650000X-1.000000X-0.650000X1.000000X-0.650000X0*%
%ADD38RoundRect,0.250000X0.312500X1.450000X-0.312500X1.450000X-0.312500X-1.450000X0.312500X-1.450000X0*%
%ADD39RoundRect,0.150000X0.700000X-0.150000X0.700000X0.150000X-0.700000X0.150000X-0.700000X-0.150000X0*%
%ADD40RoundRect,0.250000X1.100000X-0.250000X1.100000X0.250000X-1.100000X0.250000X-1.100000X-0.250000X0*%
%ADD41RoundRect,0.150000X0.150000X0.700000X-0.150000X0.700000X-0.150000X-0.700000X0.150000X-0.700000X0*%
%ADD42RoundRect,0.250000X0.250000X1.100000X-0.250000X1.100000X-0.250000X-1.100000X0.250000X-1.100000X0*%
%ADD43RoundRect,0.150000X0.587500X0.150000X-0.587500X0.150000X-0.587500X-0.150000X0.587500X-0.150000X0*%
%ADD44RoundRect,0.250000X1.100000X-0.325000X1.100000X0.325000X-1.100000X0.325000X-1.100000X-0.325000X0*%
%ADD45RoundRect,0.200000X0.200000X0.275000X-0.200000X0.275000X-0.200000X-0.275000X0.200000X-0.275000X0*%
%ADD46RoundRect,0.225000X0.225000X0.250000X-0.225000X0.250000X-0.225000X-0.250000X0.225000X-0.250000X0*%
%ADD47RoundRect,0.218750X0.256250X-0.218750X0.256250X0.218750X-0.256250X0.218750X-0.256250X-0.218750X0*%
%ADD48RoundRect,0.250000X0.475000X-0.250000X0.475000X0.250000X-0.475000X0.250000X-0.475000X-0.250000X0*%
%ADD49RoundRect,0.250000X0.650000X-1.000000X0.650000X1.000000X-0.650000X1.000000X-0.650000X-1.000000X0*%
%ADD50RoundRect,0.250000X0.262500X0.450000X-0.262500X0.450000X-0.262500X-0.450000X0.262500X-0.450000X0*%
%ADD51RoundRect,0.200000X0.275000X-0.200000X0.275000X0.200000X-0.275000X0.200000X-0.275000X-0.200000X0*%
%ADD52RoundRect,0.250000X1.425000X-0.362500X1.425000X0.362500X-1.425000X0.362500X-1.425000X-0.362500X0*%
%ADD53RoundRect,0.218750X0.218750X0.256250X-0.218750X0.256250X-0.218750X-0.256250X0.218750X-0.256250X0*%
%ADD54RoundRect,0.225000X0.250000X-0.225000X0.250000X0.225000X-0.250000X0.225000X-0.250000X-0.225000X0*%
G04 APERTURE END LIST*
D10*
%TO.C,J901*%
X155795000Y-196105000D03*
D11*
X155795000Y-193605000D03*
%TD*%
D12*
%TO.C,PS202*%
X117025000Y-107525000D03*
D13*
X117025000Y-122765000D03*
X117025000Y-115145000D03*
X157665000Y-107525000D03*
X157665000Y-115145000D03*
X157665000Y-122765000D03*
%TD*%
D14*
%TO.C,J1007*%
X102725000Y-78765000D03*
D15*
X102725000Y-76225000D03*
X105265000Y-78765000D03*
X105265000Y-76225000D03*
X107805000Y-78765000D03*
X107805000Y-76225000D03*
X110345000Y-78765000D03*
X110345000Y-76225000D03*
X112885000Y-78765000D03*
X112885000Y-76225000D03*
X115425000Y-78765000D03*
X115425000Y-76225000D03*
X117965000Y-78765000D03*
X117965000Y-76225000D03*
X120505000Y-78765000D03*
X120505000Y-76225000D03*
X123045000Y-78765000D03*
X123045000Y-76225000D03*
X125585000Y-78765000D03*
X125585000Y-76225000D03*
X128125000Y-78765000D03*
X128125000Y-76225000D03*
X130665000Y-78765000D03*
X130665000Y-76225000D03*
X133205000Y-78765000D03*
X133205000Y-76225000D03*
%TD*%
D16*
%TO.C,J101*%
X146595000Y-54545000D03*
X157595000Y-54545000D03*
D17*
X154595000Y-64545000D03*
D18*
X149595000Y-64545000D03*
%TD*%
D14*
%TO.C,J310*%
X102715000Y-87715000D03*
D15*
X105255000Y-87715000D03*
X107795000Y-87715000D03*
X110335000Y-87715000D03*
X112875000Y-87715000D03*
X115415000Y-87715000D03*
X117955000Y-87715000D03*
X120495000Y-87715000D03*
X123035000Y-87715000D03*
X125575000Y-87715000D03*
%TD*%
D16*
%TO.C,J501*%
X131095000Y-60495000D03*
X142095000Y-60495000D03*
D17*
X134095000Y-65495000D03*
D18*
X139095000Y-65495000D03*
%TD*%
D14*
%TO.C,J309*%
X102715000Y-83215000D03*
D15*
X105255000Y-83215000D03*
X107795000Y-83215000D03*
X110335000Y-83215000D03*
X112875000Y-83215000D03*
X115415000Y-83215000D03*
X117955000Y-83215000D03*
X120495000Y-83215000D03*
X123035000Y-83215000D03*
X125575000Y-83215000D03*
%TD*%
D10*
%TO.C,J803*%
X131795000Y-196105000D03*
D11*
X131795000Y-193605000D03*
%TD*%
D19*
%TO.C,J603*%
X103375000Y-192270000D03*
X109155000Y-192270000D03*
D20*
X101945000Y-191770000D03*
D21*
X101945000Y-195950000D03*
D20*
X110585000Y-191770000D03*
D21*
X110585000Y-195950000D03*
%TD*%
D10*
%TO.C,J902*%
X163795000Y-196105000D03*
D11*
X163795000Y-193605000D03*
%TD*%
D22*
%TO.C,H104*%
X172600000Y-180000000D03*
X173302944Y-178302944D03*
X173302944Y-181697056D03*
X175000000Y-177600000D03*
D23*
X175000000Y-180000000D03*
D22*
X175000000Y-182400000D03*
X176697056Y-178302944D03*
X176697056Y-181697056D03*
X177400000Y-180000000D03*
%TD*%
D10*
%TO.C,J804*%
X139795000Y-196105000D03*
D11*
X139795000Y-193605000D03*
%TD*%
D10*
%TO.C,J801*%
X115795000Y-196105000D03*
D11*
X115795000Y-193605000D03*
%TD*%
D16*
%TO.C,J202*%
X102595000Y-60495000D03*
X113595000Y-60495000D03*
D17*
X105595000Y-65495000D03*
D18*
X110595000Y-65495000D03*
%TD*%
D10*
%TO.C,J805*%
X147795000Y-196105000D03*
D11*
X147795000Y-193605000D03*
%TD*%
D22*
%TO.C,H103*%
X122600000Y-180000000D03*
X123302944Y-178302944D03*
X123302944Y-181697056D03*
X125000000Y-177600000D03*
D23*
X125000000Y-180000000D03*
D22*
X125000000Y-182400000D03*
X126697056Y-178302944D03*
X126697056Y-181697056D03*
X127400000Y-180000000D03*
%TD*%
%TO.C,H101*%
X122600000Y-70000000D03*
X123302944Y-68302944D03*
X123302944Y-71697056D03*
X125000000Y-67600000D03*
D23*
X125000000Y-70000000D03*
D22*
X125000000Y-72400000D03*
X126697056Y-68302944D03*
X126697056Y-71697056D03*
X127400000Y-70000000D03*
%TD*%
D12*
%TO.C,PS201*%
X141525000Y-80025000D03*
D13*
X141525000Y-95265000D03*
X141525000Y-87645000D03*
X182165000Y-80025000D03*
X182165000Y-87645000D03*
X182165000Y-95265000D03*
%TD*%
D22*
%TO.C,H102*%
X172600000Y-70000000D03*
X173302944Y-68302944D03*
X173302944Y-71697056D03*
X175000000Y-67600000D03*
D23*
X175000000Y-70000000D03*
D22*
X175000000Y-72400000D03*
X176697056Y-68302944D03*
X176697056Y-71697056D03*
X177400000Y-70000000D03*
%TD*%
D10*
%TO.C,J802*%
X123795000Y-196105000D03*
D11*
X123795000Y-193605000D03*
%TD*%
D24*
%TO.C,BZ801*%
X147397500Y-178696200D03*
D25*
X154997500Y-178696200D03*
%TD*%
D26*
%TO.C,D809*%
X194615000Y-170395000D03*
X193775000Y-170395000D03*
%TD*%
D27*
%TO.C,C705*%
X174835000Y-174905000D03*
X173875000Y-174905000D03*
%TD*%
D28*
%TO.C,F802*%
X160395000Y-188532500D03*
X160395000Y-184257500D03*
%TD*%
D29*
%TO.C,F502*%
X164625000Y-62075000D03*
X161825000Y-62075000D03*
%TD*%
D30*
%TO.C,C421*%
X108905000Y-97835000D03*
X108905000Y-96875000D03*
%TD*%
D31*
%TO.C,R842*%
X138885000Y-179915000D03*
X137865000Y-179915000D03*
%TD*%
D32*
%TO.C,R307*%
X108915000Y-153385000D03*
X108915000Y-152365000D03*
%TD*%
D33*
%TO.C,TP206*%
X127697500Y-145696200D03*
%TD*%
D34*
%TO.C,F403*%
X169075000Y-67625000D03*
X169075000Y-64825000D03*
%TD*%
D35*
%TO.C,C208*%
X165095000Y-70925000D03*
X163195000Y-70925000D03*
%TD*%
D26*
%TO.C,D601*%
X179615000Y-190895000D03*
X178775000Y-190895000D03*
%TD*%
D36*
%TO.C,C218*%
X183720000Y-71545000D03*
X180770000Y-71545000D03*
%TD*%
D26*
%TO.C,D432*%
X194615000Y-57395000D03*
X193775000Y-57395000D03*
%TD*%
D36*
%TO.C,C213*%
X175720000Y-103545000D03*
X172770000Y-103545000D03*
%TD*%
D37*
%TO.C,D802*%
X131445000Y-186195000D03*
X127445000Y-186195000D03*
%TD*%
D38*
%TO.C,F402*%
X196032500Y-156895000D03*
X191757500Y-156895000D03*
%TD*%
D39*
%TO.C,J1006*%
X105995000Y-118050000D03*
X105995000Y-116800000D03*
X105995000Y-115550000D03*
X105995000Y-114300000D03*
D40*
X102795000Y-119900000D03*
X102795000Y-112450000D03*
%TD*%
D31*
%TO.C,R107*%
X150385000Y-72915000D03*
X149365000Y-72915000D03*
%TD*%
D32*
%TO.C,R812*%
X113415000Y-188885000D03*
X113415000Y-187865000D03*
%TD*%
%TO.C,R213*%
X176915000Y-111385000D03*
X176915000Y-110365000D03*
%TD*%
D31*
%TO.C,R311*%
X121885000Y-138415000D03*
X120865000Y-138415000D03*
%TD*%
D33*
%TO.C,TP201*%
X174197500Y-113696200D03*
%TD*%
D30*
%TO.C,C202*%
X160905000Y-71335000D03*
X160905000Y-70375000D03*
%TD*%
D41*
%TO.C,J702*%
X186050000Y-194005000D03*
X184800000Y-194005000D03*
X183550000Y-194005000D03*
X182300000Y-194005000D03*
D42*
X187900000Y-197205000D03*
X180450000Y-197205000D03*
%TD*%
D31*
%TO.C,R872*%
X136385000Y-156415000D03*
X135365000Y-156415000D03*
%TD*%
D43*
%TO.C,D811*%
X116312500Y-142695000D03*
X116312500Y-144595000D03*
X114437500Y-143645000D03*
%TD*%
D44*
%TO.C,C203*%
X133045000Y-93220000D03*
X133045000Y-90270000D03*
%TD*%
D45*
%TO.C,R103*%
X134250000Y-82175000D03*
X132600000Y-82175000D03*
%TD*%
D37*
%TO.C,D804*%
X143945000Y-187695000D03*
X139945000Y-187695000D03*
%TD*%
D46*
%TO.C,C107*%
X134200000Y-95675000D03*
X132650000Y-95675000D03*
%TD*%
D31*
%TO.C,R608*%
X105385000Y-188415000D03*
X104365000Y-188415000D03*
%TD*%
D47*
%TO.C,D206*%
X172675000Y-108712500D03*
X172675000Y-107137500D03*
%TD*%
D27*
%TO.C,C702*%
X192335000Y-180905000D03*
X191375000Y-180905000D03*
%TD*%
D39*
%TO.C,J308*%
X105995000Y-169295000D03*
X105995000Y-168045000D03*
X105995000Y-166795000D03*
D40*
X102795000Y-171145000D03*
X102795000Y-164945000D03*
%TD*%
D46*
%TO.C,C209*%
X163200000Y-65175000D03*
X161650000Y-65175000D03*
%TD*%
D48*
%TO.C,C211*%
X169925000Y-108595000D03*
X169925000Y-106695000D03*
%TD*%
D46*
%TO.C,C217*%
X128200000Y-142675000D03*
X126650000Y-142675000D03*
%TD*%
D32*
%TO.C,R811*%
X108915000Y-137385000D03*
X108915000Y-136365000D03*
%TD*%
D49*
%TO.C,D803*%
X135695000Y-187945000D03*
X135695000Y-183945000D03*
%TD*%
D26*
%TO.C,D603*%
X182115000Y-190895000D03*
X181275000Y-190895000D03*
%TD*%
D31*
%TO.C,R301*%
X111385000Y-145915000D03*
X110365000Y-145915000D03*
%TD*%
D49*
%TO.C,D202*%
X179195000Y-107445000D03*
X179195000Y-103445000D03*
%TD*%
%TO.C,D808*%
X142195000Y-178945000D03*
X142195000Y-174945000D03*
%TD*%
D33*
%TO.C,TP801*%
X111197500Y-143196200D03*
%TD*%
D35*
%TO.C,C207*%
X163095000Y-67925000D03*
X161195000Y-67925000D03*
%TD*%
D36*
%TO.C,C212*%
X148720000Y-131045000D03*
X145770000Y-131045000D03*
%TD*%
D45*
%TO.C,R214*%
X170750000Y-115175000D03*
X169100000Y-115175000D03*
%TD*%
D41*
%TO.C,J602*%
X194050000Y-194005000D03*
X192800000Y-194005000D03*
D42*
X195900000Y-197205000D03*
X190950000Y-197205000D03*
%TD*%
D39*
%TO.C,J1005*%
X105995000Y-107550000D03*
X105995000Y-106300000D03*
X105995000Y-105050000D03*
X105995000Y-103800000D03*
D40*
X102795000Y-109400000D03*
X102795000Y-101950000D03*
%TD*%
D31*
%TO.C,R423*%
X166385000Y-65415000D03*
X165365000Y-65415000D03*
%TD*%
D50*
%TO.C,R421*%
X194037500Y-142395000D03*
X192212500Y-142395000D03*
%TD*%
D33*
%TO.C,TP204*%
X151697500Y-130696200D03*
%TD*%
D41*
%TO.C,J701*%
X175550000Y-194005000D03*
X174300000Y-194005000D03*
X173050000Y-194005000D03*
X171800000Y-194005000D03*
D42*
X177400000Y-197205000D03*
X169950000Y-197205000D03*
%TD*%
D44*
%TO.C,C204*%
X166045000Y-105720000D03*
X166045000Y-102770000D03*
%TD*%
D32*
%TO.C,R106*%
X153415000Y-70885000D03*
X153415000Y-69865000D03*
%TD*%
D27*
%TO.C,C804*%
X135835000Y-177905000D03*
X134875000Y-177905000D03*
%TD*%
D31*
%TO.C,R203*%
X183885000Y-119415000D03*
X182865000Y-119415000D03*
%TD*%
%TO.C,R701*%
X192385000Y-167915000D03*
X191365000Y-167915000D03*
%TD*%
%TO.C,R602*%
X152385000Y-169415000D03*
X151365000Y-169415000D03*
%TD*%
D36*
%TO.C,C105*%
X134220000Y-99045000D03*
X131270000Y-99045000D03*
%TD*%
D33*
%TO.C,TP702*%
X189197500Y-185696200D03*
%TD*%
D31*
%TO.C,R807*%
X113385000Y-140415000D03*
X112365000Y-140415000D03*
%TD*%
%TO.C,R609*%
X108385000Y-188415000D03*
X107365000Y-188415000D03*
%TD*%
%TO.C,R841*%
X127385000Y-134915000D03*
X126365000Y-134915000D03*
%TD*%
%TO.C,R821*%
X118885000Y-137915000D03*
X117865000Y-137915000D03*
%TD*%
%TO.C,R211*%
X165885000Y-115415000D03*
X164865000Y-115415000D03*
%TD*%
D39*
%TO.C,J1004*%
X105995000Y-97050000D03*
X105995000Y-95800000D03*
X105995000Y-94550000D03*
X105995000Y-93300000D03*
D40*
X102795000Y-98900000D03*
X102795000Y-91450000D03*
%TD*%
D39*
%TO.C,J301*%
X105995000Y-139050000D03*
X105995000Y-137800000D03*
X105995000Y-136550000D03*
X105995000Y-135300000D03*
D40*
X102795000Y-140900000D03*
X102795000Y-133450000D03*
%TD*%
D31*
%TO.C,R310*%
X121385000Y-140415000D03*
X120365000Y-140415000D03*
%TD*%
D37*
%TO.C,D801*%
X120445000Y-187695000D03*
X116445000Y-187695000D03*
%TD*%
D32*
%TO.C,R506*%
X160915000Y-58885000D03*
X160915000Y-57865000D03*
%TD*%
D34*
%TO.C,F801*%
X131575000Y-182625000D03*
X131575000Y-179825000D03*
%TD*%
D31*
%TO.C,R822*%
X135385000Y-180915000D03*
X134365000Y-180915000D03*
%TD*%
D27*
%TO.C,C215*%
X165835000Y-110905000D03*
X164875000Y-110905000D03*
%TD*%
D26*
%TO.C,D806*%
X194615000Y-172395000D03*
X193775000Y-172395000D03*
%TD*%
D32*
%TO.C,R434*%
X166915000Y-62385000D03*
X166915000Y-61365000D03*
%TD*%
%TO.C,R210*%
X165415000Y-68385000D03*
X165415000Y-67365000D03*
%TD*%
D33*
%TO.C,TP207*%
X170697500Y-58196200D03*
%TD*%
D39*
%TO.C,J302*%
X105995000Y-149550000D03*
X105995000Y-148300000D03*
X105995000Y-147050000D03*
X105995000Y-145800000D03*
D40*
X102795000Y-151400000D03*
X102795000Y-143950000D03*
%TD*%
D46*
%TO.C,C216*%
X135700000Y-142675000D03*
X134150000Y-142675000D03*
%TD*%
D43*
%TO.C,D813*%
X121312500Y-143195000D03*
X121312500Y-145095000D03*
X119437500Y-144145000D03*
%TD*%
D33*
%TO.C,TP102*%
X161697500Y-55196200D03*
%TD*%
D32*
%TO.C,R804*%
X124415000Y-188885000D03*
X124415000Y-187865000D03*
%TD*%
%TO.C,R204*%
X182415000Y-103385000D03*
X182415000Y-102365000D03*
%TD*%
D35*
%TO.C,C502*%
X167595000Y-57925000D03*
X165695000Y-57925000D03*
%TD*%
D27*
%TO.C,C101*%
X153335000Y-72905000D03*
X152375000Y-72905000D03*
%TD*%
D51*
%TO.C,R216*%
X167675000Y-119250000D03*
X167675000Y-117600000D03*
%TD*%
D31*
%TO.C,R205*%
X183885000Y-105415000D03*
X182865000Y-105415000D03*
%TD*%
D27*
%TO.C,C201*%
X185835000Y-102905000D03*
X184875000Y-102905000D03*
%TD*%
D32*
%TO.C,R806*%
X115415000Y-140385000D03*
X115415000Y-139365000D03*
%TD*%
D52*
%TO.C,RS202*%
X190875000Y-93237500D03*
X190875000Y-87312500D03*
%TD*%
D39*
%TO.C,J311*%
X105995000Y-178795000D03*
X105995000Y-177545000D03*
X105995000Y-176295000D03*
D40*
X102795000Y-180645000D03*
X102795000Y-174445000D03*
%TD*%
D47*
%TO.C,D205*%
X171175000Y-112712500D03*
X171175000Y-111137500D03*
%TD*%
D51*
%TO.C,R102*%
X138675000Y-71250000D03*
X138675000Y-69600000D03*
%TD*%
D31*
%TO.C,R871*%
X131385000Y-132915000D03*
X130365000Y-132915000D03*
%TD*%
%TO.C,R861*%
X166885000Y-144415000D03*
X165865000Y-144415000D03*
%TD*%
D30*
%TO.C,C431*%
X110905000Y-96835000D03*
X110905000Y-95875000D03*
%TD*%
D35*
%TO.C,C206*%
X167095000Y-108425000D03*
X165195000Y-108425000D03*
%TD*%
D32*
%TO.C,R862*%
X168915000Y-143885000D03*
X168915000Y-142865000D03*
%TD*%
D43*
%TO.C,D421*%
X193812500Y-137695000D03*
X193812500Y-139595000D03*
X191937500Y-138645000D03*
%TD*%
D32*
%TO.C,R504*%
X134415000Y-87885000D03*
X134415000Y-86865000D03*
%TD*%
D45*
%TO.C,R217*%
X127750000Y-140175000D03*
X126100000Y-140175000D03*
%TD*%
D53*
%TO.C,D204*%
X166712500Y-113175000D03*
X165137500Y-113175000D03*
%TD*%
D38*
%TO.C,F501*%
X135532500Y-70895000D03*
X131257500Y-70895000D03*
%TD*%
D31*
%TO.C,R705*%
X137385000Y-154415000D03*
X136365000Y-154415000D03*
%TD*%
D32*
%TO.C,R218*%
X123915000Y-143885000D03*
X123915000Y-142865000D03*
%TD*%
D26*
%TO.C,D422*%
X194615000Y-59395000D03*
X193775000Y-59395000D03*
%TD*%
D30*
%TO.C,C411*%
X108905000Y-94835000D03*
X108905000Y-93875000D03*
%TD*%
D27*
%TO.C,C219*%
X168835000Y-110905000D03*
X167875000Y-110905000D03*
%TD*%
D32*
%TO.C,R201*%
X174915000Y-110885000D03*
X174915000Y-109865000D03*
%TD*%
D54*
%TO.C,C210*%
X169675000Y-104200000D03*
X169675000Y-102650000D03*
%TD*%
D45*
%TO.C,R110*%
X169250000Y-70675000D03*
X167600000Y-70675000D03*
%TD*%
D51*
%TO.C,R215*%
X165175000Y-119250000D03*
X165175000Y-117600000D03*
%TD*%
D26*
%TO.C,D303*%
X109615000Y-150395000D03*
X108775000Y-150395000D03*
%TD*%
D32*
%TO.C,R831*%
X123915000Y-138885000D03*
X123915000Y-137865000D03*
%TD*%
D38*
%TO.C,F1001*%
X145532500Y-71395000D03*
X141257500Y-71395000D03*
%TD*%
D32*
%TO.C,R304*%
X108915000Y-133885000D03*
X108915000Y-132865000D03*
%TD*%
D39*
%TO.C,J1008*%
X105995000Y-128550000D03*
X105995000Y-127300000D03*
X105995000Y-126050000D03*
X105995000Y-124800000D03*
D40*
X102795000Y-130400000D03*
X102795000Y-122950000D03*
%TD*%
D32*
%TO.C,R702*%
X121915000Y-148385000D03*
X121915000Y-147365000D03*
%TD*%
D31*
%TO.C,R502*%
X119385000Y-72915000D03*
X118365000Y-72915000D03*
%TD*%
D32*
%TO.C,R208*%
X130415000Y-143885000D03*
X130415000Y-142865000D03*
%TD*%
D33*
%TO.C,TP203*%
X173697500Y-117196200D03*
%TD*%
D31*
%TO.C,R101*%
X168385000Y-72915000D03*
X167365000Y-72915000D03*
%TD*%
D45*
%TO.C,R105*%
X134250000Y-84675000D03*
X132600000Y-84675000D03*
%TD*%
D32*
%TO.C,R202*%
X175915000Y-107885000D03*
X175915000Y-106865000D03*
%TD*%
D38*
%TO.C,F902*%
X174032500Y-189395000D03*
X169757500Y-189395000D03*
%TD*%
D32*
%TO.C,R306*%
X108915000Y-116885000D03*
X108915000Y-115865000D03*
%TD*%
D31*
%TO.C,R435*%
X123885000Y-90915000D03*
X122865000Y-90915000D03*
%TD*%
D33*
%TO.C,TP202*%
X169697500Y-61696200D03*
%TD*%
D37*
%TO.C,D805*%
X151945000Y-187695000D03*
X147945000Y-187695000D03*
%TD*%
D26*
%TO.C,D412*%
X194615000Y-61395000D03*
X193775000Y-61395000D03*
%TD*%
D31*
%TO.C,R206*%
X186885000Y-104915000D03*
X185865000Y-104915000D03*
%TD*%
%TO.C,R851*%
X132385000Y-137415000D03*
X131365000Y-137415000D03*
%TD*%
D36*
%TO.C,C102*%
X151220000Y-69545000D03*
X148270000Y-69545000D03*
%TD*%
D43*
%TO.C,D807*%
X141312500Y-182195000D03*
X141312500Y-184095000D03*
X139437500Y-183145000D03*
%TD*%
D27*
%TO.C,C821*%
X115835000Y-146905000D03*
X114875000Y-146905000D03*
%TD*%
D31*
%TO.C,R805*%
X118385000Y-140415000D03*
X117365000Y-140415000D03*
%TD*%
D27*
%TO.C,C703*%
X192335000Y-182905000D03*
X191375000Y-182905000D03*
%TD*%
D30*
%TO.C,C1002*%
X128905000Y-82835000D03*
X128905000Y-81875000D03*
%TD*%
D39*
%TO.C,J306*%
X105995000Y-160050000D03*
X105995000Y-158800000D03*
X105995000Y-157550000D03*
X105995000Y-156300000D03*
D40*
X102795000Y-161900000D03*
X102795000Y-154450000D03*
%TD*%
D32*
%TO.C,R108*%
X128915000Y-99885000D03*
X128915000Y-98865000D03*
%TD*%
D27*
%TO.C,C831*%
X119835000Y-147405000D03*
X118875000Y-147405000D03*
%TD*%
M02*
