M48
; DRILL file KiCad 10.0.6 date 2026-09-29T03:05:30
; FORMAT={-:-/ absolute / metric / decimal}
; #@! TF.CreationDate,2026-09-29T03:05:30+00:00
; #@! TF.GenerationSoftware,Kicad,Pcbnew,10.0.6
; #@! TF.FileFunction,Plated,1,4,PTH
FMAT,2
METRIC
; #@! TA.AperFunction,Plated,PTH,ComponentDrill
T1C0.200
; #@! TA.AperFunction,Plated,PTH,ViaDrill
T2C0.300
; #@! TA.AperFunction,Plated,PTH,ViaDrill
T3C0.400
; #@! TA.AperFunction,Plated,PTH,ComponentDrill
T4C0.500
; #@! TA.AperFunction,Plated,PTH,ComponentDrill
T5C0.600
; #@! TA.AperFunction,Plated,PTH,ComponentDrill
T6C1.000
; #@! TA.AperFunction,Plated,PTH,ComponentDrill
T7C1.300
; #@! TA.AperFunction,Plated,PTH,ComponentDrill
T8C1.900
; #@! TA.AperFunction,Plated,PTH,ComponentDrill
T9C3.200
%
G90
G05
T1
X156.485Y-69.485
X156.485Y-70.665
X157.665Y-69.485
X157.665Y-70.665
T2
X102.193Y-92.927
X102.5Y-52.5
X102.5Y-56.5
X102.5Y-64.5
X102.5Y-68.5
X102.5Y-72.5
X102.5Y-184.5
X102.5Y-188.5
X102.5Y-192.5
X102.5Y-196.5
X102.65Y-84.65
X102.65Y-156.95
X102.912Y-159.913
X103.339Y-157.992
X103.416Y-89.981
X103.45Y-150.13
X103.65Y-162.95
X103.74Y-160.471
X103.995Y-76.803
X104.538Y-94.471
X104.538Y-100.1
X104.541Y-110.369
X104.644Y-174.134
X104.688Y-125.91
X105.05Y-90.05
X105.28Y-165.356
X105.33Y-192.564
X105.995Y-92.523
X105.995Y-166.008
X105.995Y-186.329
X106.134Y-89.823
X106.35Y-192.246
X106.42Y-84.488
X106.5Y-52.5
X106.5Y-56.5
X106.5Y-60.5
X106.5Y-68.5
X106.5Y-72.5
X106.5Y-188.5
X106.5Y-196.5
X106.981Y-145.038
X107.08Y-158.178
X107.127Y-103.081
X107.15Y-162.55
X107.3Y-119.207
X107.3Y-147.578
X107.301Y-110.252
X107.304Y-94.414
X107.313Y-138.499
X107.321Y-136.05
X107.332Y-149.601
X107.332Y-150.851
X107.332Y-155.32
X107.35Y-90.75
X107.377Y-134.071
X107.45Y-176.45
X107.465Y-165.767
X107.479Y-98.397
X107.479Y-100.299
X107.479Y-102.257
X107.479Y-163.769
X107.507Y-154.568
X107.56Y-96.834
X107.597Y-137.572
X107.602Y-132.663
X107.65Y-141.15
X107.676Y-103.595
X107.758Y-129.478
X107.831Y-123.749
X107.929Y-143.597
X108.015Y-190.162
X108.06Y-81.677
X108.215Y-192.406
X108.286Y-98.388
X108.3Y-99.562
X108.312Y-177.858
X108.357Y-119.924
X108.45Y-90.05
X108.48Y-145.073
X108.581Y-113.628
X108.915Y-154.118
X109.365Y-102.14
X109.37Y-149.8
X109.4Y-93.099
X110.061Y-104.13
X110.085Y-97.179
X110.215Y-142.461
X110.5Y-52.5
X110.5Y-56.5
X110.5Y-68.5
X110.5Y-72.5
X110.5Y-180.5
X110.5Y-184.5
X110.5Y-188.5
X110.5Y-192.5
X110.5Y-196.5
X110.784Y-94.984
X111.114Y-147.707
X111.885Y-147.784
X111.95Y-93.55
X112.676Y-186.379
X112.703Y-97.687
X112.943Y-189.58
X113.195Y-84.971
X113.385Y-139.63
X114.135Y-144.4
X114.143Y-146.841
X114.155Y-75.054
X114.5Y-52.5
X114.5Y-64.5
X114.5Y-68.5
X114.5Y-100.5
X114.5Y-108.5
X114.5Y-112.5
X114.5Y-116.5
X114.5Y-124.5
X114.5Y-128.5
X114.5Y-132.5
X114.5Y-192.5
X114.509Y-148.817
X115.07Y-188.998
X116.154Y-147.694
X116.612Y-84.459
X116.85Y-142.65
X117.77Y-74.169
X117.865Y-93.697
X117.865Y-138.702
X118.042Y-142.795
X118.331Y-118.925
X118.436Y-143.545
X118.5Y-52.5
X118.5Y-60.5
X118.5Y-68.5
X118.5Y-148.5
X118.5Y-152.5
X118.5Y-156.5
X118.5Y-160.5
X118.5Y-168.5
X118.5Y-176.5
X118.5Y-192.5
X118.85Y-145.65
X119.54Y-135.813
X119.7Y-118.364
X119.782Y-139.832
X120.243Y-190.755
X120.515Y-105.085
X120.649Y-139.542
X121.041Y-142.382
X121.264Y-192.377
X121.775Y-74.207
X121.775Y-77.495
X122.077Y-57.313
X122.18Y-196.663
X122.365Y-163.266
X122.5Y-52.5
X122.5Y-80.5
X122.5Y-108.5
X122.5Y-112.5
X122.5Y-116.5
X122.5Y-120.5
X122.5Y-124.5
X122.5Y-128.5
X122.5Y-132.5
X122.5Y-152.5
X122.5Y-156.5
X122.5Y-160.5
X122.5Y-164.5
X122.5Y-172.5
X122.699Y-89.036
X123.532Y-146.048
X123.755Y-147.762
X123.836Y-58.377
X123.885Y-91.693
X123.923Y-184.06
X124.944Y-185.842
X124.95Y-142.45
X124.95Y-149.964
X125.05Y-146.45
X125.605Y-144.343
X125.747Y-142.744
X126.061Y-137.592
X126.197Y-60.603
X126.5Y-64.5
X126.5Y-152.5
X126.5Y-156.5
X126.5Y-168.5
X126.5Y-172.5
X126.5Y-196.5
X126.712Y-194.83
X126.885Y-166.964
X126.97Y-61.561
X127.44Y-104.384
X127.794Y-101.781
X127.898Y-99.294
X128.302Y-161.177
X128.902Y-141.939
X128.915Y-87.631
X128.947Y-145.696
X129.756Y-191.085
X129.848Y-97.37
X130.422Y-100.68
X130.428Y-145.578
X130.5Y-52.5
X130.5Y-64.5
X130.5Y-80.5
X130.5Y-108.5
X130.5Y-112.5
X130.5Y-116.5
X130.5Y-120.5
X130.5Y-124.5
X130.5Y-152.5
X130.5Y-156.5
X130.5Y-160.5
X130.5Y-164.5
X130.5Y-168.5
X130.5Y-172.5
X130.5Y-192.5
X131.365Y-138.207
X131.56Y-189.662
X131.604Y-149.354
X131.916Y-94.941
X133.35Y-141.85
X133.691Y-180.39
X134.1Y-189.649
X134.436Y-140.705
X134.5Y-52.5
X134.5Y-60.5
X134.5Y-68.5
X134.5Y-76.5
X134.5Y-108.5
X134.5Y-112.5
X134.5Y-116.5
X134.5Y-120.5
X134.5Y-132.5
X134.5Y-156.5
X134.5Y-160.5
X134.5Y-164.5
X134.5Y-168.5
X134.5Y-172.5
X134.5Y-176.5
X134.5Y-196.5
X134.724Y-141.57
X134.838Y-181.87
X134.893Y-81.38
X135.192Y-87.117
X135.365Y-155.631
X135.898Y-175.977
X136.251Y-95.371
X136.271Y-122.194
X136.384Y-157.197
X136.419Y-177.32
X136.604Y-179.242
X137.385Y-153.637
X137.385Y-155.696
X137.865Y-180.689
X138.06Y-189.654
X138.124Y-155.066
X138.5Y-52.5
X138.5Y-56.5
X138.5Y-68.5
X138.5Y-84.5
X138.5Y-88.5
X138.5Y-124.5
X138.5Y-128.5
X138.5Y-132.5
X138.5Y-152.5
X138.5Y-156.5
X138.5Y-160.5
X138.5Y-164.5
X138.5Y-168.5
X138.5Y-192.5
X139.33Y-189.773
X139.925Y-180.893
X140.35Y-149.367
X140.724Y-180.862
X141.258Y-73.984
X141.28Y-66.645
X142.041Y-184.958
X142.5Y-52.5
X142.5Y-56.5
X142.5Y-84.5
X142.5Y-96.5
X142.5Y-100.5
X142.5Y-108.5
X142.5Y-112.5
X142.5Y-116.5
X142.5Y-120.5
X142.5Y-128.5
X142.5Y-144.5
X142.5Y-152.5
X142.5Y-156.5
X142.5Y-160.5
X142.5Y-168.5
X142.5Y-172.5
X142.5Y-192.5
X142.5Y-196.5
X143.561Y-175.144
X143.708Y-183.528
X144.651Y-64.475
X145.532Y-69.228
X145.769Y-132.902
X146.5Y-52.5
X146.5Y-76.5
X146.5Y-84.5
X146.5Y-92.5
X146.5Y-96.5
X146.5Y-100.5
X146.5Y-108.5
X146.5Y-112.5
X146.5Y-116.5
X146.5Y-120.5
X146.5Y-124.5
X146.5Y-132.5
X146.5Y-136.5
X146.5Y-180.5
X146.5Y-192.5
X146.502Y-133.777
X147.131Y-72.033
X147.414Y-129.67
X150.385Y-73.766
X150.5Y-52.5
X150.5Y-56.5
X150.5Y-76.5
X150.5Y-80.5
X150.5Y-132.5
X150.5Y-136.5
X150.5Y-144.5
X150.5Y-152.5
X150.5Y-156.5
X150.5Y-160.5
X150.5Y-164.5
X150.5Y-168.5
X150.5Y-172.5
X150.5Y-176.5
X150.5Y-180.5
X150.5Y-184.5
X150.5Y-196.5
X151.218Y-72.272
X151.365Y-185.912
X152.667Y-73.674
X154.118Y-68.447
X154.212Y-70.064
X154.5Y-52.5
X154.5Y-56.5
X154.5Y-76.5
X154.5Y-84.5
X154.5Y-88.5
X154.5Y-92.5
X154.5Y-96.5
X154.5Y-100.5
X154.5Y-108.5
X154.5Y-112.5
X154.5Y-116.5
X154.5Y-124.5
X154.5Y-128.5
X154.5Y-152.5
X154.5Y-156.5
X154.5Y-160.5
X154.5Y-164.5
X154.5Y-168.5
X154.5Y-172.5
X154.5Y-176.5
X154.5Y-180.5
X155.612Y-71.413
X157.825Y-67.724
X158.5Y-52.5
X158.5Y-56.5
X158.5Y-76.5
X158.5Y-84.5
X158.5Y-88.5
X158.5Y-92.5
X158.5Y-96.5
X158.5Y-100.5
X158.5Y-104.5
X158.5Y-112.5
X158.5Y-120.5
X158.5Y-124.5
X158.5Y-136.5
X158.5Y-144.5
X158.5Y-156.5
X158.5Y-160.5
X158.5Y-164.5
X158.5Y-168.5
X158.5Y-172.5
X158.5Y-176.5
X158.5Y-180.5
X158.5Y-192.5
X158.5Y-196.5
X158.802Y-130.483
X159.026Y-131.714
X160.133Y-70.563
X160.338Y-54.202
X160.338Y-59.462
X160.365Y-155.136
X160.998Y-73.249
X161.365Y-108.827
X162.204Y-66.54
X162.5Y-52.5
X162.5Y-56.5
X162.5Y-76.5
X162.5Y-128.5
X162.5Y-132.5
X162.5Y-136.5
X162.5Y-144.5
X162.5Y-148.5
X162.5Y-152.5
X162.5Y-160.5
X162.5Y-164.5
X162.5Y-168.5
X162.5Y-172.5
X162.5Y-176.5
X162.5Y-180.5
X162.5Y-192.5
X162.673Y-72.367
X162.824Y-61.076
X163.004Y-75.345
X163.263Y-128.158
X163.263Y-148.902
X163.92Y-64.433
X164.196Y-128.195
X164.218Y-117.6
X164.49Y-187.513
X164.535Y-57.806
X165.108Y-72.113
X165.238Y-73.037
X165.253Y-78.833
X165.695Y-60.535
X165.865Y-148.189
X166.12Y-126.434
X166.352Y-101.186
X166.396Y-70.507
X166.5Y-52.5
X166.5Y-112.5
X166.5Y-156.5
X166.5Y-160.5
X166.5Y-164.5
X166.5Y-168.5
X166.5Y-172.5
X166.5Y-176.5
X166.5Y-180.5
X166.5Y-184.5
X166.5Y-188.5
X166.5Y-192.5
X166.5Y-196.5
X166.517Y-66.57
X166.529Y-67.467
X167.079Y-111.357
X167.516Y-60.231
X167.689Y-62.581
X167.702Y-79.996
X167.865Y-77.389
X168.216Y-115.175
X168.376Y-187.728
X169.155Y-73.471
X169.245Y-112.348
X169.407Y-98.364
X169.591Y-173.718
X169.706Y-143.66
X169.826Y-59.068
X170.27Y-193.06
X170.375Y-105.664
X170.5Y-52.5
X170.5Y-56.5
X170.5Y-96.5
X170.5Y-124.5
X170.5Y-128.5
X170.5Y-160.5
X170.5Y-164.5
X170.5Y-168.5
X170.5Y-172.5
X170.5Y-176.5
X170.5Y-184.5
X170.513Y-111.932
X170.808Y-109.981
X170.865Y-146.595
X171.033Y-193.237
X171.324Y-62.229
X172.682Y-189.451
X173.559Y-60.948
X173.992Y-191.835
X174.18Y-174.116
X174.5Y-52.5
X174.5Y-80.5
X174.5Y-84.5
X174.5Y-88.5
X174.5Y-92.5
X174.5Y-96.5
X174.5Y-128.5
X174.5Y-132.5
X174.5Y-136.5
X174.5Y-140.5
X174.5Y-144.5
X174.5Y-152.5
X174.5Y-164.5
X174.5Y-168.5
X174.5Y-172.5
X174.5Y-196.5
X174.744Y-192.056
X175.05Y-57.311
X175.472Y-114.152
X176.582Y-191.532
X176.764Y-192.442
X178.332Y-113.619
X178.5Y-52.5
X178.5Y-56.5
X178.5Y-80.5
X178.5Y-84.5
X178.5Y-88.5
X178.5Y-92.5
X178.5Y-96.5
X178.5Y-100.5
X178.5Y-128.5
X178.5Y-140.5
X178.5Y-144.5
X178.5Y-148.5
X178.5Y-156.5
X178.5Y-168.5
X178.5Y-172.5
X178.5Y-184.5
X178.5Y-188.5
X178.5Y-196.5
X178.85Y-191.744
X178.878Y-114.143
X179.195Y-101.549
X180.273Y-101.153
X180.298Y-139.971
X180.359Y-188.702
X180.522Y-173.437
X180.531Y-141.209
X180.96Y-189.396
X181.752Y-190.135
X182.415Y-101.628
X182.5Y-52.5
X182.5Y-56.5
X182.5Y-68.5
X182.5Y-84.5
X182.5Y-92.5
X182.5Y-96.5
X182.5Y-100.5
X182.5Y-108.5
X182.5Y-112.5
X182.5Y-116.5
X182.5Y-120.5
X182.5Y-128.5
X182.5Y-132.5
X182.5Y-136.5
X182.5Y-140.5
X182.5Y-144.5
X182.5Y-148.5
X182.5Y-152.5
X182.5Y-160.5
X182.5Y-168.5
X182.5Y-172.5
X182.5Y-176.5
X182.5Y-180.5
X182.5Y-184.5
X182.865Y-118.568
X182.925Y-195.372
X184.204Y-101.537
X184.234Y-108.427
X184.966Y-139.725
X184.985Y-108.37
X185.771Y-139.75
X185.835Y-102.1
X185.865Y-191.603
X186.5Y-52.5
X186.5Y-56.5
X186.5Y-100.5
X186.5Y-112.5
X186.5Y-116.5
X186.5Y-120.5
X186.5Y-128.5
X186.5Y-132.5
X186.5Y-136.5
X186.5Y-144.5
X186.5Y-148.5
X186.5Y-152.5
X186.5Y-156.5
X186.5Y-168.5
X186.5Y-176.5
X186.5Y-180.5
X186.5Y-184.5
X186.5Y-192.5
X186.885Y-101.455
X186.943Y-195.917
X187.999Y-104.954
X188.55Y-192.696
X189.198Y-186.902
X189.365Y-60.296
X189.425Y-196.043
X189.787Y-142.646
X190.5Y-52.5
X190.5Y-56.5
X190.5Y-64.5
X190.5Y-72.5
X190.5Y-76.5
X190.5Y-80.5
X190.5Y-96.5
X190.5Y-108.5
X190.5Y-112.5
X190.5Y-116.5
X190.5Y-124.5
X190.5Y-128.5
X190.5Y-132.5
X190.5Y-140.5
X190.5Y-148.5
X190.5Y-152.5
X190.5Y-156.5
X190.5Y-160.5
X190.5Y-184.5
X190.5Y-192.5
X190.724Y-181.439
X190.865Y-187.116
X190.994Y-178.77
X191.18Y-137.889
X191.223Y-183.902
X191.375Y-179.936
X191.585Y-167.115
X191.775Y-178.505
X191.989Y-71.57
X192.212Y-143.576
X192.273Y-169.381
X192.691Y-76.8
X192.762Y-163.196
X192.8Y-192.65
X192.838Y-73.594
X192.853Y-58.225
X192.891Y-74.935
X192.913Y-72.432
X192.942Y-63.231
X193.385Y-178.689
X193.479Y-173.904
X193.812Y-136.544
X193.925Y-168.017
X194.005Y-78.813
X194.005Y-173.328
X194.437Y-191.557
X194.498Y-143.575
X194.5Y-52.5
X194.5Y-64.5
X194.5Y-68.5
X194.5Y-80.5
X194.5Y-84.5
X194.5Y-144.5
X194.5Y-188.5
X194.5Y-196.5
X194.588Y-136.21
X194.925Y-179.931
X195.109Y-60.687
X195.249Y-59.499
X195.444Y-189.117
X195.516Y-181.992
X195.556Y-180.539
X196.022Y-189.751
X196.237Y-137.909
X197.133Y-186.872
X197.493Y-181.437
X197.891Y-186.537
T3
X116.849Y-189.24
X118.545Y-141.375
X119.462Y-63.275
X121.25Y-188.65
X121.25Y-191.15
X122.406Y-186.847
X122.59Y-65.652
X123.915Y-141.477
X124.55Y-139.75
X126.721Y-148.091
X127.55Y-64.85
X127.878Y-139.033
X129.705Y-180.711
X130.003Y-184.197
X132.829Y-181.592
X134.53Y-185.693
X135.3Y-92.733
X135.343Y-73.435
X135.987Y-174.985
X137.288Y-69.852
X139.35Y-86.85
X140.124Y-73.842
X141.341Y-185.556
X141.964Y-183.17
X141.993Y-187.645
X144.824Y-62.397
X146.544Y-68.392
X147.45Y-75.75
X147.85Y-59.25
X148.72Y-128.865
X149.898Y-69.878
X150.95Y-151.35
X151.448Y-66.636
X153.354Y-130.89
X153.927Y-194.237
X159.682Y-189.745
X162.25Y-133.75
X162.95Y-57.95
X163.75Y-114.45
X164.35Y-67.55
X165.175Y-120.382
X165.885Y-114.405
X166.818Y-127.966
X168.285Y-100.569
X168.65Y-56.25
X168.862Y-118.897
X169.33Y-191.935
X169.65Y-133.75
X170.494Y-68.805
X170.496Y-120.095
X172.792Y-113.922
X173.15Y-59.15
X174.032Y-186.974
X181.45Y-101.15
X183.442Y-111.084
X183.892Y-65.85
X189.45Y-153.85
X190.875Y-91.868
X191.25Y-98.35
X194.005Y-152.568
X194.864Y-156.911
X195.364Y-161.359
T4
X122.6Y-70.0
X122.6Y-180.0
X123.303Y-68.303
X123.303Y-71.697
X123.303Y-178.303
X123.303Y-181.697
X125.0Y-67.6
X125.0Y-72.4
X125.0Y-177.6
X125.0Y-182.4
X126.697Y-68.303
X126.697Y-71.697
X126.697Y-178.303
X126.697Y-181.697
X127.4Y-70.0
X127.4Y-180.0
X172.6Y-70.0
X172.6Y-180.0
X173.303Y-68.303
X173.303Y-71.697
X173.303Y-178.303
X173.303Y-181.697
X175.0Y-67.6
X175.0Y-72.4
X175.0Y-177.6
X175.0Y-182.4
X176.697Y-68.303
X176.697Y-71.697
X176.697Y-178.303
X176.697Y-181.697
X177.4Y-70.0
X177.4Y-180.0
T6
X102.595Y-60.495
X102.715Y-83.215
X102.715Y-87.715
X102.725Y-76.225
X102.725Y-78.765
X105.255Y-83.215
X105.255Y-87.715
X105.265Y-76.225
X105.265Y-78.765
X107.795Y-83.215
X107.795Y-87.715
X107.805Y-76.225
X107.805Y-78.765
X110.335Y-83.215
X110.335Y-87.715
X110.345Y-76.225
X110.345Y-78.765
X112.875Y-83.215
X112.875Y-87.715
X112.885Y-76.225
X112.885Y-78.765
X113.595Y-60.495
X115.415Y-83.215
X115.415Y-87.715
X115.425Y-76.225
X115.425Y-78.765
X115.795Y-193.605
X115.795Y-196.105
X117.955Y-83.215
X117.955Y-87.715
X117.965Y-76.225
X117.965Y-78.765
X120.495Y-83.215
X120.495Y-87.715
X120.505Y-76.225
X120.505Y-78.765
X123.035Y-83.215
X123.035Y-87.715
X123.045Y-76.225
X123.045Y-78.765
X123.795Y-193.605
X123.795Y-196.105
X125.575Y-83.215
X125.575Y-87.715
X125.585Y-76.225
X125.585Y-78.765
X128.125Y-76.225
X128.125Y-78.765
X130.665Y-76.225
X130.665Y-78.765
X131.095Y-60.495
X131.795Y-193.605
X131.795Y-196.105
X133.205Y-76.225
X133.205Y-78.765
X139.795Y-193.605
X139.795Y-196.105
X142.095Y-60.495
X146.595Y-54.545
X147.397Y-178.696
X147.795Y-193.605
X147.795Y-196.105
X154.998Y-178.696
X155.795Y-193.605
X155.795Y-196.105
X157.595Y-54.545
X163.795Y-193.605
X163.795Y-196.105
T7
X117.025Y-107.525
X117.025Y-115.145
X117.025Y-122.765
X141.525Y-80.025
X141.525Y-87.645
X141.525Y-95.265
X157.665Y-107.525
X157.665Y-115.145
X157.665Y-122.765
X182.165Y-80.025
X182.165Y-87.645
X182.165Y-95.265
T8
X105.595Y-65.495
X110.595Y-65.495
X134.095Y-65.495
X139.095Y-65.495
X149.595Y-64.545
X154.595Y-64.545
T9
X125.0Y-70.0
X125.0Y-180.0
X175.0Y-70.0
X175.0Y-180.0
T5
X101.945Y-191.22G85X101.945Y-192.32
G05
X101.945Y-195.55G85X101.945Y-196.35
G05
X110.585Y-191.22G85X110.585Y-192.32
G05
X110.585Y-195.55G85X110.585Y-196.35
G05
M30
