%TF.GenerationSoftware,KiCad,Pcbnew,10.0.6*%
%TF.CreationDate,2026-09-27T18:23:31+00:00*%
%TF.ProjectId,AGD6.07.010,41474436-2e30-4372-9e30-31302e6b6963,rev?*%
%TF.SameCoordinates,Original*%
%TF.FileFunction,Paste,Top*%
%TF.FilePolarity,Positive*%
%FSLAX46Y46*%
G04 Gerber Fmt 4.6, Leading zero omitted, Abs format (unit mm)*
G04 Created by KiCad (PCBNEW 10.0.6) date 2026-09-27 18:23:31*
%MOMM*%
%LPD*%
G01*
G04 APERTURE LIST*
G04 Aperture macros list*
%AMRoundRect*
0 Rectangle with rounded corners*
0 $1 Rounding radius*
0 $2 $3 $4 $5 $6 $7 $8 $9 X,Y pos of 4 corners*
0 Add a 4 corners polygon primitive as box body*
4,1,4,$2,$3,$4,$5,$6,$7,$8,$9,$2,$3,0*
0 Add four circle primitives for the rounded corners*
1,1,$1+$1,$2,$3*
1,1,$1+$1,$4,$5*
1,1,$1+$1,$6,$7*
1,1,$1+$1,$8,$9*
0 Add four rect primitives between the rounded corners*
20,1,$1+$1,$2,$3,$4,$5,0*
20,1,$1+$1,$4,$5,$6,$7,0*
20,1,$1+$1,$6,$7,$8,$9,0*
20,1,$1+$1,$8,$9,$2,$3,0*%
G04 Aperture macros list end*
%ADD10RoundRect,0.150000X0.700000X-0.150000X0.700000X0.150000X-0.700000X0.150000X-0.700000X-0.150000X0*%
%ADD11RoundRect,0.250000X1.100000X-0.250000X1.100000X0.250000X-1.100000X0.250000X-1.100000X-0.250000X0*%
%ADD12RoundRect,0.250000X-1.950000X-1.000000X1.950000X-1.000000X1.950000X1.000000X-1.950000X1.000000X0*%
%ADD13RoundRect,0.150000X-0.587500X-0.150000X0.587500X-0.150000X0.587500X0.150000X-0.587500X0.150000X0*%
%ADD14RoundRect,0.150000X-0.512500X-0.150000X0.512500X-0.150000X0.512500X0.150000X-0.512500X0.150000X0*%
%ADD15RoundRect,0.075000X-0.200000X0.075000X-0.200000X-0.075000X0.200000X-0.075000X0.200000X0.075000X0*%
%ADD16RoundRect,0.075000X0.075000X-0.650000X0.075000X0.650000X-0.075000X0.650000X-0.075000X-0.650000X0*%
%ADD17RoundRect,0.135000X0.185000X-0.135000X0.185000X0.135000X-0.185000X0.135000X-0.185000X-0.135000X0*%
%ADD18R,1.310000X0.650000*%
%ADD19R,1.310000X0.600000*%
%ADD20R,0.795000X0.900000*%
%ADD21RoundRect,0.120000X0.180000X-0.430000X0.180000X0.430000X-0.180000X0.430000X-0.180000X-0.430000X0*%
%ADD22RoundRect,0.062500X0.117500X0.062500X-0.117500X0.062500X-0.117500X-0.062500X0.117500X-0.062500X0*%
%ADD23RoundRect,0.160000X0.160000X-0.245000X0.160000X0.245000X-0.160000X0.245000X-0.160000X-0.245000X0*%
%ADD24RoundRect,0.093750X0.106250X-0.093750X0.106250X0.093750X-0.106250X0.093750X-0.106250X-0.093750X0*%
%ADD25RoundRect,0.140000X-0.140000X-0.170000X0.140000X-0.170000X0.140000X0.170000X-0.140000X0.170000X0*%
%ADD26RoundRect,0.150000X0.150000X0.700000X-0.150000X0.700000X-0.150000X-0.700000X0.150000X-0.700000X0*%
%ADD27RoundRect,0.250000X0.250000X1.100000X-0.250000X1.100000X-0.250000X-1.100000X0.250000X-1.100000X0*%
%ADD28RoundRect,0.135000X-0.135000X-0.185000X0.135000X-0.185000X0.135000X0.185000X-0.135000X0.185000X0*%
%ADD29RoundRect,0.150000X-0.700000X0.150000X-0.700000X-0.150000X0.700000X-0.150000X0.700000X0.150000X0*%
%ADD30RoundRect,0.250000X-1.100000X0.250000X-1.100000X-0.250000X1.100000X-0.250000X1.100000X0.250000X0*%
%ADD31RoundRect,0.150000X-0.150000X-0.700000X0.150000X-0.700000X0.150000X0.700000X-0.150000X0.700000X0*%
%ADD32RoundRect,0.250000X-0.250000X-1.100000X0.250000X-1.100000X0.250000X1.100000X-0.250000X1.100000X0*%
%ADD33R,3.100000X5.000000*%
%ADD34RoundRect,0.250000X-0.750000X-0.650000X0.750000X-0.650000X0.750000X0.650000X-0.750000X0.650000X0*%
%ADD35RoundRect,0.250000X-2.025000X-2.375000X2.025000X-2.375000X2.025000X2.375000X-2.025000X2.375000X0*%
%ADD36RoundRect,0.250000X-2.050000X-0.300000X2.050000X-0.300000X2.050000X0.300000X-2.050000X0.300000X0*%
%ADD37R,1.960000X3.150000*%
%ADD38RoundRect,0.250000X1.450000X-0.312500X1.450000X0.312500X-1.450000X0.312500X-1.450000X-0.312500X0*%
%ADD39RoundRect,0.087500X-0.662500X-0.087500X0.662500X-0.087500X0.662500X0.087500X-0.662500X0.087500X0*%
%ADD40RoundRect,0.150000X0.150000X-0.587500X0.150000X0.587500X-0.150000X0.587500X-0.150000X-0.587500X0*%
%ADD41RoundRect,0.150000X0.150000X-0.512500X0.150000X0.512500X-0.150000X0.512500X-0.150000X-0.512500X0*%
%ADD42RoundRect,0.250000X0.475000X-0.250000X0.475000X0.250000X-0.475000X0.250000X-0.475000X-0.250000X0*%
%ADD43RoundRect,0.182500X-0.182500X-0.182500X0.182500X-0.182500X0.182500X0.182500X-0.182500X0.182500X0*%
%ADD44RoundRect,0.062500X-0.350000X-0.062500X0.350000X-0.062500X0.350000X0.062500X-0.350000X0.062500X0*%
%ADD45RoundRect,0.062500X-0.062500X-0.350000X0.062500X-0.350000X0.062500X0.350000X-0.062500X0.350000X0*%
%ADD46RoundRect,0.250000X-0.362500X-1.425000X0.362500X-1.425000X0.362500X1.425000X-0.362500X1.425000X0*%
%ADD47RoundRect,0.150000X-0.150000X-0.425000X0.150000X-0.425000X0.150000X0.425000X-0.150000X0.425000X0*%
%ADD48RoundRect,0.075000X-0.075000X-0.500000X0.075000X-0.500000X0.075000X0.500000X-0.075000X0.500000X0*%
%ADD49O,1.000000X2.100000*%
%ADD50O,1.000000X1.800000*%
%ADD51RoundRect,0.075000X-0.650000X-0.075000X0.650000X-0.075000X0.650000X0.075000X-0.650000X0.075000X0*%
%ADD52RoundRect,0.250000X-0.325000X-1.100000X0.325000X-1.100000X0.325000X1.100000X-0.325000X1.100000X0*%
%ADD53RoundRect,0.075000X-0.075000X-0.200000X0.075000X-0.200000X0.075000X0.200000X-0.075000X0.200000X0*%
%ADD54RoundRect,0.087500X0.087500X-0.662500X0.087500X0.662500X-0.087500X0.662500X-0.087500X-0.662500X0*%
%ADD55R,0.640000X0.640000*%
%ADD56RoundRect,0.070000X-0.355000X-0.070000X0.355000X-0.070000X0.355000X0.070000X-0.355000X0.070000X0*%
%ADD57R,0.280000X0.700000*%
%ADD58RoundRect,0.140000X0.170000X-0.140000X0.170000X0.140000X-0.170000X0.140000X-0.170000X-0.140000X0*%
%ADD59R,0.500000X0.300000*%
G04 APERTURE END LIST*
D10*
%TO.C,J401*%
X180795000Y-68050000D03*
X180795000Y-66800000D03*
X180795000Y-65550000D03*
X180795000Y-64300000D03*
D11*
X183995000Y-69900000D03*
X183995000Y-62450000D03*
%TD*%
D12*
%TO.C,C205*%
X166895000Y-93945000D03*
X175295000Y-93945000D03*
%TD*%
D13*
%TO.C,Q803*%
X167937500Y-162695000D03*
X167937500Y-164595000D03*
X169812500Y-163645000D03*
%TD*%
D14*
%TO.C,U202*%
X173357500Y-115695000D03*
X173357500Y-116645000D03*
X173357500Y-117595000D03*
X175632500Y-117595000D03*
X175632500Y-115695000D03*
%TD*%
D15*
%TO.C,U501*%
X113970000Y-54945000D03*
X113970000Y-55445000D03*
X113970000Y-55945000D03*
X113970000Y-56445000D03*
X113970000Y-56945000D03*
X114740000Y-56945000D03*
X114740000Y-56445000D03*
X114740000Y-55945000D03*
X114740000Y-55445000D03*
X114740000Y-54945000D03*
%TD*%
D16*
%TO.C,U804*%
X168195000Y-159725000D03*
X168695000Y-159725000D03*
X169195000Y-159725000D03*
X169695000Y-159725000D03*
X170195000Y-159725000D03*
X170195000Y-155425000D03*
X169695000Y-155425000D03*
X169195000Y-155425000D03*
X168695000Y-155425000D03*
X168195000Y-155425000D03*
%TD*%
D17*
%TO.C,R107*%
X177415000Y-129385000D03*
X177415000Y-128365000D03*
%TD*%
D18*
%TO.C,U801*%
X127850000Y-163790000D03*
X127850000Y-165060000D03*
X127850000Y-166330000D03*
D19*
X127850000Y-167600000D03*
D18*
X133540000Y-167600000D03*
X133540000Y-166330000D03*
X133540000Y-165060000D03*
X133540000Y-163790000D03*
D20*
X130032500Y-164945000D03*
X130032500Y-166445000D03*
X131357500Y-164945000D03*
X131357500Y-166445000D03*
%TD*%
D21*
%TO.C,L411*%
X187495000Y-102445000D03*
X187495000Y-99745000D03*
X188495000Y-99745000D03*
X188495000Y-102445000D03*
%TD*%
D22*
%TO.C,D432*%
X187275000Y-105395000D03*
X188115000Y-105395000D03*
%TD*%
D17*
%TO.C,R302*%
X123415000Y-157385000D03*
X123415000Y-156365000D03*
%TD*%
D23*
%TO.C,U702*%
X164795000Y-156275000D03*
X165595000Y-156275000D03*
D24*
X164545000Y-157162500D03*
X165195000Y-157162500D03*
X165845000Y-157162500D03*
X165845000Y-155387500D03*
X165195000Y-155387500D03*
X164545000Y-155387500D03*
%TD*%
D25*
%TO.C,C704*%
X175375000Y-167905000D03*
X176335000Y-167905000D03*
%TD*%
D26*
%TO.C,J502*%
X108795000Y-55995000D03*
X107545000Y-55995000D03*
X106295000Y-55995000D03*
X105045000Y-55995000D03*
X103795000Y-55995000D03*
D27*
X110645000Y-52795000D03*
X101945000Y-52795000D03*
%TD*%
D10*
%TO.C,J406*%
X180795000Y-120550000D03*
X180795000Y-119300000D03*
X180795000Y-118050000D03*
X180795000Y-116800000D03*
D11*
X183995000Y-122400000D03*
X183995000Y-114950000D03*
%TD*%
D28*
%TO.C,R701*%
X160365000Y-163415000D03*
X161385000Y-163415000D03*
%TD*%
D29*
%TO.C,J1001*%
X105995000Y-154300000D03*
X105995000Y-155550000D03*
X105995000Y-156800000D03*
X105995000Y-158050000D03*
D30*
X102795000Y-152450000D03*
X102795000Y-159900000D03*
%TD*%
D31*
%TO.C,J601*%
X114300000Y-160295000D03*
X115550000Y-160295000D03*
X116800000Y-160295000D03*
X118050000Y-160295000D03*
X119300000Y-160295000D03*
X120550000Y-160295000D03*
X121800000Y-160295000D03*
X123050000Y-160295000D03*
D32*
X112450000Y-163495000D03*
X124900000Y-163495000D03*
%TD*%
D17*
%TO.C,R203*%
X143415000Y-148885000D03*
X143415000Y-147865000D03*
%TD*%
D33*
%TO.C,L201*%
X149245000Y-125945000D03*
X160345000Y-125945000D03*
%TD*%
D25*
%TO.C,C201*%
X119375000Y-152405000D03*
X120335000Y-152405000D03*
%TD*%
D22*
%TO.C,D303*%
X121775000Y-154395000D03*
X122615000Y-154395000D03*
%TD*%
D28*
%TO.C,R813*%
X151865000Y-160415000D03*
X152885000Y-160415000D03*
%TD*%
D10*
%TO.C,J408*%
X180795000Y-141550000D03*
X180795000Y-140300000D03*
X180795000Y-139050000D03*
X180795000Y-137800000D03*
D11*
X183995000Y-143400000D03*
X183995000Y-135950000D03*
%TD*%
D34*
%TO.C,L202*%
X165695000Y-115295000D03*
X170195000Y-115295000D03*
%TD*%
D22*
%TO.C,D422*%
X187275000Y-95895000D03*
X188115000Y-95895000D03*
%TD*%
D35*
%TO.C,Q201*%
X138720000Y-122320000D03*
X138720000Y-127870000D03*
X143570000Y-122320000D03*
X143570000Y-127870000D03*
D36*
X131995000Y-122555000D03*
X131995000Y-127635000D03*
%TD*%
D37*
%TO.C,F202*%
X164680000Y-126275000D03*
X169590000Y-126275000D03*
%TD*%
D38*
%TO.C,F901*%
X109395000Y-142032500D03*
X109395000Y-137757500D03*
%TD*%
D39*
%TO.C,U203*%
X113945000Y-147195000D03*
X113945000Y-147695000D03*
X113945000Y-148195000D03*
X113945000Y-148695000D03*
X113945000Y-149195000D03*
X118145000Y-149195000D03*
X118145000Y-148695000D03*
X118145000Y-148195000D03*
X118145000Y-147695000D03*
X118145000Y-147195000D03*
%TD*%
D28*
%TO.C,R206*%
X122365000Y-152415000D03*
X123385000Y-152415000D03*
%TD*%
D22*
%TO.C,D412*%
X187275000Y-86395000D03*
X188115000Y-86395000D03*
%TD*%
D10*
%TO.C,J402*%
X180795000Y-78550000D03*
X180795000Y-77300000D03*
X180795000Y-76050000D03*
X180795000Y-74800000D03*
D11*
X183995000Y-80400000D03*
X183995000Y-72950000D03*
%TD*%
D12*
%TO.C,C103*%
X166895000Y-69945000D03*
X175295000Y-69945000D03*
%TD*%
D40*
%TO.C,Q802*%
X156195000Y-162812500D03*
X158095000Y-162812500D03*
X157145000Y-160937500D03*
%TD*%
D10*
%TO.C,J303*%
X129295000Y-156550000D03*
X129295000Y-155300000D03*
X129295000Y-154050000D03*
X129295000Y-152800000D03*
X129295000Y-151550000D03*
X129295000Y-150300000D03*
D11*
X132495000Y-158400000D03*
X132495000Y-148450000D03*
%TD*%
D31*
%TO.C,J806*%
X148795000Y-163295000D03*
X150045000Y-163295000D03*
X151295000Y-163295000D03*
D32*
X146945000Y-166495000D03*
X153145000Y-166495000D03*
%TD*%
D13*
%TO.C,Q801*%
X157437500Y-165695000D03*
X157437500Y-167595000D03*
X159312500Y-166645000D03*
%TD*%
D28*
%TO.C,R805*%
X169365000Y-152915000D03*
X170385000Y-152915000D03*
%TD*%
D12*
%TO.C,C104*%
X166895000Y-81945000D03*
X175295000Y-81945000D03*
%TD*%
D10*
%TO.C,J403*%
X180795000Y-89050000D03*
X180795000Y-87800000D03*
X180795000Y-86550000D03*
X180795000Y-85300000D03*
D11*
X183995000Y-90900000D03*
X183995000Y-83450000D03*
%TD*%
D28*
%TO.C,R504*%
X129865000Y-62915000D03*
X130885000Y-62915000D03*
%TD*%
%TO.C,R822*%
X135865000Y-177915000D03*
X136885000Y-177915000D03*
%TD*%
D17*
%TO.C,R604*%
X144415000Y-165385000D03*
X144415000Y-164365000D03*
%TD*%
D10*
%TO.C,J407*%
X180795000Y-131050000D03*
X180795000Y-129800000D03*
X180795000Y-128550000D03*
X180795000Y-127300000D03*
D11*
X183995000Y-132900000D03*
X183995000Y-125450000D03*
%TD*%
D41*
%TO.C,U603*%
X113695000Y-177632500D03*
X114645000Y-177632500D03*
X115595000Y-177632500D03*
X115595000Y-175357500D03*
X114645000Y-175357500D03*
X113695000Y-175357500D03*
%TD*%
D42*
%TO.C,C502*%
X133425000Y-61095000D03*
X133425000Y-59195000D03*
%TD*%
D10*
%TO.C,J405*%
X180795000Y-110050000D03*
X180795000Y-108800000D03*
X180795000Y-107550000D03*
X180795000Y-106300000D03*
D11*
X183995000Y-111900000D03*
X183995000Y-104450000D03*
%TD*%
D43*
%TO.C,U201*%
X173655000Y-121155000D03*
X173655000Y-121995000D03*
X174495000Y-121155000D03*
X174495000Y-121995000D03*
D44*
X172612500Y-120825000D03*
X172612500Y-121325000D03*
X172612500Y-121825000D03*
X172612500Y-122325000D03*
D45*
X173325000Y-123037500D03*
X173825000Y-123037500D03*
X174325000Y-123037500D03*
X174825000Y-123037500D03*
D44*
X175537500Y-122325000D03*
X175537500Y-121825000D03*
X175537500Y-121325000D03*
X175537500Y-120825000D03*
D45*
X174825000Y-120112500D03*
X174325000Y-120112500D03*
X173825000Y-120112500D03*
X173325000Y-120112500D03*
%TD*%
D46*
%TO.C,RS201*%
X112312500Y-133875000D03*
X118237500Y-133875000D03*
%TD*%
D26*
%TO.C,J504*%
X139050000Y-55995000D03*
X137800000Y-55995000D03*
D27*
X140900000Y-52795000D03*
X135950000Y-52795000D03*
%TD*%
D17*
%TO.C,R106*%
X177415000Y-126385000D03*
X177415000Y-125365000D03*
%TD*%
D42*
%TO.C,C1001*%
X108925000Y-89595000D03*
X108925000Y-87695000D03*
%TD*%
D28*
%TO.C,R505*%
X126865000Y-62915000D03*
X127885000Y-62915000D03*
%TD*%
D17*
%TO.C,R606*%
X164915000Y-170385000D03*
X164915000Y-169365000D03*
%TD*%
D10*
%TO.C,J307*%
X136795000Y-159050000D03*
X136795000Y-157800000D03*
X136795000Y-156550000D03*
X136795000Y-155300000D03*
X136795000Y-154050000D03*
X136795000Y-152800000D03*
X136795000Y-151550000D03*
X136795000Y-150300000D03*
D11*
X139995000Y-160900000D03*
X139995000Y-148450000D03*
%TD*%
D35*
%TO.C,Q101*%
X120720000Y-122320000D03*
X120720000Y-127870000D03*
X125570000Y-122320000D03*
X125570000Y-127870000D03*
D36*
X113995000Y-122555000D03*
X113995000Y-127635000D03*
%TD*%
D12*
%TO.C,C214*%
X166895000Y-105945000D03*
X175295000Y-105945000D03*
%TD*%
D47*
%TO.C,J603*%
X103065000Y-170525000D03*
X103865000Y-170525000D03*
D48*
X105015000Y-170525000D03*
X106015000Y-170525000D03*
X106515000Y-170525000D03*
X107515000Y-170525000D03*
D47*
X108665000Y-170525000D03*
X109465000Y-170525000D03*
X109465000Y-170525000D03*
X108665000Y-170525000D03*
D48*
X108015000Y-170525000D03*
X107015000Y-170525000D03*
X105515000Y-170525000D03*
X104515000Y-170525000D03*
D47*
X103865000Y-170525000D03*
X103065000Y-170525000D03*
D49*
X101945000Y-171100000D03*
D50*
X101945000Y-175280000D03*
D49*
X110585000Y-171100000D03*
D50*
X110585000Y-175280000D03*
%TD*%
D10*
%TO.C,J306*%
X173295000Y-161550000D03*
X173295000Y-160300000D03*
X173295000Y-159050000D03*
X173295000Y-157800000D03*
D11*
X176495000Y-163400000D03*
X176495000Y-155950000D03*
%TD*%
D51*
%TO.C,U204*%
X149425000Y-149695000D03*
X149425000Y-150195000D03*
X149425000Y-150695000D03*
X149425000Y-151195000D03*
X149425000Y-151695000D03*
X153725000Y-151695000D03*
X153725000Y-151195000D03*
X153725000Y-150695000D03*
X153725000Y-150195000D03*
X153725000Y-149695000D03*
%TD*%
D25*
%TO.C,C701*%
X176875000Y-165905000D03*
X177835000Y-165905000D03*
%TD*%
D10*
%TO.C,J409*%
X180795000Y-152050000D03*
X180795000Y-150800000D03*
X180795000Y-149550000D03*
X180795000Y-148300000D03*
D11*
X183995000Y-153900000D03*
X183995000Y-146450000D03*
%TD*%
D17*
%TO.C,R841*%
X143415000Y-151885000D03*
X143415000Y-150865000D03*
%TD*%
D28*
%TO.C,R833*%
X157365000Y-156915000D03*
X158385000Y-156915000D03*
%TD*%
D37*
%TO.C,F101*%
X164680000Y-121275000D03*
X169590000Y-121275000D03*
%TD*%
D22*
%TO.C,D301*%
X125275000Y-155895000D03*
X126115000Y-155895000D03*
%TD*%
D31*
%TO.C,J604*%
X111300000Y-152795000D03*
X112550000Y-152795000D03*
X113800000Y-152795000D03*
X115050000Y-152795000D03*
D32*
X109450000Y-155995000D03*
X116900000Y-155995000D03*
%TD*%
D28*
%TO.C,R811*%
X109865000Y-144915000D03*
X110885000Y-144915000D03*
%TD*%
%TO.C,R435*%
X145365000Y-149415000D03*
X146385000Y-149415000D03*
%TD*%
D52*
%TO.C,C902*%
X108270000Y-148045000D03*
X111220000Y-148045000D03*
%TD*%
D28*
%TO.C,R303*%
X127365000Y-160915000D03*
X128385000Y-160915000D03*
%TD*%
D53*
%TO.C,U502*%
X128945000Y-59740000D03*
X129445000Y-59740000D03*
X129945000Y-59740000D03*
X130445000Y-59740000D03*
X130945000Y-59740000D03*
X130945000Y-58970000D03*
X130445000Y-58970000D03*
X129945000Y-58970000D03*
X129445000Y-58970000D03*
X128945000Y-58970000D03*
%TD*%
D54*
%TO.C,U101*%
X173195000Y-130145000D03*
X173695000Y-130145000D03*
X174195000Y-130145000D03*
X174695000Y-130145000D03*
X175195000Y-130145000D03*
X175195000Y-125945000D03*
X174695000Y-125945000D03*
X174195000Y-125945000D03*
X173695000Y-125945000D03*
X173195000Y-125945000D03*
%TD*%
D17*
%TO.C,R503*%
X109915000Y-85385000D03*
X109915000Y-84365000D03*
%TD*%
D46*
%TO.C,RS101*%
X164312500Y-131375000D03*
X170237500Y-131375000D03*
%TD*%
D18*
%TO.C,U803*%
X143850000Y-156290000D03*
X143850000Y-157560000D03*
X143850000Y-158830000D03*
D19*
X143850000Y-160100000D03*
D18*
X149540000Y-160100000D03*
X149540000Y-158830000D03*
X149540000Y-157560000D03*
X149540000Y-156290000D03*
D20*
X146032500Y-157445000D03*
X146032500Y-158945000D03*
X147357500Y-157445000D03*
X147357500Y-158945000D03*
%TD*%
D18*
%TO.C,U802*%
X136350000Y-163790000D03*
X136350000Y-165060000D03*
X136350000Y-166330000D03*
D19*
X136350000Y-167600000D03*
D18*
X142040000Y-167600000D03*
X142040000Y-166330000D03*
X142040000Y-165060000D03*
X142040000Y-163790000D03*
D20*
X138532500Y-164945000D03*
X138532500Y-166445000D03*
X139857500Y-164945000D03*
X139857500Y-166445000D03*
%TD*%
D10*
%TO.C,J301*%
X121795000Y-148050000D03*
X121795000Y-146800000D03*
X121795000Y-145550000D03*
X121795000Y-144300000D03*
D11*
X124995000Y-149900000D03*
X124995000Y-142450000D03*
%TD*%
D17*
%TO.C,R901*%
X109915000Y-133885000D03*
X109915000Y-132865000D03*
%TD*%
D55*
%TO.C,U701*%
X170682500Y-175795000D03*
X170682500Y-176595000D03*
X170682500Y-177395000D03*
X171507500Y-175795000D03*
X171507500Y-176595000D03*
X171507500Y-177395000D03*
D56*
X169620000Y-175595000D03*
X169620000Y-176095000D03*
X169620000Y-176595000D03*
X169620000Y-177095000D03*
X169620000Y-177595000D03*
X172570000Y-177595000D03*
X172570000Y-177095000D03*
X172570000Y-176595000D03*
X172570000Y-176095000D03*
X172570000Y-175595000D03*
D57*
X170845000Y-175045000D03*
X170845000Y-178145000D03*
X171345000Y-175045000D03*
X171345000Y-178145000D03*
%TD*%
D10*
%TO.C,J410*%
X180795000Y-162550000D03*
X180795000Y-161300000D03*
X180795000Y-160050000D03*
X180795000Y-158800000D03*
D11*
X183995000Y-164400000D03*
X183995000Y-156950000D03*
%TD*%
D26*
%TO.C,J503*%
X131050000Y-55995000D03*
X129800000Y-55995000D03*
X128550000Y-55995000D03*
X127300000Y-55995000D03*
D27*
X132900000Y-52795000D03*
X125450000Y-52795000D03*
%TD*%
D22*
%TO.C,D302*%
X119275000Y-154395000D03*
X120115000Y-154395000D03*
%TD*%
D58*
%TO.C,C202*%
X177905000Y-122835000D03*
X177905000Y-121875000D03*
%TD*%
D28*
%TO.C,R703*%
X161365000Y-159915000D03*
X162385000Y-159915000D03*
%TD*%
D10*
%TO.C,J404*%
X180795000Y-99550000D03*
X180795000Y-98300000D03*
X180795000Y-97050000D03*
X180795000Y-95800000D03*
D11*
X183995000Y-101400000D03*
X183995000Y-93950000D03*
%TD*%
D53*
%TO.C,U602*%
X119445000Y-157240000D03*
X119945000Y-157240000D03*
X120445000Y-157240000D03*
X120945000Y-157240000D03*
X121445000Y-157240000D03*
X121445000Y-156470000D03*
X120945000Y-156470000D03*
X120445000Y-156470000D03*
X119945000Y-156470000D03*
X119445000Y-156470000D03*
%TD*%
D25*
%TO.C,C421*%
X132875000Y-160905000D03*
X133835000Y-160905000D03*
%TD*%
D28*
%TO.C,R205*%
X125365000Y-152415000D03*
X126385000Y-152415000D03*
%TD*%
D59*
%TO.C,U703*%
X164445000Y-159545000D03*
X164445000Y-160345000D03*
X165845000Y-160345000D03*
X165845000Y-159545000D03*
%TD*%
D51*
%TO.C,U102*%
X156925000Y-149695000D03*
X156925000Y-150195000D03*
X156925000Y-150695000D03*
X156925000Y-151195000D03*
X156925000Y-151695000D03*
X161225000Y-151695000D03*
X161225000Y-151195000D03*
X161225000Y-150695000D03*
X161225000Y-150195000D03*
X161225000Y-149695000D03*
%TD*%
D28*
%TO.C,R308*%
X143365000Y-153915000D03*
X144385000Y-153915000D03*
%TD*%
D21*
%TO.C,L421*%
X187495000Y-124945000D03*
X187495000Y-122245000D03*
X188495000Y-122245000D03*
X188495000Y-124945000D03*
%TD*%
D31*
%TO.C,J1002*%
X103800000Y-163295000D03*
X105050000Y-163295000D03*
X106300000Y-163295000D03*
X107550000Y-163295000D03*
D32*
X101950000Y-166495000D03*
X109400000Y-166495000D03*
%TD*%
D17*
%TO.C,R608*%
X111915000Y-167885000D03*
X111915000Y-166865000D03*
%TD*%
M02*
