%TF.GenerationSoftware,KiCad,Pcbnew,10.0.6*%
%TF.CreationDate,2026-09-27T18:23:31+00:00*%
%TF.ProjectId,AGD6.07.010,41474436-2e30-4372-9e30-31302e6b6963,rev?*%
%TF.SameCoordinates,Original*%
%TF.FileFunction,Copper,L3,Inr*%
%TF.FilePolarity,Positive*%
%FSLAX46Y46*%
G04 Gerber Fmt 4.6, Leading zero omitted, Abs format (unit mm)*
G04 Created by KiCad (PCBNEW 10.0.6) date 2026-09-27 18:23:31*
%MOMM*%
%LPD*%
G01*
G04 APERTURE LIST*
G04 Aperture macros list*
%AMRoundRect*
0 Rectangle with rounded corners*
0 $1 Rounding radius*
0 $2 $3 $4 $5 $6 $7 $8 $9 X,Y pos of 4 corners*
0 Add a 4 corners polygon primitive as box body*
4,1,4,$2,$3,$4,$5,$6,$7,$8,$9,$2,$3,0*
0 Add four circle primitives for the rounded corners*
1,1,$1+$1,$2,$3*
1,1,$1+$1,$4,$5*
1,1,$1+$1,$6,$7*
1,1,$1+$1,$8,$9*
0 Add four rect primitives between the rounded corners*
20,1,$1+$1,$2,$3,$4,$5,0*
20,1,$1+$1,$4,$5,$6,$7,0*
20,1,$1+$1,$6,$7,$8,$9,0*
20,1,$1+$1,$8,$9,$2,$3,0*%
G04 Aperture macros list end*
%TA.AperFunction,ComponentPad*%
%ADD10RoundRect,0.250000X-0.600000X-0.750000X0.600000X-0.750000X0.600000X0.750000X-0.600000X0.750000X0*%
%TD*%
%TA.AperFunction,ComponentPad*%
%ADD11O,1.700000X2.000000*%
%TD*%
%TA.AperFunction,ComponentPad*%
%ADD12C,1.400000*%
%TD*%
%TA.AperFunction,ComponentPad*%
%ADD13RoundRect,0.770000X0.980000X-0.980000X0.980000X0.980000X-0.980000X0.980000X-0.980000X-0.980000X0*%
%TD*%
%TA.AperFunction,ComponentPad*%
%ADD14C,3.500000*%
%TD*%
%TA.AperFunction,ComponentPad*%
%ADD15RoundRect,0.770000X-0.980000X-0.980000X0.980000X-0.980000X0.980000X0.980000X-0.980000X0.980000X0*%
%TD*%
%TA.AperFunction,ComponentPad*%
%ADD16R,1.700000X1.700000*%
%TD*%
%TA.AperFunction,ComponentPad*%
%ADD17C,1.700000*%
%TD*%
%TA.AperFunction,ComponentPad*%
%ADD18C,0.800000*%
%TD*%
%TA.AperFunction,ComponentPad*%
%ADD19C,6.400000*%
%TD*%
%TA.AperFunction,ComponentPad*%
%ADD20RoundRect,0.250000X0.750000X-0.600000X0.750000X0.600000X-0.750000X0.600000X-0.750000X-0.600000X0*%
%TD*%
%TA.AperFunction,ComponentPad*%
%ADD21O,2.000000X1.700000*%
%TD*%
%TA.AperFunction,ComponentPad*%
%ADD22R,2.400000X2.400000*%
%TD*%
%TA.AperFunction,ComponentPad*%
%ADD23C,2.400000*%
%TD*%
%TA.AperFunction,HeatsinkPad*%
%ADD24C,0.500000*%
%TD*%
%TA.AperFunction,ComponentPad*%
%ADD25O,1.000000X2.100000*%
%TD*%
%TA.AperFunction,ComponentPad*%
%ADD26O,1.000000X1.800000*%
%TD*%
%TA.AperFunction,ViaPad*%
%ADD27C,0.600000*%
%TD*%
%TA.AperFunction,ViaPad*%
%ADD28C,0.800000*%
%TD*%
%TA.AperFunction,Conductor*%
%ADD29C,0.200000*%
%TD*%
%TA.AperFunction,Conductor*%
%ADD30C,0.800000*%
%TD*%
%TA.AperFunction,Conductor*%
%ADD31C,0.400000*%
%TD*%
%TA.AperFunction,Conductor*%
%ADD32C,1.000000*%
%TD*%
%TA.AperFunction,Conductor*%
%ADD33C,1.500000*%
%TD*%
G04 APERTURE END LIST*
D10*
%TO.N,/LOAD_SWITCHES_12V/V12_HEAT*%
%TO.C,J805*%
X177395000Y-172295000D03*
D11*
%TO.N,/LOAD_SWITCHES_12V/HEAT_N*%
X179895000Y-172295000D03*
%TD*%
D10*
%TO.N,/LOAD_SWITCHES_12V/V12_FAN*%
%TO.C,J804*%
X155895000Y-172295000D03*
D11*
%TO.N,/LOAD_SWITCHES_12V/FAN_N*%
X158395000Y-172295000D03*
%TD*%
D12*
%TO.N,*%
%TO.C,J101*%
X150045000Y-146095000D03*
X150045000Y-135095000D03*
D13*
%TO.N,/POWER_INPUT_14S/VIN_RAW*%
X160045000Y-138095000D03*
D14*
%TO.N,GND*%
X160045000Y-143095000D03*
%TD*%
D12*
%TO.N,*%
%TO.C,J501*%
X165095000Y-143995000D03*
X176095000Y-143995000D03*
D15*
%TO.N,/RC_AND_TELEMETRY/V12_SIYI*%
X168095000Y-148995000D03*
D14*
%TO.N,GND*%
X173095000Y-148995000D03*
%TD*%
D16*
%TO.N,/VALVE1_CTL*%
%TO.C,J310*%
X102715000Y-125715000D03*
D17*
%TO.N,/VALVE2_CTL*%
X102715000Y-128255000D03*
%TO.N,/LIGHTS_CTL*%
X102715000Y-130795000D03*
%TO.N,/PUMP_PWM*%
X102715000Y-133335000D03*
%TO.N,/FAN_CTL*%
X102715000Y-135875000D03*
%TO.N,/HEATER_CTL*%
X102715000Y-138415000D03*
%TO.N,/CAM_TRIG*%
X102715000Y-140955000D03*
%TO.N,N/C*%
X102715000Y-143495000D03*
%TO.N,GND*%
X102715000Y-146035000D03*
X102715000Y-148575000D03*
%TD*%
D18*
%TO.N,GND*%
%TO.C,H101*%
X117600000Y-60000000D03*
X118302944Y-58302944D03*
X118302944Y-61697056D03*
X120000000Y-57600000D03*
D19*
X120000000Y-60000000D03*
D18*
X120000000Y-62400000D03*
X121697056Y-58302944D03*
X121697056Y-61697056D03*
X122400000Y-60000000D03*
%TD*%
D20*
%TO.N,/CAMERAS/V12_CAMD*%
%TO.C,J902*%
X115295000Y-142395000D03*
D21*
%TO.N,GND*%
X115295000Y-139895000D03*
%TD*%
D18*
%TO.N,GND*%
%TO.C,H102*%
X167600000Y-60000000D03*
X168302944Y-58302944D03*
X168302944Y-61697056D03*
X170000000Y-57600000D03*
D19*
X170000000Y-60000000D03*
D18*
X170000000Y-62400000D03*
X171697056Y-58302944D03*
X171697056Y-61697056D03*
X172400000Y-60000000D03*
%TD*%
D22*
%TO.N,/VIN_PROT*%
%TO.C,PS201*%
X117025000Y-70025000D03*
D23*
%TO.N,GND*%
X117025000Y-85265000D03*
%TO.N,N/C*%
X117025000Y-77645000D03*
%TO.N,+12V*%
X157665000Y-70025000D03*
%TO.N,N/C*%
X157665000Y-77645000D03*
%TO.N,GND*%
X157665000Y-85265000D03*
%TD*%
D18*
%TO.N,GND*%
%TO.C,H103*%
X117600000Y-170000000D03*
X118302944Y-168302944D03*
X118302944Y-171697056D03*
X120000000Y-167600000D03*
D19*
X120000000Y-170000000D03*
D18*
X120000000Y-172400000D03*
X121697056Y-168302944D03*
X121697056Y-171697056D03*
X122400000Y-170000000D03*
%TD*%
D24*
%TO.N,GND*%
%TO.C,U201*%
X173485000Y-120985000D03*
X173485000Y-122165000D03*
X174665000Y-120985000D03*
X174665000Y-122165000D03*
%TD*%
D25*
%TO.N,GND*%
%TO.C,J603*%
X101945000Y-171100000D03*
D26*
X101945000Y-175280000D03*
D25*
X110585000Y-171100000D03*
D26*
X110585000Y-175280000D03*
%TD*%
D16*
%TO.N,/ESC_PWM1*%
%TO.C,J309*%
X102715000Y-98215000D03*
D17*
%TO.N,/ESC_PWM2*%
X102715000Y-100755000D03*
%TO.N,/ESC_PWM3*%
X102715000Y-103295000D03*
%TO.N,/ESC_PWM4*%
X102715000Y-105835000D03*
%TO.N,/ESC_PWM5*%
X102715000Y-108375000D03*
%TO.N,/ESC_PWM6*%
X102715000Y-110915000D03*
%TO.N,/FLIGHT_CONTROL_IO/FTS_TRIG*%
X102715000Y-113455000D03*
%TO.N,N/C*%
X102715000Y-115995000D03*
%TO.N,GND*%
X102715000Y-118535000D03*
X102715000Y-121075000D03*
%TD*%
D10*
%TO.N,/LOAD_SWITCHES_12V/OUT3*%
%TO.C,J803*%
X146395000Y-172295000D03*
D11*
%TO.N,GND*%
X148895000Y-172295000D03*
%TD*%
D10*
%TO.N,/LOAD_SWITCHES_12V/OUT1*%
%TO.C,J801*%
X127395000Y-172295000D03*
D11*
%TO.N,GND*%
X129895000Y-172295000D03*
%TD*%
D22*
%TO.N,/POWER_CONVERSION/VIN_AI_F*%
%TO.C,PS202*%
X117025000Y-97525000D03*
D23*
%TO.N,GND*%
X117025000Y-112765000D03*
%TO.N,N/C*%
X117025000Y-105145000D03*
%TO.N,/POWER_CONVERSION/V12AI_RAW*%
X157665000Y-97525000D03*
%TO.N,N/C*%
X157665000Y-105145000D03*
%TO.N,GND*%
X157665000Y-112765000D03*
%TD*%
D12*
%TO.N,*%
%TO.C,J202*%
X137995000Y-144595000D03*
X137995000Y-133595000D03*
D13*
%TO.N,/POWER_CONVERSION/V12_AI*%
X142995000Y-141595000D03*
D14*
%TO.N,GND*%
X142995000Y-136595000D03*
%TD*%
D16*
%TO.N,/ETHERNET/E1_TXP*%
%TO.C,J1007*%
X102715000Y-63225000D03*
D17*
%TO.N,/ETHERNET/E1_TXN*%
X105255000Y-63225000D03*
%TO.N,/ETHERNET/E1_RXP*%
X102715000Y-65765000D03*
%TO.N,/ETHERNET/E1_RXN*%
X105255000Y-65765000D03*
%TO.N,/ETHERNET/E2_TXP*%
X102715000Y-68305000D03*
%TO.N,/ETHERNET/E2_TXN*%
X105255000Y-68305000D03*
%TO.N,/ETHERNET/E2_RXP*%
X102715000Y-70845000D03*
%TO.N,/ETHERNET/E2_RXN*%
X105255000Y-70845000D03*
%TO.N,/ETHERNET/E3_TXP*%
X102715000Y-73385000D03*
%TO.N,/ETHERNET/E3_TXN*%
X105255000Y-73385000D03*
%TO.N,/ETHERNET/E3_RXP*%
X102715000Y-75925000D03*
%TO.N,/ETHERNET/E3_RXN*%
X105255000Y-75925000D03*
%TO.N,/ETHERNET/E4_TXP*%
X102715000Y-78465000D03*
%TO.N,/ETHERNET/E4_TXN*%
X105255000Y-78465000D03*
%TO.N,/ETHERNET/E4_RXP*%
X102715000Y-81005000D03*
%TO.N,/ETHERNET/E4_RXN*%
X105255000Y-81005000D03*
%TO.N,/ETHERNET/E5_TXP*%
X102715000Y-83545000D03*
%TO.N,/ETHERNET/E5_TXN*%
X105255000Y-83545000D03*
%TO.N,/ETHERNET/E5_RXP*%
X102715000Y-86085000D03*
%TO.N,/ETHERNET/E5_RXN*%
X105255000Y-86085000D03*
%TO.N,/ETHERNET/V5_ETH*%
X102715000Y-88625000D03*
X105255000Y-88625000D03*
%TO.N,GND*%
X102715000Y-91165000D03*
X105255000Y-91165000D03*
X102715000Y-93705000D03*
X105255000Y-93705000D03*
%TD*%
D18*
%TO.N,GND*%
%TO.C,H104*%
X167600000Y-170000000D03*
X168302944Y-168302944D03*
X168302944Y-171697056D03*
X170000000Y-167600000D03*
D19*
X170000000Y-170000000D03*
D18*
X170000000Y-172400000D03*
X171697056Y-168302944D03*
X171697056Y-171697056D03*
X172400000Y-170000000D03*
%TD*%
D10*
%TO.N,/LOAD_SWITCHES_12V/OUT2*%
%TO.C,J802*%
X136895000Y-172295000D03*
D11*
%TO.N,GND*%
X139395000Y-172295000D03*
%TD*%
D20*
%TO.N,/CAMERAS/V12_CAMF*%
%TO.C,J901*%
X123295000Y-137395000D03*
D21*
%TO.N,GND*%
X123295000Y-134895000D03*
%TD*%
D27*
%TO.N,/ESC_PWM1*%
X179471000Y-69758600D03*
%TO.N,/CAN_AND_SENSORS/C1H*%
X179394000Y-106397500D03*
X183501200Y-98939000D03*
X179198800Y-112695200D03*
X179273300Y-90505800D03*
X179117100Y-80921800D03*
X179381000Y-118091900D03*
%TO.N,/CAN_AND_SENSORS/C1L*%
X176455900Y-96447100D03*
X181970300Y-87249200D03*
X186040200Y-98288800D03*
%TO.N,GND*%
X171732100Y-118152400D03*
X168640900Y-157203000D03*
X149212500Y-130155100D03*
X130993400Y-161719400D03*
X128517400Y-125747900D03*
X142407700Y-147669000D03*
X134325800Y-148235300D03*
X184495000Y-61420000D03*
X184495000Y-103409000D03*
X159363400Y-158386900D03*
X165770000Y-128883800D03*
X177402100Y-114922900D03*
X120304500Y-162360700D03*
X184495000Y-82472200D03*
X125493900Y-151572600D03*
X184495000Y-92984000D03*
X113001600Y-130795000D03*
X117995000Y-146534700D03*
X126261200Y-143533800D03*
X182231900Y-158028100D03*
X181936400Y-122409100D03*
X176645000Y-92190000D03*
X184855400Y-71988900D03*
D28*
%TO.N,+12V*%
X182856500Y-170770600D03*
X106997100Y-142058700D03*
X139031800Y-162665700D03*
X108346000Y-150002400D03*
X175801200Y-120070000D03*
X170990700Y-154006300D03*
X155099200Y-165494300D03*
X178651800Y-161665300D03*
X148458900Y-155203900D03*
X176395000Y-76699000D03*
X168102700Y-152883700D03*
X116045700Y-132250000D03*
X132784800Y-162845800D03*
X162895000Y-156354300D03*
X165697500Y-113786500D03*
X154425000Y-129289200D03*
X111932300Y-139653400D03*
D27*
%TO.N,/LOAD_SWITCHES_12V/HEAT_G*%
X155622400Y-154373500D03*
X166512800Y-164018800D03*
X147042100Y-153291400D03*
D28*
%TO.N,/LOAD_SWITCHES_12V/HEAT_N*%
X170224300Y-162684900D03*
D27*
%TO.N,+5V*%
X174685100Y-116327500D03*
X169415000Y-118767700D03*
%TO.N,+3V3*%
X164609400Y-154626300D03*
X127977900Y-168421900D03*
X150699700Y-151673700D03*
X177415000Y-148073500D03*
X166811400Y-158702800D03*
X148060600Y-148995000D03*
X187545000Y-169184000D03*
X159558400Y-163935100D03*
X152335000Y-168082200D03*
X186449300Y-157107800D03*
X170056600Y-174824800D03*
X138854800Y-159804900D03*
X169513700Y-111997300D03*
X112204200Y-151189200D03*
X175757200Y-169247500D03*
X167972100Y-121814000D03*
X142743300Y-158506000D03*
X158116000Y-149784400D03*
X124016600Y-157986600D03*
X175632500Y-114929900D03*
%TO.N,/RC_AND_TELEMETRY/SIYI_RX_C*%
X109915000Y-83632800D03*
%TO.N,/RC_AND_TELEMETRY/SIYI_TX_C*%
X110526000Y-69605700D03*
%TO.N,/RC_AND_TELEMETRY/SBUS_C*%
X105265700Y-57299500D03*
X113222500Y-56877100D03*
%TO.N,/RC_AND_TELEMETRY/PPS_C*%
X139050000Y-57311900D03*
X126462700Y-56193200D03*
%TO.N,/LOAD_SWITCHES_12V/ADC_RDY*%
X167030600Y-163441000D03*
%TO.N,/LOAD_SWITCHES_12V/IS1_F*%
X170135700Y-160918600D03*
X154311300Y-163201700D03*
%TO.N,/LOAD_SWITCHES_12V/IS2_F*%
X157139000Y-159129700D03*
X170948400Y-160445100D03*
X158511600Y-160352100D03*
%TO.N,/LOAD_SWITCHES_12V/IS3_F*%
X171294600Y-156445400D03*
X161934100Y-155819100D03*
D28*
%TO.N,/LOAD_SWITCHES_12V/V12_MON*%
X171163300Y-152136700D03*
D27*
%TO.N,/I2C_SDA*%
X171691600Y-161224900D03*
X160880000Y-155292500D03*
X166365000Y-160885200D03*
X167859700Y-156593800D03*
%TO.N,/I2C_SCL*%
X149425000Y-152314400D03*
X165409200Y-154050800D03*
X184800000Y-160865800D03*
X174450700Y-160865800D03*
%TO.N,/POWER_INPUT_14S/VIN_PGOOD*%
X178697500Y-128412900D03*
%TO.N,/LOAD_SWITCHES_12V/IN1*%
X113102900Y-150527500D03*
X110885000Y-146202500D03*
X122759500Y-164746000D03*
X113243700Y-157951100D03*
%TO.N,/LOAD_SWITCHES_12V/DEN*%
X125829700Y-167049800D03*
X138241100Y-168058000D03*
%TO.N,/LOAD_SWITCHES_12V/IS1*%
X126943300Y-168704300D03*
X139815100Y-168350400D03*
D28*
%TO.N,/LOAD_SWITCHES_12V/OUT1*%
X134796700Y-168202900D03*
D27*
%TO.N,/CAN1_H*%
X180721600Y-123717500D03*
X177479100Y-123588900D03*
X122586400Y-141040500D03*
X183194100Y-121447300D03*
%TO.N,/CAN1_L*%
X187113800Y-104715900D03*
X120237300Y-142838400D03*
%TO.N,/CAN_AND_SENSORS/FLOW_IN*%
X187305300Y-100871100D03*
X172208200Y-119951100D03*
X185804000Y-105168400D03*
X188531800Y-104418100D03*
X179153200Y-121442400D03*
%TO.N,/FLIGHT_CONTROL_IO/MODE_COM*%
X122470300Y-155791500D03*
%TO.N,/WATCHDOG_DIAGNOSTICS/TEMP_ALERT_INT*%
X163020600Y-159024100D03*
D28*
%TO.N,/LOAD_SWITCHES_12V/V12_HEAT*%
X185895000Y-169011100D03*
X179348800Y-167956900D03*
D27*
%TO.N,/ESC_PWM6*%
X179164500Y-119849600D03*
%TO.N,/AI_PWR_EN*%
X149222800Y-167316000D03*
X160784100Y-165885400D03*
X173500600Y-175742900D03*
%TO.N,/ETHERNET/E1_TXP*%
X108217100Y-84351200D03*
X105995000Y-153542100D03*
X103730300Y-124014700D03*
X103816700Y-151363800D03*
%TO.N,/ETHERNET/E1_TXN*%
X105423600Y-125355500D03*
%TO.N,/ETHERNET/E1_RXN*%
X104643100Y-115074100D03*
%TO.N,/AI_COMPUTE_INTERFACE/AI_TX_C*%
X118302200Y-157283400D03*
X118797500Y-159039100D03*
%TO.N,/AI_COMPUTE_INTERFACE/AI_RX_C*%
X121208000Y-164337300D03*
X119167400Y-158307600D03*
%TO.N,/AI_COMPUTE_INTERFACE/PPS_C2*%
X121116400Y-158023500D03*
%TO.N,/AI_COMPUTE_INTERFACE/WDI_C*%
X144250100Y-166360100D03*
X122121900Y-165868800D03*
%TO.N,/AI_COMPUTE_INTERFACE/ARM_C*%
X121800000Y-162499300D03*
X144570100Y-163616600D03*
%TO.N,/POWER_CONVERSION/AI_UV*%
X146468300Y-160920100D03*
X115937000Y-155858200D03*
X146259500Y-134639200D03*
X144311700Y-151014900D03*
D28*
%TO.N,/POWER_CONVERSION/VIN_AI*%
X168620200Y-128604700D03*
X159578000Y-131575400D03*
%TO.N,/POWER_CONVERSION/VIN_AI_F*%
X140220000Y-118989600D03*
X129308600Y-99126500D03*
X160345000Y-122545600D03*
%TO.N,/LOAD_SWITCHES_12V/V12_FAN*%
X164094400Y-166471000D03*
%TO.N,/LOAD_SWITCHES_12V/FAN_N*%
X160626700Y-164514900D03*
D27*
%TO.N,/FLIGHT_CONTROL_IO/MODE_B_C*%
X126888400Y-156649800D03*
X119159600Y-151249200D03*
%TO.N,/CAN_AND_SENSORS/C2H*%
X183327100Y-76600800D03*
X183813700Y-119920800D03*
%TO.N,/CAN_AND_SENSORS/C2L*%
X188495000Y-123247200D03*
X182991000Y-157934700D03*
X189066300Y-101095000D03*
X178935700Y-150035200D03*
X181970300Y-127849200D03*
%TO.N,/CAN_AND_SENSORS/LEVEL_IN*%
X162342800Y-104097900D03*
X183324000Y-96744200D03*
X160193400Y-130011200D03*
%TO.N,/POWER_CONVERSION/AI_GATE*%
X128474800Y-123246000D03*
D28*
%TO.N,/POWER_CONVERSION/AI_SNS*%
X135799400Y-132553000D03*
X118237500Y-138624700D03*
%TO.N,/POWER_CONVERSION/V12_AI*%
X166895000Y-108058700D03*
%TO.N,/VIN_PROT*%
X153720000Y-118979300D03*
X115244700Y-125535300D03*
X165697500Y-112181000D03*
X148220000Y-118917100D03*
X166895000Y-72459100D03*
%TO.N,/CAMERAS/V12_CAMF*%
X126924800Y-133765200D03*
X111706200Y-137757500D03*
%TO.N,/POWER_CONVERSION/V12AI_RAW*%
X132512900Y-120262900D03*
X144415000Y-131292800D03*
X110626000Y-126801400D03*
D27*
%TO.N,/POWER_CONVERSION/AI_OV*%
X124637200Y-152734200D03*
X115361500Y-150148600D03*
%TO.N,/POWER_CONVERSION/AI_PGOOD*%
X112197600Y-149865000D03*
X116941300Y-148267600D03*
%TO.N,/POWER_CONVERSION/AI_GATE_DRV*%
X118802600Y-146537400D03*
%TO.N,/VALVE1_CTL*%
X107166000Y-143532000D03*
%TO.N,/PUMP_PWM*%
X117514500Y-164056500D03*
%TO.N,/FAN_CTL*%
X133368000Y-140331100D03*
%TO.N,/HEATER_CTL*%
X145997600Y-148326900D03*
%TO.N,/CAM_TRIG*%
X109170600Y-134918200D03*
%TO.N,/CAN_AND_SENSORS/PRESS_IN*%
X185980500Y-85845800D03*
X171345400Y-106174800D03*
X167597800Y-114906400D03*
%TO.N,/ESC_PWM2*%
X180795000Y-81384200D03*
%TO.N,/TEMP_ALERT_N*%
X156944000Y-163923600D03*
X161961400Y-160768200D03*
%TO.N,/LOAD_SWITCHES_12V/ALERT_DRV*%
X158902100Y-164868200D03*
D28*
%TO.N,/CAMERAS/V12_CAMD*%
X107060100Y-146835100D03*
D27*
%TO.N,/MAV_PX_TX*%
X110827100Y-86888300D03*
%TO.N,/MAV_PX_RX*%
X110696800Y-91646800D03*
%TO.N,/LOAD_SWITCHES_12V/PUMP_C*%
X148252800Y-162120100D03*
X123865000Y-164118200D03*
%TO.N,/LOAD_SWITCHES_12V/FAN_G*%
X156197900Y-164571600D03*
%TO.N,/ESC_PWM3*%
X180620500Y-90621900D03*
%TO.N,/RADAR_PX_TX*%
X134300000Y-128705900D03*
%TO.N,/LOAD_SWITCHES_12V/IS2*%
X149219100Y-166494300D03*
X156378100Y-160933300D03*
%TO.N,/AI_WDI*%
X145609700Y-167610500D03*
X163697500Y-173333500D03*
%TO.N,/AI_COMPUTE_INTERFACE/USB_DN*%
X115595000Y-173360100D03*
X106008300Y-168057400D03*
%TO.N,/AI_COMPUTE_INTERFACE/USB_VBUS*%
X110556800Y-160902400D03*
X107985200Y-166053700D03*
X114485300Y-171452900D03*
%TO.N,/RC_AND_TELEMETRY/V5_RADAR*%
X165575000Y-101743700D03*
%TO.N,/ESC_PWM5*%
X179701400Y-109422900D03*
%TO.N,/POWER_CONVERSION/PG5*%
X173282000Y-119142000D03*
X172612500Y-122914800D03*
%TO.N,/POWER_CONVERSION/EN5*%
X177198700Y-118767700D03*
%TO.N,/ETHERNET/V5_ETH*%
X155288900Y-97349800D03*
X106954700Y-104673900D03*
%TO.N,/RC_AND_TELEMETRY/RADAR_TX_C*%
X130425000Y-61456200D03*
X128758000Y-64281600D03*
%TO.N,/RADAR_PX_RX*%
X128472600Y-63491600D03*
%TO.N,/AI_WD_ARM*%
X165115400Y-173783400D03*
X184829600Y-176031100D03*
X147587900Y-173532600D03*
%TO.N,/ADC_PRESS*%
X144885000Y-147123500D03*
X137469400Y-159817300D03*
X148625600Y-132670500D03*
X163086200Y-121663900D03*
%TO.N,/ADC_LEVEL*%
X135435300Y-157714100D03*
X135627000Y-140467100D03*
X158718000Y-132276000D03*
X142590200Y-149123900D03*
%TO.N,/FLOW_CAP*%
X135634900Y-155999200D03*
X167763700Y-123516300D03*
X145699800Y-147574200D03*
%TO.N,/FLIGHT_CONTROL_IO/MODE_A*%
X129418900Y-161623100D03*
X132819400Y-157348200D03*
%TO.N,/FLIGHT_CONTROL_IO/MODE_B*%
X131867700Y-154676500D03*
%TO.N,/FLIGHT_CONTROL_IO/ENCL_OK*%
X142638800Y-152545000D03*
%TO.N,/POWER_INPUT_14S/GATE*%
X113995000Y-119626900D03*
X136679700Y-115989400D03*
D28*
%TO.N,/POWER_INPUT_14S/SNS*%
X131548900Y-138314800D03*
X166059200Y-134772500D03*
X158758600Y-135323500D03*
X140721400Y-133923400D03*
D27*
%TO.N,/AI_COMPUTE_INTERFACE/CC1*%
X112225600Y-169714700D03*
X105015000Y-169487200D03*
%TO.N,/AI_COMPUTE_INTERFACE/CC2*%
X108015000Y-169250500D03*
X111199400Y-168701000D03*
%TO.N,/POWER_CONVERSION/AI_ALERT_N*%
X147952500Y-153411300D03*
%TO.N,/CAN_AND_SENSORS/V5_CAN2*%
X174081000Y-131549500D03*
%TO.N,/LOAD_SWITCHES_12V/FAN_CTL_R*%
X145685700Y-153610000D03*
%TO.N,/LOAD_SWITCHES_12V/IS3*%
X144951500Y-155251000D03*
X155593900Y-158514000D03*
X142853500Y-159485000D03*
%TO.N,/ESC_PWM4*%
X180795000Y-100302500D03*
D28*
%TO.N,/POWER_INPUT_14S/VIN_F*%
X163153800Y-133538700D03*
X171187700Y-123889200D03*
X167271400Y-130890900D03*
D27*
%TO.N,/FLIGHT_CONTROL_IO/FTS_C*%
X126668800Y-155345800D03*
X111702700Y-140652700D03*
D28*
%TO.N,/LOAD_SWITCHES_12V/OUT3*%
X150796700Y-156290000D03*
D27*
%TO.N,/FLIGHT_CONTROL_IO/MODE_A_C*%
X126946300Y-158876700D03*
X116691600Y-152309300D03*
%TO.N,/WATCHDOG_DIAGNOSTICS/SET0*%
X186245000Y-172253300D03*
X168718300Y-176486200D03*
%TO.N,/POWER_INPUT_14S/OV*%
X174097400Y-134246000D03*
%TO.N,/POWER_INPUT_14S/TMR*%
X176291700Y-124938500D03*
X173941100Y-127313400D03*
%TO.N,/SBUS*%
X137716000Y-86620000D03*
X110689800Y-83855600D03*
%TO.N,/LOAD_SWITCHES_12V/IN3*%
X141956100Y-158429000D03*
X112631300Y-156894400D03*
%TO.N,/LOAD_SWITCHES_12V/IN2*%
X137553200Y-161938500D03*
X114006300Y-156187400D03*
D28*
%TO.N,/LOAD_SWITCHES_12V/OUT2*%
X144331800Y-167315200D03*
X140833000Y-168307000D03*
D27*
%TO.N,/ETHERNET/E2_TXN*%
X104687100Y-161498500D03*
%TO.N,/ETHERNET/E3_TXN*%
X102960600Y-153523500D03*
%TO.N,/ETHERNET/E3_RXN*%
X103655400Y-156425800D03*
%TO.N,/ETHERNET/E4_TXN*%
X106301600Y-161657900D03*
%TO.N,/ETHERNET/E4_RXN*%
X107427300Y-87526900D03*
X108455400Y-92400700D03*
X107017200Y-138116200D03*
X107377000Y-152537600D03*
%TO.N,/ETHERNET/E5_TXP*%
X130393800Y-63586600D03*
%TO.N,/ETHERNET/E5_TXN*%
X129342100Y-62193800D03*
%TO.N,/ETHERNET/E5_RXP*%
X128550000Y-62329800D03*
%TO.N,/ETHERNET/E5_RXN*%
X124170000Y-67908800D03*
%TO.N,/CAMERAS/TRIG_C*%
X110507700Y-132272300D03*
%TO.N,/WATCHDOG_DIAGNOSTICS/CWD*%
X168897600Y-173702500D03*
X172089800Y-174150200D03*
X168633500Y-175487800D03*
%TO.N,/WATCHDOG_DIAGNOSTICS/CRST*%
X169520800Y-178668100D03*
%TO.N,/WATCHDOG_DIAGNOSTICS/SET1*%
X172570000Y-178662800D03*
X186245000Y-175622200D03*
%TO.N,/POWER_INPUT_14S/INA_ALERT_N*%
X158295900Y-150787500D03*
%TO.N,/FLIGHT_CONTROL_IO/ENCL_C*%
X142737300Y-156774300D03*
%TO.N,/CAN2_H*%
X126659900Y-146099200D03*
X187495000Y-125971300D03*
%TO.N,/CAN2_L*%
X126661700Y-144850800D03*
X188495000Y-125974800D03*
%TO.N,/AI_TX*%
X131658600Y-153884800D03*
X124497500Y-158746100D03*
%TO.N,/POWER_CONVERSION/LED_D205*%
X170139100Y-116811200D03*
X147007200Y-116115300D03*
X147637500Y-130112400D03*
D28*
%TO.N,/CAN_AND_SENSORS/V12_OBST*%
X183968700Y-71103000D03*
X174097400Y-72092800D03*
D27*
%TO.N,/AI_RX*%
X122594000Y-163386500D03*
X131676500Y-157192400D03*
%TO.N,/ETHERNET/E6_TXP*%
X120050000Y-119087100D03*
X112050000Y-119513100D03*
%TO.N,/ETHERNET/E6_TXN*%
X117813700Y-120308700D03*
X110800000Y-120183600D03*
%TO.N,/ETHERNET/E6_RXP*%
X122550000Y-117517900D03*
X109550000Y-119680600D03*
%TO.N,/ETHERNET/E6_RXN*%
X108300000Y-120150500D03*
X121300000Y-116902100D03*
%TO.N,/AI_COMPUTE_INTERFACE/SW_C*%
X119294900Y-164337300D03*
X147365000Y-168687800D03*
%TD*%
%TO.N,/ESC_PWM1*%
D29*
X165445600Y-73393200D02*
X170290800Y-73393200D01*
X109007100Y-93024600D02*
X109007100Y-92503300D01*
X170290800Y-73393200D02*
X173925400Y-69758600D01*
X156615600Y-68500600D02*
X160553000Y-68500600D01*
X102715000Y-98215000D02*
X103816700Y-98215000D01*
X160553000Y-68500600D02*
X165445600Y-73393200D01*
X173925400Y-69758600D02*
X179471000Y-69758600D01*
X137944500Y-87171700D02*
X156615600Y-68500600D01*
X103816700Y-98215000D02*
X109007100Y-93024600D01*
X114338700Y-87171700D02*
X137944500Y-87171700D01*
X109007100Y-92503300D02*
X114338700Y-87171700D01*
%TO.N,/CAN_AND_SENSORS/C1L*%
X176455900Y-96447100D02*
X181970300Y-90932700D01*
X181970300Y-90932700D02*
X181970300Y-87249200D01*
X176455900Y-96447100D02*
X178297600Y-98288800D01*
X178297600Y-98288800D02*
X186040200Y-98288800D01*
%TO.N,+12V*%
D30*
X143065900Y-134098900D02*
X140162400Y-131195400D01*
X178320900Y-168412100D02*
X178320900Y-161830500D01*
X138851700Y-162845800D02*
X139031800Y-162665700D01*
X157336500Y-161464400D02*
X157336500Y-160241600D01*
X182856500Y-170770600D02*
X181777500Y-169691600D01*
X146031900Y-162665700D02*
X139031800Y-162665700D01*
X157126400Y-160031500D02*
X155809600Y-160031500D01*
X106038700Y-145987000D02*
X108071600Y-143954100D01*
X173089700Y-125010900D02*
X175801200Y-122299400D01*
X159731300Y-156720800D02*
X162307600Y-156720800D01*
X154692100Y-158749700D02*
X151146300Y-155203900D01*
X148458900Y-155203900D02*
X148458900Y-160238700D01*
X117100300Y-131195400D02*
X116045700Y-132250000D01*
X155099200Y-165494300D02*
X155099200Y-163701700D01*
X149976700Y-133737500D02*
X145886100Y-133737500D01*
X108071600Y-143133200D02*
X106997100Y-142058700D01*
X157336500Y-160241600D02*
X157336500Y-160241500D01*
X174053800Y-161830500D02*
X178320900Y-161830500D01*
X109402400Y-139653400D02*
X106997100Y-142058700D01*
X158230000Y-158222100D02*
X159731300Y-156720800D01*
X154604700Y-129109500D02*
X154425000Y-129289200D01*
X158230000Y-159348000D02*
X158230000Y-158222100D01*
X164339000Y-76699000D02*
X157665000Y-70025000D01*
X166257100Y-125010900D02*
X173089700Y-125010900D01*
X165697500Y-124451300D02*
X161039300Y-129109500D01*
X162895000Y-156354300D02*
X166770500Y-156354300D01*
X157336500Y-160241500D02*
X157126400Y-160031500D01*
X151146300Y-155203900D02*
X148458900Y-155203900D01*
X181777500Y-169691600D02*
X179600400Y-169691600D01*
X162307600Y-156720800D02*
X162674100Y-156354300D01*
X167462300Y-155662500D02*
X168407800Y-155662500D01*
X111932300Y-139653400D02*
X109402400Y-139653400D01*
X179600400Y-169691600D02*
X178320900Y-168412100D01*
X145886100Y-133737500D02*
X145524700Y-134098900D01*
X168407800Y-155662500D02*
X173184100Y-160438800D01*
X178320900Y-161830500D02*
X178486600Y-161830500D01*
X165697500Y-124451300D02*
X165697500Y-113786500D01*
X176395000Y-76699000D02*
X164339000Y-76699000D01*
X162674100Y-156354300D02*
X162895000Y-156354300D01*
X108071600Y-143954100D02*
X108071600Y-143133200D01*
X173184100Y-160960800D02*
X174053800Y-161830500D01*
X154692100Y-158914000D02*
X154692100Y-158749700D01*
X154425000Y-129289200D02*
X149976700Y-133737500D01*
X161039300Y-129109500D02*
X154604700Y-129109500D01*
X175801200Y-122299400D02*
X175801200Y-120070000D01*
X106038700Y-147695100D02*
X106038700Y-145987000D01*
X165697500Y-124451300D02*
X166257100Y-125010900D01*
X155809600Y-160031500D02*
X154692100Y-158914000D01*
X148458900Y-160238700D02*
X146031900Y-162665700D01*
X108346000Y-150002400D02*
X106038700Y-147695100D01*
X166770500Y-156354300D02*
X167462300Y-155662500D01*
X145524700Y-134098900D02*
X143065900Y-134098900D01*
X155099200Y-163701700D02*
X157336500Y-161464400D01*
X169868100Y-152883700D02*
X170990700Y-154006300D01*
X178486600Y-161830500D02*
X178651800Y-161665300D01*
X132784800Y-162845800D02*
X138851700Y-162845800D01*
X173184100Y-160438800D02*
X173184100Y-160960800D01*
X157336500Y-160241500D02*
X158230000Y-159348000D01*
X140162400Y-131195400D02*
X117100300Y-131195400D01*
X168102700Y-152883700D02*
X169868100Y-152883700D01*
%TO.N,/LOAD_SWITCHES_12V/HEAT_G*%
D29*
X147852800Y-154102100D02*
X147042100Y-153291400D01*
X155622400Y-154373500D02*
X155351000Y-154102100D01*
X155351000Y-154102100D02*
X147852800Y-154102100D01*
%TO.N,/LOAD_SWITCHES_12V/HEAT_N*%
D30*
X171056500Y-162684900D02*
X179064900Y-170693300D01*
X179895000Y-172295000D02*
X179895000Y-170693300D01*
X179064900Y-170693300D02*
X179895000Y-170693300D01*
X170224300Y-162684900D02*
X171056500Y-162684900D01*
%TO.N,+5V*%
D31*
X172635300Y-116327500D02*
X174685100Y-116327500D01*
X169415000Y-118767700D02*
X170195100Y-118767700D01*
X170195100Y-118767700D02*
X172635300Y-116327500D01*
%TO.N,+3V3*%
X122892200Y-166372300D02*
X122738300Y-166526200D01*
X112204200Y-151189200D02*
X116865400Y-151189200D01*
X159778000Y-164928600D02*
X159778000Y-164154600D01*
X143538800Y-154958000D02*
X143538800Y-150858300D01*
X122738300Y-166526200D02*
X121788500Y-166526200D01*
X177895600Y-148073500D02*
X177415000Y-148073500D01*
X167062900Y-158954300D02*
X167062900Y-162102400D01*
X113134100Y-158848600D02*
X111962400Y-157676900D01*
X111962400Y-157676900D02*
X111962400Y-151431000D01*
X123662800Y-157986600D02*
X124016600Y-157986600D01*
X156624400Y-168082200D02*
X159778000Y-164928600D01*
X184137100Y-170623700D02*
X186105300Y-170623700D01*
X158116000Y-149784400D02*
X157326600Y-148995000D01*
X181040900Y-173719900D02*
X184137100Y-170623700D01*
X118166200Y-163786600D02*
X113228200Y-158848600D01*
X141112000Y-157547700D02*
X142057400Y-157547700D01*
X118166200Y-164163100D02*
X118166200Y-163786600D01*
X175074800Y-169247500D02*
X175074800Y-173719900D01*
X175074800Y-173719900D02*
X173969900Y-174824800D01*
X175074800Y-169247500D02*
X175757200Y-169247500D01*
X126116100Y-166372300D02*
X122892200Y-166372300D01*
X160234900Y-163697700D02*
X165467600Y-163697700D01*
X173969900Y-174824800D02*
X170056600Y-174824800D01*
X186449300Y-157107800D02*
X186449300Y-156627200D01*
X143538800Y-150858300D02*
X145402100Y-148995000D01*
X172446300Y-115434000D02*
X170129500Y-117750800D01*
X127977900Y-168421900D02*
X127977900Y-168234100D01*
X157326600Y-148995000D02*
X148060600Y-148995000D01*
X172446300Y-114929900D02*
X172446300Y-115434000D01*
X167972100Y-119272900D02*
X167972100Y-121814000D01*
X127977900Y-168234100D02*
X126116100Y-166372300D01*
X152335000Y-168082200D02*
X156624400Y-168082200D01*
X170129500Y-117750800D02*
X169494200Y-117750800D01*
X113228200Y-158848600D02*
X113134100Y-158848600D01*
X142057400Y-157547700D02*
X142057400Y-156439400D01*
X116865400Y-151189200D02*
X123662800Y-157986600D01*
X165467600Y-163697700D02*
X167062900Y-162102400D01*
X138854800Y-159804900D02*
X141112000Y-157547700D01*
X172446300Y-114929900D02*
X175632500Y-114929900D01*
X175074800Y-173719900D02*
X181040900Y-173719900D01*
X166811400Y-158702800D02*
X167062900Y-158954300D01*
X167062900Y-162102400D02*
X167929700Y-162102400D01*
X159558500Y-163935100D02*
X159778000Y-164154600D01*
X169494200Y-117750800D02*
X167972100Y-119272900D01*
X169513700Y-111997300D02*
X172446300Y-114929900D01*
X121583300Y-166321000D02*
X120324100Y-166321000D01*
X120324100Y-166321000D02*
X118166200Y-164163100D01*
X186449300Y-156627200D02*
X177895600Y-148073500D01*
X167929700Y-162102400D02*
X175074800Y-169247500D01*
X111962400Y-151431000D02*
X112204200Y-151189200D01*
X121788500Y-166526200D02*
X121583300Y-166321000D01*
X159778000Y-164154600D02*
X160234900Y-163697700D01*
X186105300Y-170623700D02*
X187545000Y-169184000D01*
X142743300Y-158233600D02*
X142057400Y-157547700D01*
X159558400Y-163935100D02*
X159558500Y-163935100D01*
X142057400Y-156439400D02*
X143538800Y-154958000D01*
X142743300Y-158506000D02*
X142743300Y-158233600D01*
X145402100Y-148995000D02*
X148060600Y-148995000D01*
%TO.N,/RC_AND_TELEMETRY/SBUS_C*%
D29*
X113222500Y-56877100D02*
X105688100Y-56877100D01*
X105688100Y-56877100D02*
X105265700Y-57299500D01*
%TO.N,/RC_AND_TELEMETRY/PPS_C*%
X137931300Y-56193200D02*
X139050000Y-57311900D01*
X126462700Y-56193200D02*
X137931300Y-56193200D01*
%TO.N,/LOAD_SWITCHES_12V/IS1_F*%
X154311300Y-165720200D02*
X154311300Y-163201700D01*
X167292200Y-157795400D02*
X166423800Y-157795400D01*
X154835900Y-166244800D02*
X154311300Y-165720200D01*
X170135700Y-160638900D02*
X167292200Y-157795400D01*
X155907000Y-166244800D02*
X154835900Y-166244800D01*
X160988800Y-163230400D02*
X158921400Y-163230400D01*
X158921400Y-163230400D02*
X155907000Y-166244800D01*
X170135700Y-160918600D02*
X170135700Y-160638900D01*
X166423800Y-157795400D02*
X160988800Y-163230400D01*
%TO.N,/LOAD_SWITCHES_12V/IS2_F*%
X170948400Y-160445100D02*
X170451100Y-160445100D01*
X170451100Y-160445100D02*
X167435100Y-157429100D01*
X167435100Y-157429100D02*
X161434600Y-157429100D01*
X161434600Y-157429100D02*
X158511600Y-160352100D01*
%TO.N,/LOAD_SWITCHES_12V/IS3_F*%
X169763500Y-154914300D02*
X171294600Y-156445400D01*
X162101900Y-155651300D02*
X166046400Y-155651300D01*
X166783400Y-154914300D02*
X169763500Y-154914300D01*
X161934100Y-155819100D02*
X162101900Y-155651300D01*
X166046400Y-155651300D02*
X166783400Y-154914300D01*
%TO.N,/I2C_SDA*%
X171691600Y-160360300D02*
X169485700Y-158154400D01*
X168809600Y-158154400D02*
X167859700Y-157204500D01*
X171691600Y-161224900D02*
X171691600Y-160360300D01*
X166222600Y-158493900D02*
X166569400Y-158147100D01*
X171376600Y-161539900D02*
X171691600Y-161224900D01*
X167881600Y-158912000D02*
X167881600Y-159470600D01*
X166365000Y-160885200D02*
X166222600Y-160742800D01*
X167881600Y-159470600D02*
X169950900Y-161539900D01*
X169950900Y-161539900D02*
X171376600Y-161539900D01*
X167859700Y-157204500D02*
X167859700Y-156593800D01*
X169485700Y-158154400D02*
X168809600Y-158154400D01*
X167116700Y-158147100D02*
X167881600Y-158912000D01*
X166569400Y-158147100D02*
X167116700Y-158147100D01*
X166222600Y-160742800D02*
X166222600Y-158493900D01*
%TO.N,/I2C_SCL*%
X184800000Y-160865800D02*
X174450700Y-160865800D01*
X165409200Y-154050800D02*
X163672800Y-152314400D01*
X163672800Y-152314400D02*
X149425000Y-152314400D01*
X169680700Y-154050800D02*
X165409200Y-154050800D01*
X174450700Y-158820800D02*
X169680700Y-154050800D01*
X174450700Y-160865800D02*
X174450700Y-158820800D01*
%TO.N,/LOAD_SWITCHES_12V/IN1*%
X122759500Y-164746000D02*
X122609800Y-164895700D01*
X122609800Y-164895700D02*
X120692400Y-164895700D01*
X110885000Y-146202500D02*
X110885000Y-149339500D01*
X112073000Y-150527500D02*
X113102900Y-150527500D01*
X120692400Y-164895700D02*
X113747800Y-157951100D01*
X110885000Y-149339500D02*
X112073000Y-150527500D01*
X113747800Y-157951100D02*
X113243700Y-157951100D01*
%TO.N,/LOAD_SWITCHES_12V/DEN*%
X126805200Y-169383300D02*
X128331900Y-169383300D01*
X128331900Y-169383300D02*
X130217400Y-167497800D01*
X130217400Y-167497800D02*
X137680900Y-167497800D01*
X125829700Y-168407800D02*
X126805200Y-169383300D01*
X137680900Y-167497800D02*
X138241100Y-168058000D01*
X125829700Y-167049800D02*
X125829700Y-168407800D01*
%TO.N,/LOAD_SWITCHES_12V/IS1*%
X138610700Y-167146000D02*
X130071900Y-167146000D01*
X130071900Y-167146000D02*
X128223800Y-168994100D01*
X127233100Y-168994100D02*
X126943300Y-168704300D01*
X139815100Y-168350400D02*
X138610700Y-167146000D01*
X128223800Y-168994100D02*
X127233100Y-168994100D01*
%TO.N,/LOAD_SWITCHES_12V/OUT1*%
D30*
X131487100Y-168202900D02*
X134796700Y-168202900D01*
X127395000Y-172295000D02*
X131487100Y-168202900D01*
%TO.N,/CAN1_H*%
D29*
X138605700Y-139499500D02*
X153307400Y-139499500D01*
X137064700Y-141040500D02*
X138605700Y-139499500D01*
X162761700Y-134421800D02*
X162780300Y-134440400D01*
X164997100Y-134440400D02*
X175848600Y-123588900D01*
X158385100Y-134421800D02*
X162761700Y-134421800D01*
X183194100Y-121447300D02*
X183194100Y-121931800D01*
X175848600Y-123588900D02*
X177479100Y-123588900D01*
X122586400Y-141040500D02*
X137064700Y-141040500D01*
X181408400Y-123717500D02*
X180721600Y-123717500D01*
X153307400Y-139499500D02*
X158385100Y-134421800D01*
X183194100Y-121931800D02*
X181408400Y-123717500D01*
X162780300Y-134440400D02*
X164997100Y-134440400D01*
%TO.N,/CAN1_L*%
X180803800Y-127460800D02*
X180803800Y-129688900D01*
X138946700Y-144989300D02*
X138389300Y-145546700D01*
X138389300Y-145546700D02*
X137600800Y-145546700D01*
X183784500Y-124480100D02*
X180803800Y-127460800D01*
X152457900Y-146894100D02*
X149464400Y-143900600D01*
X134892500Y-142838400D02*
X120237300Y-142838400D01*
X183247900Y-120465700D02*
X183784500Y-121002300D01*
X183247900Y-108581800D02*
X183247900Y-120465700D01*
X187113800Y-104715900D02*
X183247900Y-108581800D01*
X180803800Y-129688900D02*
X163598600Y-146894100D01*
X163598600Y-146894100D02*
X152457900Y-146894100D01*
X183784500Y-121002300D02*
X183784500Y-124480100D01*
X149464400Y-143900600D02*
X139246600Y-143900600D01*
X138946700Y-144200500D02*
X138946700Y-144989300D01*
X137600800Y-145546700D02*
X134892500Y-142838400D01*
X139246600Y-143900600D02*
X138946700Y-144200500D01*
%TO.N,/CAN_AND_SENSORS/FLOW_IN*%
X176110200Y-118587700D02*
X178964900Y-121442400D01*
X172208200Y-119417500D02*
X173038000Y-118587700D01*
X172208200Y-119951100D02*
X172208200Y-119417500D01*
X178964900Y-121442400D02*
X179153200Y-121442400D01*
X173038000Y-118587700D02*
X176110200Y-118587700D01*
X185804000Y-102372400D02*
X187305300Y-100871100D01*
X185804000Y-105168400D02*
X185804000Y-102372400D01*
%TO.N,/LOAD_SWITCHES_12V/V12_HEAT*%
D30*
X184840800Y-167956900D02*
X185895000Y-169011100D01*
X179348800Y-167956900D02*
X184840800Y-167956900D01*
%TO.N,/ESC_PWM6*%
D29*
X159475300Y-102642000D02*
X167484100Y-110650800D01*
X176272700Y-114782400D02*
X176272700Y-116957800D01*
X111266700Y-102363300D02*
X150592700Y-102363300D01*
X158347600Y-96001600D02*
X159475300Y-97129300D01*
X172141100Y-110650800D02*
X176272700Y-114782400D01*
X159475300Y-97129300D02*
X159475300Y-102642000D01*
X155054500Y-97901500D02*
X155517400Y-97901500D01*
X155517400Y-97901500D02*
X155840600Y-97578300D01*
X155840600Y-97115400D02*
X156954400Y-96001600D01*
X102715000Y-110915000D02*
X111266700Y-102363300D01*
X176272700Y-116957800D02*
X179164500Y-119849600D01*
X155840600Y-97578300D02*
X155840600Y-97115400D01*
X156954400Y-96001600D02*
X158347600Y-96001600D01*
X150592700Y-102363300D02*
X155054500Y-97901500D01*
X167484100Y-110650800D02*
X172141100Y-110650800D01*
%TO.N,/AI_PWR_EN*%
X158004200Y-168665300D02*
X160784100Y-165885400D01*
X160924600Y-165744900D02*
X164369300Y-165744900D01*
X170157900Y-175742900D02*
X173500600Y-175742900D01*
X160784100Y-165885400D02*
X160924600Y-165744900D01*
X165465200Y-171050200D02*
X170157900Y-175742900D01*
X164369300Y-165744900D02*
X165465200Y-166840800D01*
X165465200Y-166840800D02*
X165465200Y-171050200D01*
X150572100Y-168665300D02*
X158004200Y-168665300D01*
X149222800Y-167316000D02*
X150572100Y-168665300D01*
%TO.N,/ETHERNET/E1_TXP*%
X106495500Y-88956000D02*
X105556500Y-89895000D01*
X108217100Y-84351200D02*
X106495500Y-86072800D01*
X104943300Y-89895000D02*
X103985000Y-90853300D01*
X103985000Y-93996000D02*
X101595000Y-96386000D01*
X103985000Y-90853300D02*
X103985000Y-93996000D01*
X105556500Y-89895000D02*
X104943300Y-89895000D01*
X101595000Y-96386000D02*
X101595000Y-121879400D01*
X106495500Y-86072800D02*
X106495500Y-88956000D01*
X101595000Y-121879400D02*
X103730300Y-124014700D01*
X105995000Y-153542100D02*
X103816700Y-151363800D01*
%TO.N,/AI_COMPUTE_INTERFACE/AI_TX_C*%
X118302200Y-157283400D02*
X118302200Y-158543800D01*
X118302200Y-158543800D02*
X118797500Y-159039100D01*
%TO.N,/AI_COMPUTE_INTERFACE/AI_RX_C*%
X119167400Y-158307600D02*
X120866200Y-160006400D01*
X120866200Y-160006400D02*
X120866200Y-163995500D01*
X120866200Y-163995500D02*
X121208000Y-164337300D01*
%TO.N,/AI_COMPUTE_INTERFACE/WDI_C*%
X143758800Y-165868800D02*
X122121900Y-165868800D01*
X144250100Y-166360100D02*
X143758800Y-165868800D01*
%TO.N,/AI_COMPUTE_INTERFACE/ARM_C*%
X126355300Y-162499300D02*
X127472600Y-163616600D01*
X127472600Y-163616600D02*
X144570100Y-163616600D01*
X121800000Y-162499300D02*
X126355300Y-162499300D01*
%TO.N,/POWER_CONVERSION/AI_UV*%
X144311700Y-151014900D02*
X144311700Y-158763500D01*
X133054900Y-156234700D02*
X131072500Y-156234700D01*
X134402800Y-157582600D02*
X133054900Y-156234700D01*
X120564600Y-158074500D02*
X118348300Y-155858200D01*
X144311700Y-158763500D02*
X144376800Y-158828600D01*
X120564600Y-158323200D02*
X120564600Y-158074500D01*
X144376800Y-158828600D02*
X142412900Y-160792500D01*
X122299500Y-160058100D02*
X120564600Y-158323200D01*
X118348300Y-155858200D02*
X115937000Y-155858200D01*
X134402800Y-158094300D02*
X134402800Y-157582600D01*
X137101000Y-160792500D02*
X134402800Y-158094300D01*
X142412900Y-160792500D02*
X137101000Y-160792500D01*
X144376800Y-158828600D02*
X146468300Y-160920100D01*
X127249100Y-160058100D02*
X122299500Y-160058100D01*
X131072500Y-156234700D02*
X127249100Y-160058100D01*
%TO.N,/POWER_CONVERSION/VIN_AI*%
D32*
X161509000Y-131575400D02*
X165302400Y-127782000D01*
X167797500Y-127782000D02*
X168620200Y-128604700D01*
X159578000Y-131575400D02*
X161509000Y-131575400D01*
X165302400Y-127782000D02*
X167797500Y-127782000D01*
%TO.N,/POWER_CONVERSION/VIN_AI_F*%
X117025000Y-97525000D02*
X119026700Y-97525000D01*
X143776000Y-122545600D02*
X140220000Y-118989600D01*
X120628200Y-99126500D02*
X129308600Y-99126500D01*
X160345000Y-122545600D02*
X143776000Y-122545600D01*
X119026700Y-97525000D02*
X120628200Y-99126500D01*
%TO.N,/LOAD_SWITCHES_12V/V12_FAN*%
D30*
X155895000Y-172295000D02*
X161719000Y-166471000D01*
X161719000Y-166471000D02*
X164094400Y-166471000D01*
%TO.N,/FLIGHT_CONTROL_IO/MODE_B_C*%
D29*
X124560200Y-156649800D02*
X126888400Y-156649800D01*
X119159600Y-151249200D02*
X124560200Y-156649800D01*
%TO.N,/CAN_AND_SENSORS/C2H*%
X187857000Y-81130700D02*
X183327100Y-76600800D01*
X187857000Y-115877500D02*
X187857000Y-81130700D01*
X183813700Y-119920800D02*
X187857000Y-115877500D01*
%TO.N,/CAN_AND_SENSORS/C2L*%
X181970300Y-127849200D02*
X186572300Y-123247200D01*
X186572300Y-123247200D02*
X188495000Y-123247200D01*
X178935700Y-150035200D02*
X178935700Y-153879400D01*
X178935700Y-153879400D02*
X182991000Y-157934700D01*
%TO.N,/CAN_AND_SENSORS/LEVEL_IN*%
X186595700Y-97989100D02*
X185350800Y-96744200D01*
X186595700Y-98517400D02*
X186595700Y-97989100D01*
X181015200Y-104097900D02*
X186595700Y-98517400D01*
X185350800Y-96744200D02*
X183324000Y-96744200D01*
X162342800Y-104097900D02*
X181015200Y-104097900D01*
%TO.N,/POWER_CONVERSION/AI_SNS*%
D33*
X135116200Y-132553000D02*
X128440200Y-139229000D01*
X128440200Y-139229000D02*
X118841800Y-139229000D01*
X135799400Y-132553000D02*
X135116200Y-132553000D01*
X118841800Y-139229000D02*
X118237500Y-138624700D01*
%TO.N,/POWER_CONVERSION/V12_AI*%
X163095000Y-143910100D02*
X161192700Y-145812400D01*
X180518800Y-122150200D02*
X179469900Y-123199100D01*
X180966700Y-119144900D02*
X180518800Y-119592800D01*
X163095000Y-140000200D02*
X163095000Y-143910100D01*
X180180600Y-108058700D02*
X180966700Y-108844800D01*
X180966700Y-108844800D02*
X180966700Y-119144900D01*
X161192700Y-145812400D02*
X153258200Y-145812400D01*
X166895000Y-108058700D02*
X180180600Y-108058700D01*
X153258200Y-145812400D02*
X149040800Y-141595000D01*
X179469900Y-123199100D02*
X179469900Y-123625300D01*
X179469900Y-123625300D02*
X163095000Y-140000200D01*
X180518800Y-119592800D02*
X180518800Y-122150200D01*
X149040800Y-141595000D02*
X142995000Y-141595000D01*
%TO.N,/VIN_PROT*%
D32*
X148220000Y-118917100D02*
X153720000Y-118917100D01*
X137983400Y-119668400D02*
X145967400Y-127652400D01*
X138996400Y-117674900D02*
X137983400Y-118687900D01*
X117313500Y-127604100D02*
X115244700Y-125535300D01*
X164983000Y-112181000D02*
X165697500Y-112181000D01*
X117025000Y-70025000D02*
X119026700Y-70025000D01*
X158246900Y-118917100D02*
X164983000Y-112181000D01*
X146977800Y-117674900D02*
X138996400Y-117674900D01*
X145967400Y-131937400D02*
X145056000Y-132848800D01*
X145967400Y-127652400D02*
X145967400Y-131937400D01*
X143727600Y-132848800D02*
X138482900Y-127604100D01*
X137983400Y-118687900D02*
X137983400Y-119668400D01*
X127946600Y-60354500D02*
X119026700Y-69274400D01*
X145056000Y-132848800D02*
X143727600Y-132848800D01*
X166895000Y-72459100D02*
X154790400Y-60354500D01*
X138482900Y-127604100D02*
X117313500Y-127604100D01*
X119026700Y-69274400D02*
X119026700Y-70025000D01*
X148220000Y-118917100D02*
X146977800Y-117674900D01*
X153720000Y-118917100D02*
X158246900Y-118917100D01*
X154790400Y-60354500D02*
X127946600Y-60354500D01*
X153720000Y-118917100D02*
X153720000Y-118979300D01*
%TO.N,/CAMERAS/V12_CAMF*%
D30*
X123295000Y-137395000D02*
X123173000Y-137273000D01*
X123173000Y-137273000D02*
X112190700Y-137273000D01*
X112190700Y-137273000D02*
X111706200Y-137757500D01*
X123295000Y-137395000D02*
X126924800Y-133765200D01*
%TO.N,/POWER_CONVERSION/V12AI_RAW*%
D33*
X133881800Y-120561500D02*
X155490100Y-98953200D01*
X155490100Y-98953200D02*
X156236800Y-98953200D01*
X133881800Y-120561500D02*
X132811500Y-120561500D01*
X132811500Y-120561500D02*
X132512900Y-120262900D01*
X128837600Y-120262900D02*
X125546300Y-123554200D01*
X156236800Y-98953200D02*
X157665000Y-97525000D01*
X113873200Y-123554200D02*
X110626000Y-126801400D01*
X144415000Y-131292800D02*
X144415000Y-131094700D01*
X125546300Y-123554200D02*
X113873200Y-123554200D01*
X144415000Y-131094700D02*
X133881800Y-120561500D01*
X132512900Y-120262900D02*
X128837600Y-120262900D01*
%TO.N,/POWER_CONVERSION/AI_OV*%
D29*
X115361500Y-150148600D02*
X122051600Y-150148600D01*
X122051600Y-150148600D02*
X124637200Y-152734200D01*
%TO.N,/POWER_CONVERSION/AI_PGOOD*%
X112197600Y-149865000D02*
X113795000Y-148267600D01*
X113795000Y-148267600D02*
X116941300Y-148267600D01*
%TO.N,/PUMP_PWM*%
X102378100Y-142225000D02*
X101594800Y-141441700D01*
X103028500Y-142225000D02*
X102378100Y-142225000D01*
X104002300Y-150544300D02*
X104002300Y-143198800D01*
X101594800Y-141441700D02*
X101594800Y-134455200D01*
X104002300Y-143198800D02*
X103028500Y-142225000D01*
X101594800Y-134455200D02*
X102715000Y-133335000D01*
X117514500Y-164056500D02*
X104002300Y-150544300D01*
%TO.N,/FAN_CTL*%
X112471600Y-138345300D02*
X112352700Y-138464200D01*
X133368000Y-140331100D02*
X118043900Y-140331100D01*
X111417200Y-138464200D02*
X110654400Y-137701400D01*
X110654400Y-135035200D02*
X109545400Y-133926200D01*
X109545400Y-133926200D02*
X104663800Y-133926200D01*
X112352700Y-138464200D02*
X111417200Y-138464200D01*
X118043900Y-140331100D02*
X116058100Y-138345300D01*
X116058100Y-138345300D02*
X112471600Y-138345300D01*
X104663800Y-133926200D02*
X102715000Y-135875000D01*
X110654400Y-137701400D02*
X110654400Y-135035200D01*
%TO.N,/HEATER_CTL*%
X123251300Y-146651400D02*
X142925500Y-146651400D01*
X146259200Y-148065300D02*
X145997600Y-148326900D01*
X110302700Y-135249700D02*
X110302700Y-137847000D01*
X110302700Y-137847000D02*
X111321500Y-138865800D01*
X116582200Y-139982300D02*
X123251300Y-146651400D01*
X116582200Y-139462800D02*
X116582200Y-139982300D01*
X145287600Y-146140000D02*
X146259200Y-147111600D01*
X106800700Y-134329300D02*
X109382300Y-134329300D01*
X112755500Y-138733900D02*
X115853300Y-138733900D01*
X111321500Y-138865800D02*
X112623600Y-138865800D01*
X143436900Y-146140000D02*
X145287600Y-146140000D01*
X142925500Y-146651400D02*
X143436900Y-146140000D01*
X102715000Y-138415000D02*
X106800700Y-134329300D01*
X115853300Y-138733900D02*
X116582200Y-139462800D01*
X146259200Y-147111600D02*
X146259200Y-148065300D01*
X112623600Y-138865800D02*
X112755500Y-138733900D01*
X109382300Y-134329300D02*
X110302700Y-135249700D01*
%TO.N,/CAM_TRIG*%
X102715000Y-140955000D02*
X103133800Y-140955000D01*
X103133800Y-140955000D02*
X109170600Y-134918200D01*
%TO.N,/CAN_AND_SENSORS/PRESS_IN*%
X181015800Y-104594600D02*
X186947400Y-98663000D01*
X186947400Y-86812700D02*
X185980500Y-85845800D01*
X172925600Y-104594600D02*
X181015800Y-104594600D01*
X171345400Y-106174800D02*
X172925600Y-104594600D01*
X186947400Y-98663000D02*
X186947400Y-86812700D01*
%TO.N,/ESC_PWM2*%
X174655800Y-87523400D02*
X180795000Y-81384200D01*
X115946600Y-87523400D02*
X174655800Y-87523400D01*
X102715000Y-100755000D02*
X115946600Y-87523400D01*
%TO.N,/TEMP_ALERT_N*%
X160099400Y-160768200D02*
X161961400Y-160768200D01*
X156944000Y-163923600D02*
X160099400Y-160768200D01*
%TO.N,/CAMERAS/V12_CAMD*%
D30*
X107060100Y-146835100D02*
X111500200Y-142395000D01*
X111500200Y-142395000D02*
X115295000Y-142395000D01*
%TO.N,/LOAD_SWITCHES_12V/PUMP_C*%
D29*
X145949000Y-164423900D02*
X124170700Y-164423900D01*
X148252800Y-162120100D02*
X145949000Y-164423900D01*
X124170700Y-164423900D02*
X123865000Y-164118200D01*
%TO.N,/ESC_PWM3*%
X102715000Y-103295000D02*
X114584700Y-91425300D01*
X179817100Y-91425300D02*
X180620500Y-90621900D01*
X114584700Y-91425300D02*
X179817100Y-91425300D01*
%TO.N,/LOAD_SWITCHES_12V/IS2*%
X149219100Y-166494300D02*
X154780100Y-160933300D01*
X154780100Y-160933300D02*
X156378100Y-160933300D01*
%TO.N,/AI_WDI*%
X145609700Y-167610500D02*
X145230600Y-167989600D01*
X162905800Y-174125200D02*
X163697500Y-173333500D01*
X146026900Y-174125200D02*
X162905800Y-174125200D01*
X145230600Y-173328900D02*
X146026900Y-174125200D01*
X145230600Y-167989600D02*
X145230600Y-173328900D01*
%TO.N,/AI_COMPUTE_INTERFACE/USB_DN*%
X113035900Y-169738200D02*
X111355100Y-168057400D01*
X113035900Y-170801000D02*
X113035900Y-169738200D01*
X115595000Y-173360100D02*
X113035900Y-170801000D01*
X111355100Y-168057400D02*
X106008300Y-168057400D01*
%TO.N,/AI_COMPUTE_INTERFACE/USB_VBUS*%
X109165600Y-162293600D02*
X110556800Y-160902400D01*
X108668300Y-165370600D02*
X107985200Y-166053700D01*
X109165600Y-165370600D02*
X109165600Y-162293600D01*
X114485300Y-171452900D02*
X114485300Y-170690300D01*
X109165600Y-165370600D02*
X108668300Y-165370600D01*
X114485300Y-170690300D02*
X109165600Y-165370600D01*
%TO.N,/ESC_PWM5*%
X158493200Y-95649900D02*
X115198500Y-95649900D01*
X159950600Y-97107300D02*
X158493200Y-95649900D01*
X102715000Y-108133400D02*
X102715000Y-108375000D01*
X115198500Y-95649900D02*
X102715000Y-108133400D01*
X159950600Y-102620000D02*
X159950600Y-97107300D01*
X179701400Y-109422900D02*
X166753500Y-109422900D01*
X166753500Y-109422900D02*
X159950600Y-102620000D01*
%TO.N,/POWER_CONVERSION/PG5*%
X173282000Y-120253000D02*
X172612500Y-120922500D01*
X172612500Y-120922500D02*
X172612500Y-122914800D01*
X173282000Y-119142000D02*
X173282000Y-120253000D01*
%TO.N,/ETHERNET/V5_ETH*%
D31*
X141990200Y-97349800D02*
X138879800Y-100460200D01*
X105255000Y-88625000D02*
X102715000Y-88625000D01*
X155288900Y-97349800D02*
X141990200Y-97349800D01*
X138879800Y-100460200D02*
X111168400Y-100460200D01*
X111168400Y-100460200D02*
X106954700Y-104673900D01*
%TO.N,/AI_WD_ARM*%
D29*
X183822800Y-177037900D02*
X168369900Y-177037900D01*
X165115400Y-173783400D02*
X164113100Y-172781100D01*
X164113100Y-172781100D02*
X163435500Y-172781100D01*
X184829600Y-176031100D02*
X183822800Y-177037900D01*
X147660000Y-173604700D02*
X147587900Y-173532600D01*
X163435500Y-172781100D02*
X162611900Y-173604700D01*
X162611900Y-173604700D02*
X147660000Y-173604700D01*
X168369900Y-177037900D02*
X165115400Y-173783400D01*
%TO.N,/ADC_PRESS*%
X144885000Y-147626500D02*
X144885000Y-147123500D01*
X137469400Y-159817300D02*
X137469400Y-155042100D01*
X148625600Y-132670500D02*
X156990000Y-124306100D01*
X137469400Y-155042100D02*
X144885000Y-147626500D01*
X160444000Y-124306100D02*
X163086200Y-121663900D01*
X156990000Y-124306100D02*
X160444000Y-124306100D01*
%TO.N,/ADC_LEVEL*%
X136951700Y-156197700D02*
X136951700Y-154762400D01*
X151914000Y-139080000D02*
X137014100Y-139080000D01*
X137014100Y-139080000D02*
X135627000Y-140467100D01*
X158718000Y-132276000D02*
X151914000Y-139080000D01*
X136951700Y-154762400D02*
X142590200Y-149123900D01*
X135435300Y-157714100D02*
X136951700Y-156197700D01*
%TO.N,/FLOW_CAP*%
X145699800Y-147092400D02*
X145699800Y-147574200D01*
X135634900Y-155999200D02*
X135634900Y-155222000D01*
X135634900Y-155222000D02*
X144344200Y-146512700D01*
X145120100Y-146512700D02*
X145699800Y-147092400D01*
X144344200Y-146512700D02*
X145120100Y-146512700D01*
%TO.N,/FLIGHT_CONTROL_IO/MODE_A*%
X129418900Y-160748700D02*
X129418900Y-161623100D01*
X132819400Y-157348200D02*
X129418900Y-160748700D01*
%TO.N,/POWER_INPUT_14S/GATE*%
X122605000Y-119707900D02*
X114076000Y-119707900D01*
X126323500Y-115989400D02*
X122605000Y-119707900D01*
X114076000Y-119707900D02*
X113995000Y-119626900D01*
X136679700Y-115989400D02*
X126323500Y-115989400D01*
%TO.N,/POWER_INPUT_14S/SNS*%
D32*
X165489600Y-135342100D02*
X166059200Y-134772500D01*
X158777200Y-135342100D02*
X165489600Y-135342100D01*
X158758600Y-135323500D02*
X158777200Y-135342100D01*
X131548900Y-138314800D02*
X136330000Y-138314800D01*
X136330000Y-138314800D02*
X140721400Y-133923400D01*
%TO.N,/AI_COMPUTE_INTERFACE/CC1*%
D29*
X108389900Y-169714700D02*
X108302300Y-169802300D01*
X105330100Y-169802300D02*
X105015000Y-169487200D01*
X108302300Y-169802300D02*
X105330100Y-169802300D01*
X112225600Y-169714700D02*
X108389900Y-169714700D01*
%TO.N,/AI_COMPUTE_INTERFACE/CC2*%
X111199400Y-168701000D02*
X108564500Y-168701000D01*
X108564500Y-168701000D02*
X108015000Y-169250500D01*
%TO.N,/LOAD_SWITCHES_12V/IS3*%
X151549900Y-154470000D02*
X155593900Y-158514000D01*
X145732500Y-154470000D02*
X151549900Y-154470000D01*
X144951500Y-155251000D02*
X145732500Y-154470000D01*
%TO.N,/ESC_PWM4*%
X113251800Y-95298200D02*
X158638800Y-95298200D01*
X158638800Y-95298200D02*
X163643100Y-100302500D01*
X163643100Y-100302500D02*
X180795000Y-100302500D01*
X102715000Y-105835000D02*
X113251800Y-95298200D01*
%TO.N,/POWER_INPUT_14S/VIN_F*%
D32*
X165801600Y-130890900D02*
X167271400Y-130890900D01*
X163153800Y-133538700D02*
X165801600Y-130890900D01*
%TO.N,/FLIGHT_CONTROL_IO/FTS_C*%
D29*
X112088000Y-141038100D02*
X112088000Y-141038000D01*
X126668800Y-155345800D02*
X126668800Y-151580700D01*
X116126200Y-141038100D02*
X112088000Y-141038100D01*
X126668800Y-151580700D02*
X116126200Y-141038100D01*
X112088000Y-141038000D02*
X111702700Y-140652700D01*
%TO.N,/LOAD_SWITCHES_12V/OUT3*%
D30*
X150796700Y-156290000D02*
X150796700Y-163583100D01*
X150796700Y-163583100D02*
X148300100Y-166079700D01*
X148300100Y-170389900D02*
X146395000Y-172295000D01*
X148300100Y-166079700D02*
X148300100Y-170389900D01*
%TO.N,/FLIGHT_CONTROL_IO/MODE_A_C*%
D29*
X123727400Y-159345100D02*
X126477900Y-159345100D01*
X126477900Y-159345100D02*
X126946300Y-158876700D01*
X116691600Y-152309300D02*
X123727400Y-159345100D01*
%TO.N,/WATCHDOG_DIAGNOSTICS/SET0*%
X168718300Y-176486200D02*
X182012100Y-176486200D01*
X182012100Y-176486200D02*
X186245000Y-172253300D01*
%TO.N,/POWER_INPUT_14S/TMR*%
X176291700Y-124938500D02*
X173941100Y-127289100D01*
X173941100Y-127289100D02*
X173941100Y-127313400D01*
%TO.N,/SBUS*%
X137618400Y-86717600D02*
X113551800Y-86717600D01*
X137716000Y-86620000D02*
X137618400Y-86717600D01*
X113551800Y-86717600D02*
X110689800Y-83855600D01*
%TO.N,/LOAD_SWITCHES_12V/IN3*%
X114111300Y-155302300D02*
X112631300Y-156782300D01*
X141956100Y-158429000D02*
X139986500Y-160398600D01*
X130728300Y-155883000D02*
X126905000Y-159706300D01*
X133200500Y-155883000D02*
X130728300Y-155883000D01*
X134754500Y-157945000D02*
X134754500Y-157437000D01*
X112631300Y-156782300D02*
X112631300Y-156894400D01*
X137208100Y-160398600D02*
X134754500Y-157945000D01*
X119175400Y-155302300D02*
X114111300Y-155302300D01*
X123579400Y-159706300D02*
X119175400Y-155302300D01*
X126905000Y-159706300D02*
X123579400Y-159706300D01*
X134754500Y-157437000D02*
X133200500Y-155883000D01*
X139986500Y-160398600D02*
X137208100Y-160398600D01*
%TO.N,/LOAD_SWITCHES_12V/IN2*%
X131250300Y-156586400D02*
X132838500Y-156586400D01*
X120089000Y-158454600D02*
X122044200Y-160409800D01*
X132838500Y-156586400D02*
X133927200Y-157675100D01*
X118284200Y-156415200D02*
X120089000Y-158220000D01*
X122044200Y-160409800D02*
X127426900Y-160409800D01*
X127426900Y-160409800D02*
X131250300Y-156586400D01*
X133927200Y-157675100D02*
X133927200Y-158312500D01*
X114006300Y-156187400D02*
X114234100Y-156415200D01*
X120089000Y-158220000D02*
X120089000Y-158454600D01*
X133927200Y-158312500D02*
X137553200Y-161938500D01*
X114234100Y-156415200D02*
X118284200Y-156415200D01*
%TO.N,/LOAD_SWITCHES_12V/OUT2*%
D30*
X144331800Y-167315200D02*
X143340000Y-168307000D01*
X143340000Y-168307000D02*
X140833000Y-168307000D01*
X137145700Y-172295000D02*
X140833000Y-168607700D01*
X136895000Y-172295000D02*
X137145700Y-172295000D01*
X140833000Y-168607700D02*
X140833000Y-168307000D01*
%TO.N,/ETHERNET/E2_TXN*%
D29*
X104687100Y-161498500D02*
X100865000Y-157676400D01*
X100865000Y-78703800D02*
X102373800Y-77195000D01*
X100865000Y-157676400D02*
X100865000Y-78703800D01*
X103985000Y-76214400D02*
X103985000Y-69575000D01*
X102373800Y-77195000D02*
X103004400Y-77195000D01*
X103004400Y-77195000D02*
X103985000Y-76214400D01*
X103985000Y-69575000D02*
X105255000Y-68305000D01*
%TO.N,/ETHERNET/E3_TXN*%
X106366500Y-74496500D02*
X106366500Y-78911600D01*
X105711400Y-79566700D02*
X105068500Y-79566700D01*
X103874400Y-80760800D02*
X103874400Y-81445300D01*
X105068500Y-79566700D02*
X103874400Y-80760800D01*
X103044700Y-82275000D02*
X102421000Y-82275000D01*
X101222700Y-83473300D02*
X101222700Y-151785600D01*
X102421000Y-82275000D02*
X101222700Y-83473300D01*
X101222700Y-151785600D02*
X102960600Y-153523500D01*
X106366500Y-78911600D02*
X105711400Y-79566700D01*
X105255000Y-73385000D02*
X106366500Y-74496500D01*
X103874400Y-81445300D02*
X103044700Y-82275000D01*
%TO.N,/ETHERNET/E4_RXN*%
X105318300Y-150478900D02*
X107377000Y-152537600D01*
X107427300Y-91372600D02*
X108455400Y-92400700D01*
X107427300Y-87526900D02*
X107427300Y-91372600D01*
X105318300Y-139815100D02*
X105318300Y-150478900D01*
X107017200Y-138116200D02*
X105318300Y-139815100D01*
%TO.N,/ETHERNET/E5_TXP*%
X102715000Y-83545000D02*
X103985000Y-82275000D01*
X130393800Y-62457700D02*
X130393800Y-63586600D01*
X129295900Y-61359800D02*
X130393800Y-62457700D01*
X120688400Y-69647900D02*
X120688400Y-68896100D01*
X103985000Y-82275000D02*
X108061300Y-82275000D01*
X120688400Y-68896100D02*
X128224700Y-61359800D01*
X128224700Y-61359800D02*
X129295900Y-61359800D01*
X108061300Y-82275000D02*
X120688400Y-69647900D01*
%TO.N,/ETHERNET/E5_TXN*%
X121040100Y-69047100D02*
X121040100Y-69794800D01*
X128324100Y-61763100D02*
X121040100Y-69047100D01*
X105703900Y-83096100D02*
X105255000Y-83545000D01*
X129342100Y-62193800D02*
X128911400Y-61763100D01*
X121040100Y-69794800D02*
X107738800Y-83096100D01*
X128911400Y-61763100D02*
X128324100Y-61763100D01*
X107738800Y-83096100D02*
X105703900Y-83096100D01*
%TO.N,/ETHERNET/E5_RXP*%
X121391800Y-69488000D02*
X121391800Y-70014300D01*
X103985000Y-84815000D02*
X102715000Y-86085000D01*
X106475900Y-84815000D02*
X103985000Y-84815000D01*
X128550000Y-62329800D02*
X121391800Y-69488000D01*
X107958300Y-83447800D02*
X107843100Y-83447800D01*
X107843100Y-83447800D02*
X106475900Y-84815000D01*
X121391800Y-70014300D02*
X107958300Y-83447800D01*
%TO.N,/ETHERNET/E5_RXN*%
X108279300Y-83799500D02*
X107988700Y-83799500D01*
X124170000Y-67908800D02*
X108279300Y-83799500D01*
X107988700Y-83799500D02*
X105703200Y-86085000D01*
X105703200Y-86085000D02*
X105255000Y-86085000D01*
%TO.N,/WATCHDOG_DIAGNOSTICS/CWD*%
X171642100Y-173702500D02*
X168897600Y-173702500D01*
X172089800Y-174150200D02*
X171642100Y-173702500D01*
%TO.N,/WATCHDOG_DIAGNOSTICS/SET1*%
X186245000Y-175622200D02*
X183204400Y-178662800D01*
X183204400Y-178662800D02*
X172570000Y-178662800D01*
%TO.N,/CAN2_H*%
X139061000Y-145372300D02*
X145825800Y-145372300D01*
X186268300Y-125971300D02*
X187495000Y-125971300D01*
X126082900Y-145522200D02*
X126082900Y-144611800D01*
X164973400Y-147266200D02*
X186268300Y-125971300D01*
X126413700Y-144281000D02*
X135837800Y-144281000D01*
X126082900Y-144611800D02*
X126413700Y-144281000D01*
X138534900Y-145898400D02*
X139061000Y-145372300D01*
X126659900Y-146099200D02*
X126082900Y-145522200D01*
X137455200Y-145898400D02*
X138534900Y-145898400D01*
X147719700Y-147266200D02*
X164973400Y-147266200D01*
X135837800Y-144281000D02*
X137455200Y-145898400D01*
X145825800Y-145372300D02*
X147719700Y-147266200D01*
%TO.N,/CAN2_L*%
X147428200Y-147644500D02*
X165539300Y-147644500D01*
X143355600Y-145724000D02*
X145507700Y-145724000D01*
X128061000Y-146250100D02*
X142829500Y-146250100D01*
X126661700Y-144850800D02*
X128061000Y-146250100D01*
X186917600Y-127552200D02*
X188495000Y-125974800D01*
X145507700Y-145724000D02*
X147428200Y-147644500D01*
X185631600Y-127552200D02*
X186917600Y-127552200D01*
X165539300Y-147644500D02*
X185631600Y-127552200D01*
X142829500Y-146250100D02*
X143355600Y-145724000D01*
%TO.N,/AI_TX*%
X126006100Y-158746100D02*
X124497500Y-158746100D01*
X131658600Y-153884800D02*
X130867400Y-153884800D01*
X130867400Y-153884800D02*
X126006100Y-158746100D01*
%TO.N,/POWER_CONVERSION/LED_D205*%
X166098200Y-111278900D02*
X151843600Y-111278900D01*
X170139100Y-115319800D02*
X166098200Y-111278900D01*
X151843600Y-111278900D02*
X147007200Y-116115300D01*
X170139100Y-116811200D02*
X170139100Y-115319800D01*
%TO.N,/CAN_AND_SENSORS/V12_OBST*%
D30*
X174097400Y-72092800D02*
X175087200Y-71103000D01*
X175087200Y-71103000D02*
X183968700Y-71103000D01*
%TO.N,/AI_RX*%
D29*
X127543300Y-161325600D02*
X131676500Y-157192400D01*
X121227900Y-162772100D02*
X121227900Y-162220800D01*
X122594000Y-163386500D02*
X121842300Y-163386500D01*
X121842300Y-163386500D02*
X121227900Y-162772100D01*
X122123100Y-161325600D02*
X127543300Y-161325600D01*
X121227900Y-162220800D02*
X122123100Y-161325600D01*
%TO.N,/ETHERNET/E6_TXP*%
X119994000Y-119031100D02*
X120050000Y-119087100D01*
X112050000Y-119513100D02*
X112532000Y-119031100D01*
X112532000Y-119031100D02*
X119994000Y-119031100D01*
%TO.N,/ETHERNET/E6_TXN*%
X117688600Y-120183600D02*
X117813700Y-120308700D01*
X110800000Y-120183600D02*
X117688600Y-120183600D01*
%TO.N,/ETHERNET/E6_RXP*%
X122550000Y-117517900D02*
X111712700Y-117517900D01*
X111712700Y-117517900D02*
X109550000Y-119680600D01*
%TO.N,/ETHERNET/E6_RXN*%
X111548400Y-116902100D02*
X108300000Y-120150500D01*
X121300000Y-116902100D02*
X111548400Y-116902100D01*
%TO.N,/AI_COMPUTE_INTERFACE/SW_C*%
X144145100Y-165306300D02*
X147365000Y-168526200D01*
X119294900Y-164337300D02*
X120263900Y-165306300D01*
X147365000Y-168526200D02*
X147365000Y-168687800D01*
X120263900Y-165306300D02*
X144145100Y-165306300D01*
%TD*%
M02*
