%TF.GenerationSoftware,KiCad,Pcbnew,10.0.6*%
%TF.CreationDate,2026-09-27T18:23:31+00:00*%
%TF.ProjectId,AGD6.07.010,41474436-2e30-4372-9e30-31302e6b6963,rev?*%
%TF.SameCoordinates,Original*%
%TF.FileFunction,Paste,Bot*%
%TF.FilePolarity,Positive*%
%FSLAX46Y46*%
G04 Gerber Fmt 4.6, Leading zero omitted, Abs format (unit mm)*
G04 Created by KiCad (PCBNEW 10.0.6) date 2026-09-27 18:23:31*
%MOMM*%
%LPD*%
G01*
G04 APERTURE LIST*
G04 Aperture macros list*
%AMRoundRect*
0 Rectangle with rounded corners*
0 $1 Rounding radius*
0 $2 $3 $4 $5 $6 $7 $8 $9 X,Y pos of 4 corners*
0 Add a 4 corners polygon primitive as box body*
4,1,4,$2,$3,$4,$5,$6,$7,$8,$9,$2,$3,0*
0 Add four circle primitives for the rounded corners*
1,1,$1+$1,$2,$3*
1,1,$1+$1,$4,$5*
1,1,$1+$1,$6,$7*
1,1,$1+$1,$8,$9*
0 Add four rect primitives between the rounded corners*
20,1,$1+$1,$2,$3,$4,$5,0*
20,1,$1+$1,$4,$5,$6,$7,0*
20,1,$1+$1,$6,$7,$8,$9,0*
20,1,$1+$1,$8,$9,$2,$3,0*%
G04 Aperture macros list end*
%ADD10RoundRect,0.135000X0.185000X-0.135000X0.185000X0.135000X-0.185000X0.135000X-0.185000X-0.135000X0*%
%ADD11RoundRect,0.150000X0.150000X0.700000X-0.150000X0.700000X-0.150000X-0.700000X0.150000X-0.700000X0*%
%ADD12RoundRect,0.250000X0.250000X1.100000X-0.250000X1.100000X-0.250000X-1.100000X0.250000X-1.100000X0*%
%ADD13RoundRect,0.140000X0.140000X0.170000X-0.140000X0.170000X-0.140000X-0.170000X0.140000X-0.170000X0*%
%ADD14RoundRect,0.250000X0.312500X1.450000X-0.312500X1.450000X-0.312500X-1.450000X0.312500X-1.450000X0*%
%ADD15RoundRect,0.200000X0.200000X0.275000X-0.200000X0.275000X-0.200000X-0.275000X0.200000X-0.275000X0*%
%ADD16RoundRect,0.135000X0.135000X0.185000X-0.135000X0.185000X-0.135000X-0.185000X0.135000X-0.185000X0*%
%ADD17RoundRect,0.150000X0.150000X-0.587500X0.150000X0.587500X-0.150000X0.587500X-0.150000X-0.587500X0*%
%ADD18RoundRect,0.062500X-0.117500X-0.062500X0.117500X-0.062500X0.117500X0.062500X-0.117500X0.062500X0*%
%ADD19RoundRect,0.150000X0.700000X-0.150000X0.700000X0.150000X-0.700000X0.150000X-0.700000X-0.150000X0*%
%ADD20RoundRect,0.250000X1.100000X-0.250000X1.100000X0.250000X-1.100000X0.250000X-1.100000X-0.250000X0*%
%ADD21RoundRect,0.140000X0.170000X-0.140000X0.170000X0.140000X-0.170000X0.140000X-0.170000X-0.140000X0*%
%ADD22RoundRect,0.250000X0.325000X1.100000X-0.325000X1.100000X-0.325000X-1.100000X0.325000X-1.100000X0*%
%ADD23RoundRect,0.250000X1.450000X-0.312500X1.450000X0.312500X-1.450000X0.312500X-1.450000X-0.312500X0*%
%ADD24RoundRect,0.250000X0.375000X0.625000X-0.375000X0.625000X-0.375000X-0.625000X0.375000X-0.625000X0*%
%ADD25RoundRect,0.225000X0.250000X-0.225000X0.250000X0.225000X-0.250000X0.225000X-0.250000X-0.225000X0*%
%ADD26RoundRect,0.250000X1.000000X0.650000X-1.000000X0.650000X-1.000000X-0.650000X1.000000X-0.650000X0*%
%ADD27RoundRect,0.250000X0.475000X-0.250000X0.475000X0.250000X-0.475000X0.250000X-0.475000X-0.250000X0*%
%ADD28RoundRect,0.250000X0.450000X-0.262500X0.450000X0.262500X-0.450000X0.262500X-0.450000X-0.262500X0*%
%ADD29RoundRect,0.112500X0.112500X-0.187500X0.112500X0.187500X-0.112500X0.187500X-0.112500X-0.187500X0*%
%ADD30RoundRect,0.250000X0.250000X0.475000X-0.250000X0.475000X-0.250000X-0.475000X0.250000X-0.475000X0*%
%ADD31RoundRect,0.250000X0.625000X-0.375000X0.625000X0.375000X-0.625000X0.375000X-0.625000X-0.375000X0*%
%ADD32RoundRect,0.250000X0.262500X0.450000X-0.262500X0.450000X-0.262500X-0.450000X0.262500X-0.450000X0*%
%ADD33RoundRect,0.218750X0.218750X0.256250X-0.218750X0.256250X-0.218750X-0.256250X0.218750X-0.256250X0*%
%ADD34RoundRect,0.250000X1.100000X-0.325000X1.100000X0.325000X-1.100000X0.325000X-1.100000X-0.325000X0*%
%ADD35RoundRect,0.150000X0.587500X0.150000X-0.587500X0.150000X-0.587500X-0.150000X0.587500X-0.150000X0*%
%ADD36RoundRect,0.250000X1.000000X0.900000X-1.000000X0.900000X-1.000000X-0.900000X1.000000X-0.900000X0*%
%ADD37RoundRect,0.225000X0.225000X0.250000X-0.225000X0.250000X-0.225000X-0.250000X0.225000X-0.250000X0*%
%ADD38RoundRect,0.062500X-0.062500X0.117500X-0.062500X-0.117500X0.062500X-0.117500X0.062500X0.117500X0*%
%ADD39RoundRect,0.200000X0.275000X-0.200000X0.275000X0.200000X-0.275000X0.200000X-0.275000X-0.200000X0*%
%ADD40RoundRect,0.250000X0.650000X-1.000000X0.650000X1.000000X-0.650000X1.000000X-0.650000X-1.000000X0*%
%ADD41RoundRect,0.150000X-0.700000X0.150000X-0.700000X-0.150000X0.700000X-0.150000X0.700000X0.150000X0*%
%ADD42RoundRect,0.250000X-1.100000X0.250000X-1.100000X-0.250000X1.100000X-0.250000X1.100000X0.250000X0*%
G04 APERTURE END LIST*
D10*
%TO.C,R601*%
X123915000Y-162885000D03*
X123915000Y-161865000D03*
%TD*%
D11*
%TO.C,J305*%
X135550000Y-125795000D03*
X134300000Y-125795000D03*
X133050000Y-125795000D03*
X131800000Y-125795000D03*
X130550000Y-125795000D03*
X129300000Y-125795000D03*
D12*
X137400000Y-128995000D03*
X127450000Y-128995000D03*
%TD*%
D13*
%TO.C,C821*%
X170835000Y-157905000D03*
X169875000Y-157905000D03*
%TD*%
%TO.C,C703*%
X170335000Y-177905000D03*
X169375000Y-177905000D03*
%TD*%
D14*
%TO.C,F1001*%
X166032500Y-121395000D03*
X161757500Y-121395000D03*
%TD*%
D10*
%TO.C,R851*%
X145415000Y-152885000D03*
X145415000Y-151865000D03*
%TD*%
D13*
%TO.C,C804*%
X152335000Y-166405000D03*
X151375000Y-166405000D03*
%TD*%
D15*
%TO.C,R102*%
X172750000Y-131675000D03*
X171100000Y-131675000D03*
%TD*%
D16*
%TO.C,R204*%
X140885000Y-124915000D03*
X139865000Y-124915000D03*
%TD*%
D13*
%TO.C,C101*%
X175835000Y-125905000D03*
X174875000Y-125905000D03*
%TD*%
D17*
%TO.C,D411*%
X177595000Y-95812500D03*
X175695000Y-95812500D03*
X176645000Y-93937500D03*
%TD*%
D16*
%TO.C,R807*%
X169385000Y-161915000D03*
X168365000Y-161915000D03*
%TD*%
%TO.C,R823*%
X157385000Y-159915000D03*
X156365000Y-159915000D03*
%TD*%
%TO.C,R702*%
X164385000Y-159915000D03*
X163365000Y-159915000D03*
%TD*%
D18*
%TO.C,D601*%
X122115000Y-161895000D03*
X121275000Y-161895000D03*
%TD*%
D10*
%TO.C,R212*%
X169415000Y-117385000D03*
X169415000Y-116365000D03*
%TD*%
D16*
%TO.C,R603*%
X114385000Y-120415000D03*
X113365000Y-120415000D03*
%TD*%
D19*
%TO.C,J415*%
X184495000Y-106795000D03*
X184495000Y-105545000D03*
X184495000Y-104295000D03*
D20*
X181295000Y-108645000D03*
X181295000Y-102445000D03*
%TD*%
D18*
%TO.C,D901*%
X117115000Y-127895000D03*
X116275000Y-127895000D03*
%TD*%
D21*
%TO.C,C831*%
X171905000Y-155835000D03*
X171905000Y-154875000D03*
%TD*%
D10*
%TO.C,R605*%
X145415000Y-166885000D03*
X145415000Y-165865000D03*
%TD*%
%TO.C,R304*%
X128415000Y-161885000D03*
X128415000Y-160865000D03*
%TD*%
D13*
%TO.C,C811*%
X170335000Y-159905000D03*
X169375000Y-159905000D03*
%TD*%
%TO.C,C431*%
X131835000Y-160905000D03*
X130875000Y-160905000D03*
%TD*%
D10*
%TO.C,R821*%
X111415000Y-153885000D03*
X111415000Y-152865000D03*
%TD*%
D18*
%TO.C,D304*%
X144115000Y-155395000D03*
X143275000Y-155395000D03*
%TD*%
D10*
%TO.C,R307*%
X145415000Y-158885000D03*
X145415000Y-157865000D03*
%TD*%
D22*
%TO.C,C105*%
X153720000Y-121045000D03*
X150770000Y-121045000D03*
%TD*%
D19*
%TO.C,J412*%
X184495000Y-78550000D03*
X184495000Y-77300000D03*
X184495000Y-76050000D03*
X184495000Y-74800000D03*
D20*
X181295000Y-80400000D03*
X181295000Y-72950000D03*
%TD*%
D23*
%TO.C,F402*%
X176395000Y-75532500D03*
X176395000Y-71257500D03*
%TD*%
D16*
%TO.C,R211*%
X152385000Y-131415000D03*
X151365000Y-131415000D03*
%TD*%
D24*
%TO.C,F801*%
X158625000Y-167075000D03*
X155825000Y-167075000D03*
%TD*%
D16*
%TO.C,R305*%
X131885000Y-162915000D03*
X130865000Y-162915000D03*
%TD*%
D25*
%TO.C,C209*%
X176675000Y-117200000D03*
X176675000Y-115650000D03*
%TD*%
D19*
%TO.C,J414*%
X184495000Y-97295000D03*
X184495000Y-96045000D03*
X184495000Y-94795000D03*
D20*
X181295000Y-99145000D03*
X181295000Y-92945000D03*
%TD*%
D16*
%TO.C,R213*%
X156385000Y-131915000D03*
X155365000Y-131915000D03*
%TD*%
D26*
%TO.C,D202*%
X133945000Y-121695000D03*
X129945000Y-121695000D03*
%TD*%
D16*
%TO.C,R208*%
X149885000Y-150915000D03*
X148865000Y-150915000D03*
%TD*%
D22*
%TO.C,C102*%
X168720000Y-131545000D03*
X165770000Y-131545000D03*
%TD*%
D23*
%TO.C,F501*%
X162895000Y-157532500D03*
X162895000Y-153257500D03*
%TD*%
D16*
%TO.C,R101*%
X143885000Y-124415000D03*
X142865000Y-124415000D03*
%TD*%
D27*
%TO.C,C206*%
X154425000Y-126595000D03*
X154425000Y-124695000D03*
%TD*%
D10*
%TO.C,R306*%
X126415000Y-162885000D03*
X126415000Y-161865000D03*
%TD*%
D28*
%TO.C,R411*%
X177395000Y-100537500D03*
X177395000Y-98712500D03*
%TD*%
D22*
%TO.C,C805*%
X153220000Y-163045000D03*
X150270000Y-163045000D03*
%TD*%
D16*
%TO.C,R812*%
X126885000Y-167915000D03*
X125865000Y-167915000D03*
%TD*%
D26*
%TO.C,D805*%
X176945000Y-163695000D03*
X172945000Y-163695000D03*
%TD*%
D11*
%TO.C,J903*%
X116295000Y-130795000D03*
X115045000Y-130795000D03*
X113795000Y-130795000D03*
D12*
X118145000Y-133995000D03*
X111945000Y-133995000D03*
%TD*%
D10*
%TO.C,R201*%
X126915000Y-122885000D03*
X126915000Y-121865000D03*
%TD*%
D29*
%TO.C,D203*%
X145895000Y-163595000D03*
X145895000Y-161495000D03*
%TD*%
D22*
%TO.C,C901*%
X124720000Y-129045000D03*
X121770000Y-129045000D03*
%TD*%
D10*
%TO.C,R602*%
X121915000Y-164885000D03*
X121915000Y-163865000D03*
%TD*%
D30*
%TO.C,C211*%
X159095000Y-124925000D03*
X157195000Y-124925000D03*
%TD*%
D23*
%TO.C,F802*%
X185895000Y-174532500D03*
X185895000Y-170257500D03*
%TD*%
D16*
%TO.C,R806*%
X172885000Y-152915000D03*
X171865000Y-152915000D03*
%TD*%
%TO.C,R108*%
X157385000Y-150915000D03*
X156365000Y-150915000D03*
%TD*%
D26*
%TO.C,D801*%
X133945000Y-166695000D03*
X129945000Y-166695000D03*
%TD*%
D22*
%TO.C,C501*%
X169720000Y-154045000D03*
X166770000Y-154045000D03*
%TD*%
D16*
%TO.C,R506*%
X126885000Y-55415000D03*
X125865000Y-55415000D03*
%TD*%
D11*
%TO.C,J1005*%
X131050000Y-58295000D03*
X129800000Y-58295000D03*
X128550000Y-58295000D03*
X127300000Y-58295000D03*
D12*
X132900000Y-61495000D03*
X125450000Y-61495000D03*
%TD*%
D11*
%TO.C,J1004*%
X107550000Y-163295000D03*
X106300000Y-163295000D03*
X105050000Y-163295000D03*
X103800000Y-163295000D03*
D12*
X109400000Y-166495000D03*
X101950000Y-166495000D03*
%TD*%
D16*
%TO.C,R861*%
X124885000Y-164915000D03*
X123865000Y-164915000D03*
%TD*%
D10*
%TO.C,R210*%
X170415000Y-120385000D03*
X170415000Y-119365000D03*
%TD*%
D19*
%TO.C,J411*%
X184495000Y-68050000D03*
X184495000Y-66800000D03*
X184495000Y-65550000D03*
X184495000Y-64300000D03*
D20*
X181295000Y-69900000D03*
X181295000Y-62450000D03*
%TD*%
D16*
%TO.C,R434*%
X169385000Y-122915000D03*
X168365000Y-122915000D03*
%TD*%
D31*
%TO.C,F502*%
X165575000Y-105625000D03*
X165575000Y-102825000D03*
%TD*%
D30*
%TO.C,C208*%
X174095000Y-113925000D03*
X172195000Y-113925000D03*
%TD*%
D22*
%TO.C,C204*%
X151720000Y-125545000D03*
X148770000Y-125545000D03*
%TD*%
D32*
%TO.C,R421*%
X185537500Y-117895000D03*
X183712500Y-117895000D03*
%TD*%
D19*
%TO.C,J413*%
X184495000Y-87795000D03*
X184495000Y-86545000D03*
X184495000Y-85295000D03*
D20*
X181295000Y-89645000D03*
X181295000Y-83445000D03*
%TD*%
D33*
%TO.C,D206*%
X157212500Y-129675000D03*
X155637500Y-129675000D03*
%TD*%
D22*
%TO.C,C212*%
X140220000Y-121045000D03*
X137270000Y-121045000D03*
%TD*%
D16*
%TO.C,R842*%
X160385000Y-159915000D03*
X159365000Y-159915000D03*
%TD*%
D34*
%TO.C,C213*%
X141045000Y-130220000D03*
X141045000Y-127270000D03*
%TD*%
D16*
%TO.C,R424*%
X144385000Y-149915000D03*
X143365000Y-149915000D03*
%TD*%
D13*
%TO.C,C215*%
X157835000Y-127405000D03*
X156875000Y-127405000D03*
%TD*%
D33*
%TO.C,D205*%
X149212500Y-129175000D03*
X147637500Y-129175000D03*
%TD*%
D16*
%TO.C,R413*%
X165885000Y-117915000D03*
X164865000Y-117915000D03*
%TD*%
D26*
%TO.C,D802*%
X142445000Y-166695000D03*
X138445000Y-166695000D03*
%TD*%
D33*
%TO.C,D204*%
X153212500Y-129175000D03*
X151637500Y-129175000D03*
%TD*%
D19*
%TO.C,J304*%
X132995000Y-156550000D03*
X132995000Y-155300000D03*
X132995000Y-154050000D03*
X132995000Y-152800000D03*
X132995000Y-151550000D03*
X132995000Y-150300000D03*
D20*
X129795000Y-158400000D03*
X129795000Y-148450000D03*
%TD*%
D11*
%TO.C,J702*%
X186050000Y-155795000D03*
X184800000Y-155795000D03*
X183550000Y-155795000D03*
X182300000Y-155795000D03*
D12*
X187900000Y-158995000D03*
X180450000Y-158995000D03*
%TD*%
D19*
%TO.C,J302*%
X125495000Y-148050000D03*
X125495000Y-146800000D03*
X125495000Y-145550000D03*
X125495000Y-144300000D03*
D20*
X122295000Y-149900000D03*
X122295000Y-142450000D03*
%TD*%
D10*
%TO.C,R501*%
X109915000Y-86885000D03*
X109915000Y-85865000D03*
%TD*%
D16*
%TO.C,R414*%
X144885000Y-147915000D03*
X143865000Y-147915000D03*
%TD*%
D35*
%TO.C,D807*%
X158312500Y-162195000D03*
X158312500Y-164095000D03*
X156437500Y-163145000D03*
%TD*%
D36*
%TO.C,D101*%
X169245000Y-126695000D03*
X164945000Y-126695000D03*
%TD*%
D13*
%TO.C,C705*%
X176335000Y-167905000D03*
X175375000Y-167905000D03*
%TD*%
D10*
%TO.C,R502*%
X109915000Y-91885000D03*
X109915000Y-90865000D03*
%TD*%
%TO.C,R804*%
X126915000Y-165885000D03*
X126915000Y-164865000D03*
%TD*%
D35*
%TO.C,D421*%
X183812500Y-120695000D03*
X183812500Y-122595000D03*
X181937500Y-121645000D03*
%TD*%
D10*
%TO.C,R423*%
X159415000Y-130385000D03*
X159415000Y-129365000D03*
%TD*%
D19*
%TO.C,J312*%
X117995000Y-153050000D03*
X117995000Y-151800000D03*
X117995000Y-150550000D03*
X117995000Y-149300000D03*
D20*
X114795000Y-154900000D03*
X114795000Y-147450000D03*
%TD*%
D13*
%TO.C,C702*%
X170335000Y-175905000D03*
X169375000Y-175905000D03*
%TD*%
D11*
%TO.C,J701*%
X186050000Y-163295000D03*
X184800000Y-163295000D03*
X183550000Y-163295000D03*
X182300000Y-163295000D03*
D12*
X187900000Y-166495000D03*
X180450000Y-166495000D03*
%TD*%
D13*
%TO.C,C1002*%
X109335000Y-88905000D03*
X108375000Y-88905000D03*
%TD*%
D10*
%TO.C,R309*%
X143415000Y-153385000D03*
X143415000Y-152365000D03*
%TD*%
%TO.C,R832*%
X145915000Y-155885000D03*
X145915000Y-154865000D03*
%TD*%
D11*
%TO.C,J1006*%
X112050000Y-123295000D03*
X110800000Y-123295000D03*
X109550000Y-123295000D03*
X108300000Y-123295000D03*
D12*
X113900000Y-126495000D03*
X106450000Y-126495000D03*
%TD*%
D10*
%TO.C,R209*%
X177915000Y-120385000D03*
X177915000Y-119365000D03*
%TD*%
D13*
%TO.C,C106*%
X157835000Y-119905000D03*
X156875000Y-119905000D03*
%TD*%
D19*
%TO.C,J308*%
X140495000Y-152795000D03*
X140495000Y-151545000D03*
X140495000Y-150295000D03*
D20*
X137295000Y-154645000D03*
X137295000Y-148445000D03*
%TD*%
D10*
%TO.C,R433*%
X187415000Y-102885000D03*
X187415000Y-101865000D03*
%TD*%
D37*
%TO.C,C210*%
X157700000Y-122175000D03*
X156150000Y-122175000D03*
%TD*%
D10*
%TO.C,R207*%
X111415000Y-150885000D03*
X111415000Y-149865000D03*
%TD*%
%TO.C,R202*%
X144415000Y-130385000D03*
X144415000Y-129365000D03*
%TD*%
D19*
%TO.C,J311*%
X125495000Y-157295000D03*
X125495000Y-156045000D03*
X125495000Y-154795000D03*
D20*
X122295000Y-159145000D03*
X122295000Y-152945000D03*
%TD*%
D11*
%TO.C,J313*%
X140795000Y-158295000D03*
X139545000Y-158295000D03*
X138295000Y-158295000D03*
D12*
X142645000Y-161495000D03*
X136445000Y-161495000D03*
%TD*%
D38*
%TO.C,D602*%
X119395000Y-163115000D03*
X119395000Y-162275000D03*
%TD*%
D22*
%TO.C,C203*%
X148220000Y-121045000D03*
X145270000Y-121045000D03*
%TD*%
D16*
%TO.C,R311*%
X167385000Y-159415000D03*
X166365000Y-159415000D03*
%TD*%
D10*
%TO.C,R609*%
X111915000Y-167885000D03*
X111915000Y-166865000D03*
%TD*%
D16*
%TO.C,R852*%
X157385000Y-157415000D03*
X156365000Y-157415000D03*
%TD*%
D39*
%TO.C,R105*%
X161675000Y-129250000D03*
X161675000Y-127600000D03*
%TD*%
D18*
%TO.C,D806*%
X148115000Y-165895000D03*
X147275000Y-165895000D03*
%TD*%
D24*
%TO.C,F401*%
X175625000Y-128575000D03*
X172825000Y-128575000D03*
%TD*%
D30*
%TO.C,C207*%
X173595000Y-116925000D03*
X171695000Y-116925000D03*
%TD*%
D10*
%TO.C,R831*%
X111415000Y-156885000D03*
X111415000Y-155865000D03*
%TD*%
D16*
%TO.C,R310*%
X167885000Y-157415000D03*
X166865000Y-157415000D03*
%TD*%
D21*
%TO.C,C411*%
X133905000Y-161835000D03*
X133905000Y-160875000D03*
%TD*%
D10*
%TO.C,R301*%
X110915000Y-140885000D03*
X110915000Y-139865000D03*
%TD*%
D23*
%TO.C,F902*%
X109395000Y-147532500D03*
X109395000Y-143257500D03*
%TD*%
D26*
%TO.C,D803*%
X153445000Y-158695000D03*
X149445000Y-158695000D03*
%TD*%
D19*
%TO.C,J602*%
X116495000Y-162550000D03*
X116495000Y-161300000D03*
D20*
X113295000Y-164400000D03*
X113295000Y-159450000D03*
%TD*%
D40*
%TO.C,D804*%
X162195000Y-166945000D03*
X162195000Y-162945000D03*
%TD*%
D31*
%TO.C,F403*%
X177075000Y-113125000D03*
X177075000Y-110325000D03*
%TD*%
D15*
%TO.C,R103*%
X176750000Y-131675000D03*
X175100000Y-131675000D03*
%TD*%
%TO.C,R104*%
X163250000Y-131675000D03*
X161600000Y-131675000D03*
%TD*%
D16*
%TO.C,R607*%
X148385000Y-167915000D03*
X147365000Y-167915000D03*
%TD*%
D11*
%TO.C,J1008*%
X122550000Y-121295000D03*
X121300000Y-121295000D03*
X120050000Y-121295000D03*
X118800000Y-121295000D03*
D12*
X124400000Y-124495000D03*
X116950000Y-124495000D03*
%TD*%
D41*
%TO.C,J1003*%
X102295000Y-154300000D03*
X102295000Y-155550000D03*
X102295000Y-156800000D03*
X102295000Y-158050000D03*
D42*
X105495000Y-152450000D03*
X105495000Y-159900000D03*
%TD*%
M02*
