M48
; DRILL file KiCad 10.0.6 date 2026-09-27T18:23:32
; FORMAT={-:-/ absolute / metric / decimal}
; #@! TF.CreationDate,2026-09-27T18:23:32+00:00
; #@! TF.GenerationSoftware,Kicad,Pcbnew,10.0.6
; #@! TF.FileFunction,Plated,1,4,PTH
FMAT,2
METRIC
; #@! TA.AperFunction,Plated,PTH,ComponentDrill
T1C0.200
; #@! TA.AperFunction,Plated,PTH,ViaDrill
T2C0.300
; #@! TA.AperFunction,Plated,PTH,ViaDrill
T3C0.400
; #@! TA.AperFunction,Plated,PTH,ComponentDrill
T4C0.500
; #@! TA.AperFunction,Plated,PTH,ComponentDrill
T5C0.600
; #@! TA.AperFunction,Plated,PTH,ComponentDrill
T6C1.000
; #@! TA.AperFunction,Plated,PTH,ComponentDrill
T7C1.300
; #@! TA.AperFunction,Plated,PTH,ComponentDrill
T8C1.900
; #@! TA.AperFunction,Plated,PTH,ComponentDrill
T9C3.200
%
G90
G05
T1
X173.485Y-120.985
X173.485Y-122.165
X174.665Y-120.985
X174.665Y-122.165
T2
X102.961Y-153.523
X103.655Y-156.426
X103.73Y-124.015
X103.817Y-151.364
X104.643Y-115.074
X104.687Y-161.498
X105.015Y-169.487
X105.266Y-57.299
X105.424Y-125.355
X105.995Y-153.542
X106.008Y-168.057
X106.302Y-161.658
X106.955Y-104.674
X107.017Y-138.116
X107.166Y-143.532
X107.377Y-152.538
X107.427Y-87.527
X107.985Y-166.054
X108.015Y-169.25
X108.217Y-84.351
X108.3Y-120.15
X108.455Y-92.401
X109.171Y-134.918
X109.55Y-119.681
X109.915Y-83.633
X110.508Y-132.272
X110.526Y-69.606
X110.557Y-160.902
X110.69Y-83.856
X110.697Y-91.647
X110.8Y-120.184
X110.827Y-86.888
X110.885Y-146.202
X111.199Y-168.701
X111.703Y-140.653
X112.05Y-119.513
X112.198Y-149.865
X112.204Y-151.189
X112.226Y-169.715
X112.631Y-156.894
X113.002Y-130.795
X113.103Y-150.528
X113.222Y-56.877
X113.244Y-157.951
X113.995Y-119.627
X114.006Y-156.187
X114.485Y-171.453
X115.361Y-150.149
X115.595Y-173.36
X115.937Y-155.858
X116.692Y-152.309
X116.941Y-148.268
X117.514Y-164.056
X117.814Y-120.309
X117.995Y-146.535
X118.302Y-157.283
X118.797Y-159.039
X118.803Y-146.537
X119.16Y-151.249
X119.167Y-158.308
X119.295Y-164.337
X120.05Y-119.087
X120.237Y-142.838
X120.304Y-162.361
X121.116Y-158.023
X121.208Y-164.337
X121.3Y-116.902
X121.8Y-162.499
X122.122Y-165.869
X122.47Y-155.791
X122.55Y-117.518
X122.586Y-141.04
X122.594Y-163.386
X122.759Y-164.746
X123.865Y-164.118
X124.017Y-157.987
X124.17Y-67.909
X124.497Y-158.746
X124.637Y-152.734
X125.494Y-151.573
X125.83Y-167.05
X126.261Y-143.534
X126.463Y-56.193
X126.66Y-146.099
X126.662Y-144.851
X126.669Y-155.346
X126.888Y-156.65
X126.943Y-168.704
X126.946Y-158.877
X127.978Y-168.422
X128.473Y-63.492
X128.475Y-123.246
X128.517Y-125.748
X128.55Y-62.33
X128.758Y-64.282
X129.342Y-62.194
X129.419Y-161.623
X130.394Y-63.587
X130.425Y-61.456
X130.993Y-161.719
X131.659Y-153.885
X131.677Y-157.192
X131.868Y-154.677
X132.819Y-157.348
X133.368Y-140.331
X134.3Y-128.706
X134.326Y-148.235
X135.435Y-157.714
X135.627Y-140.467
X135.635Y-155.999
X136.68Y-115.989
X137.469Y-159.817
X137.553Y-161.939
X137.716Y-86.62
X138.241Y-168.058
X138.855Y-159.805
X139.05Y-57.312
X139.815Y-168.35
X141.956Y-158.429
X142.408Y-147.669
X142.59Y-149.124
X142.639Y-152.545
X142.737Y-156.774
X142.743Y-158.506
X142.853Y-159.485
X144.25Y-166.36
X144.312Y-151.015
X144.57Y-163.617
X144.885Y-147.124
X144.951Y-155.251
X145.61Y-167.611
X145.686Y-153.61
X145.7Y-147.574
X145.998Y-148.327
X146.26Y-134.639
X146.468Y-160.92
X147.007Y-116.115
X147.042Y-153.291
X147.365Y-168.688
X147.588Y-173.533
X147.637Y-130.112
X147.952Y-153.411
X148.061Y-148.995
X148.253Y-162.12
X148.626Y-132.671
X149.213Y-130.155
X149.219Y-166.494
X149.223Y-167.316
X149.425Y-152.314
X150.7Y-151.674
X152.335Y-168.082
X154.311Y-163.202
X155.289Y-97.35
X155.594Y-158.514
X155.622Y-154.374
X156.198Y-164.572
X156.378Y-160.933
X156.944Y-163.924
X157.139Y-159.13
X158.116Y-149.784
X158.296Y-150.787
X158.512Y-160.352
X158.718Y-132.276
X158.902Y-164.868
X159.363Y-158.387
X159.558Y-163.935
X160.193Y-130.011
X160.784Y-165.885
X160.88Y-155.292
X161.934Y-155.819
X161.961Y-160.768
X162.343Y-104.098
X163.021Y-159.024
X163.086Y-121.664
X163.697Y-173.333
X164.609Y-154.626
X165.115Y-173.783
X165.409Y-154.051
X165.575Y-101.744
X165.77Y-128.884
X166.365Y-160.885
X166.513Y-164.019
X166.811Y-158.703
X167.031Y-163.441
X167.598Y-114.906
X167.764Y-123.516
X167.86Y-156.594
X167.972Y-121.814
X168.633Y-175.488
X168.641Y-157.203
X168.718Y-176.486
X168.898Y-173.702
X169.415Y-118.768
X169.514Y-111.997
X169.521Y-178.668
X170.057Y-174.825
X170.136Y-160.919
X170.139Y-116.811
X170.948Y-160.445
X171.295Y-156.445
X171.345Y-106.175
X171.692Y-161.225
X171.732Y-118.152
X172.09Y-174.15
X172.208Y-119.951
X172.57Y-178.663
X172.612Y-122.915
X173.282Y-119.142
X173.501Y-175.743
X173.941Y-127.313
X174.081Y-131.549
X174.097Y-134.246
X174.451Y-160.866
X174.685Y-116.328
X175.632Y-114.93
X175.757Y-169.248
X176.292Y-124.938
X176.456Y-96.447
X176.645Y-92.19
X177.199Y-118.768
X177.402Y-114.923
X177.415Y-148.073
X177.479Y-123.589
X178.697Y-128.413
X178.936Y-150.035
X179.117Y-80.922
X179.153Y-121.442
X179.165Y-119.85
X179.199Y-112.695
X179.273Y-90.506
X179.381Y-118.092
X179.394Y-106.397
X179.471Y-69.759
X179.701Y-109.423
X180.62Y-90.622
X180.722Y-123.718
X180.795Y-81.384
X180.795Y-100.302
X181.936Y-122.409
X181.97Y-87.249
X181.97Y-127.849
X182.232Y-158.028
X182.991Y-157.935
X183.194Y-121.447
X183.324Y-96.744
X183.327Y-76.601
X183.501Y-98.939
X183.814Y-119.921
X184.495Y-61.42
X184.495Y-82.472
X184.495Y-92.984
X184.495Y-103.409
X184.8Y-160.866
X184.83Y-176.031
X184.855Y-71.989
X185.804Y-105.168
X185.98Y-85.846
X186.04Y-98.289
X186.245Y-172.253
X186.245Y-175.622
X186.449Y-157.108
X187.114Y-104.716
X187.305Y-100.871
X187.495Y-125.971
X187.545Y-169.184
X188.495Y-123.247
X188.495Y-125.975
X188.532Y-104.418
X189.066Y-101.095
T3
X106.997Y-142.059
X107.06Y-146.835
X108.346Y-150.002
X110.626Y-126.801
X111.706Y-137.757
X111.932Y-139.653
X115.245Y-125.535
X116.046Y-132.25
X118.237Y-138.625
X126.925Y-133.765
X129.309Y-99.126
X131.549Y-138.315
X132.513Y-120.263
X132.785Y-162.846
X134.797Y-168.203
X135.799Y-132.553
X139.032Y-162.666
X140.22Y-118.99
X140.721Y-133.923
X140.833Y-168.307
X144.332Y-167.315
X144.415Y-131.293
X148.22Y-118.917
X148.459Y-155.204
X150.797Y-156.29
X153.72Y-118.979
X154.425Y-129.289
X155.099Y-165.494
X158.759Y-135.323
X159.578Y-131.575
X160.345Y-122.546
X160.627Y-164.515
X162.895Y-156.354
X163.154Y-133.539
X164.094Y-166.471
X165.697Y-112.181
X165.697Y-113.786
X166.059Y-134.773
X166.895Y-72.459
X166.895Y-108.059
X167.271Y-130.891
X168.103Y-152.884
X168.62Y-128.605
X170.224Y-162.685
X170.991Y-154.006
X171.163Y-152.137
X171.188Y-123.889
X174.097Y-72.093
X175.801Y-120.07
X176.395Y-76.699
X178.652Y-161.665
X179.349Y-167.957
X182.856Y-170.771
X183.969Y-71.103
X185.895Y-169.011
T4
X117.6Y-60.0
X117.6Y-170.0
X118.303Y-58.303
X118.303Y-61.697
X118.303Y-168.303
X118.303Y-171.697
X120.0Y-57.6
X120.0Y-62.4
X120.0Y-167.6
X120.0Y-172.4
X121.697Y-58.303
X121.697Y-61.697
X121.697Y-168.303
X121.697Y-171.697
X122.4Y-60.0
X122.4Y-170.0
X167.6Y-60.0
X167.6Y-170.0
X168.303Y-58.303
X168.303Y-61.697
X168.303Y-168.303
X168.303Y-171.697
X170.0Y-57.6
X170.0Y-62.4
X170.0Y-167.6
X170.0Y-172.4
X171.697Y-58.303
X171.697Y-61.697
X171.697Y-168.303
X171.697Y-171.697
X172.4Y-60.0
X172.4Y-170.0
T6
X102.715Y-63.225
X102.715Y-65.765
X102.715Y-68.305
X102.715Y-70.845
X102.715Y-73.385
X102.715Y-75.925
X102.715Y-78.465
X102.715Y-81.005
X102.715Y-83.545
X102.715Y-86.085
X102.715Y-88.625
X102.715Y-91.165
X102.715Y-93.705
X102.715Y-98.215
X102.715Y-100.755
X102.715Y-103.295
X102.715Y-105.835
X102.715Y-108.375
X102.715Y-110.915
X102.715Y-113.455
X102.715Y-115.995
X102.715Y-118.535
X102.715Y-121.075
X102.715Y-125.715
X102.715Y-128.255
X102.715Y-130.795
X102.715Y-133.335
X102.715Y-135.875
X102.715Y-138.415
X102.715Y-140.955
X102.715Y-143.495
X102.715Y-146.035
X102.715Y-148.575
X105.255Y-63.225
X105.255Y-65.765
X105.255Y-68.305
X105.255Y-70.845
X105.255Y-73.385
X105.255Y-75.925
X105.255Y-78.465
X105.255Y-81.005
X105.255Y-83.545
X105.255Y-86.085
X105.255Y-88.625
X105.255Y-91.165
X105.255Y-93.705
X115.295Y-139.895
X115.295Y-142.395
X123.295Y-134.895
X123.295Y-137.395
X127.395Y-172.295
X129.895Y-172.295
X136.895Y-172.295
X137.995Y-133.595
X137.995Y-144.595
X139.395Y-172.295
X146.395Y-172.295
X148.895Y-172.295
X150.045Y-135.095
X150.045Y-146.095
X155.895Y-172.295
X158.395Y-172.295
X165.095Y-143.995
X176.095Y-143.995
X177.395Y-172.295
X179.895Y-172.295
T7
X117.025Y-70.025
X117.025Y-77.645
X117.025Y-85.265
X117.025Y-97.525
X117.025Y-105.145
X117.025Y-112.765
X157.665Y-70.025
X157.665Y-77.645
X157.665Y-85.265
X157.665Y-97.525
X157.665Y-105.145
X157.665Y-112.765
T8
X142.995Y-136.595
X142.995Y-141.595
X160.045Y-138.095
X160.045Y-143.095
X168.095Y-148.995
X173.095Y-148.995
T9
X120.0Y-60.0
X120.0Y-170.0
X170.0Y-60.0
X170.0Y-170.0
T5
X101.945Y-170.55G85X101.945Y-171.65
G05
X101.945Y-174.88G85X101.945Y-175.68
G05
X110.585Y-170.55G85X110.585Y-171.65
G05
X110.585Y-174.88G85X110.585Y-175.68
G05
M30
